<?xml version="1.0" encoding="UTF-8" standalone="no"?>
<svg
   xmlns:dc="http://purl.org/dc/elements/1.1/"
   xmlns:cc="http://creativecommons.org/ns#"
   xmlns:rdf="http://www.w3.org/1999/02/22-rdf-syntax-ns#"
   xmlns:svg="http://www.w3.org/2000/svg"
   xmlns="http://www.w3.org/2000/svg"
   xmlns:sodipodi="http://sodipodi.sourceforge.net/DTD/sodipodi-0.dtd"
   xmlns:inkscape="http://www.inkscape.org/namespaces/inkscape"
   viewBox="0 0 239.26288 159.375"
   height="159.375"
   width="239.26288"
   xml:space="preserve"
   version="1.1"
   id="svg2"
   inkscape:version="0.91 r13725"
   sodipodi:docname="figure_theor_b.svg"><sodipodi:namedview
     pagecolor="#ffffff"
     bordercolor="#666666"
     borderopacity="1"
     objecttolerance="10"
     gridtolerance="10"
     guidetolerance="10"
     inkscape:pageopacity="0"
     inkscape:pageshadow="2"
     inkscape:window-width="741"
     inkscape:window-height="480"
     id="namedview42"
     showgrid="false"
     fit-margin-top="0"
     fit-margin-left="0"
     fit-margin-right="0"
     fit-margin-bottom="0"
     inkscape:zoom="0.23838384"
     inkscape:cx="364.19988"
     inkscape:cy="63.75"
     inkscape:window-x="57"
     inkscape:window-y="34"
     inkscape:window-maximized="0"
     inkscape:current-layer="svg2" /><metadata
     id="metadata8"><rdf:RDF><cc:Work
         rdf:about=""><dc:format>image/svg+xml</dc:format><dc:type
           rdf:resource="http://purl.org/dc/dcmitype/StillImage" /><dc:title></dc:title></cc:Work></rdf:RDF></metadata><defs
     id="defs6"><clipPath
       id="clipPath2358"
       clipPathUnits="userSpaceOnUse"><path
         id="path2360"
         d="m 4680,3940 200,0 0,1890 -200,-1890 z"
         inkscape:connector-curvature="0" /></clipPath><clipPath
       id="clipPath2370"
       clipPathUnits="userSpaceOnUse"><path
         id="path2372"
         d="m 4880,5830 -200,0 0,-1890 200,1890 z"
         inkscape:connector-curvature="0" /></clipPath></defs><g
     transform="matrix(1.25,0,0,-1.25,-18.300125,590.625)"
     id="g10"><path
       d="m 27,378 178,0 0,94 -178,0 0,-94 z"
       style="fill:#ffffff;fill-opacity:1;fill-rule:nonzero;stroke:none"
       id="path110"
       inkscape:connector-curvature="0" /><g
       id="g112"><text
         transform="matrix(1,0,0,-1,71,350)"
         style="font-variant:normal;font-weight:normal;font-size:11px;font-family:Times;-inkscape-font-specification:Times-Roman;writing-mode:lr-tb;fill:#404040;fill-opacity:1;fill-rule:nonzero;stroke:none"
         id="text114"><tspan
           x="0 7.3369999 12.221 17.105 22.605 27.489 30.547001 33.605 39.105 44.605 47.355 54.076 57.133999 65.692001 70.575996 73.325996"
           y="0"
           id="tspan116">Recycling Time (</tspan></text>
<text
         transform="matrix(1,0,0,-1,148,350)"
         style="font-variant:normal;font-weight:normal;font-size:11px;font-family:mwb_cmmi10;-inkscape-font-specification:mwb_cmmi10;writing-mode:lr-tb;fill:#404040;fill-opacity:1;fill-rule:nonzero;stroke:none"
         id="text118"><tspan
           x="0"
           y="0"
           id="tspan120">τ</tspan></text>
<text
         transform="matrix(1,0,0,-1,153,345)"
         style="font-variant:normal;font-weight:normal;font-size:8px;font-family:Times;-inkscape-font-specification:Times-Roman;writing-mode:lr-tb;fill:#404040;fill-opacity:1;fill-rule:nonzero;stroke:none"
         id="text122"><tspan
           x="0"
           y="0"
           id="tspan124">r</tspan></text>
<text
         transform="matrix(1,0,0,-1,156,350)"
         style="font-variant:normal;font-weight:normal;font-size:11px;font-family:Times;-inkscape-font-specification:Times-Roman;writing-mode:lr-tb;fill:#404040;fill-opacity:1;fill-rule:nonzero;stroke:none"
         id="text126"><tspan
           x="0"
           y="0"
           id="tspan128">)</tspan></text>
</g><path
       d="m 27,378 178,0"
       style="fill:none;stroke:#404040;stroke-width:1;stroke-linecap:square;stroke-linejoin:miter;stroke-miterlimit:10;stroke-dasharray:none;stroke-opacity:1"
       id="path130"
       inkscape:connector-curvature="0" /><path
       d="m 27,472 178,0"
       style="fill:none;stroke:#404040;stroke-width:1;stroke-linecap:square;stroke-linejoin:miter;stroke-miterlimit:10;stroke-dasharray:none;stroke-opacity:1"
       id="path132"
       inkscape:connector-curvature="0" /><path
       d="m 80.4,378 0,1.78"
       style="fill:none;stroke:#404040;stroke-width:1;stroke-linecap:square;stroke-linejoin:miter;stroke-miterlimit:10;stroke-dasharray:none;stroke-opacity:1"
       id="path134"
       inkscape:connector-curvature="0" /><path
       d="m 80.4,472 0,-1.78"
       style="fill:none;stroke:#404040;stroke-width:1;stroke-linecap:square;stroke-linejoin:miter;stroke-miterlimit:10;stroke-dasharray:none;stroke-opacity:1"
       id="path136"
       inkscape:connector-curvature="0" /><path
       d="m 151.6,378 0,1.78"
       style="fill:none;stroke:#404040;stroke-width:1;stroke-linecap:square;stroke-linejoin:miter;stroke-miterlimit:10;stroke-dasharray:none;stroke-opacity:1"
       id="path138"
       inkscape:connector-curvature="0" /><path
       d="m 151.6,472 0,-1.78"
       style="fill:none;stroke:#404040;stroke-width:1;stroke-linecap:square;stroke-linejoin:miter;stroke-miterlimit:10;stroke-dasharray:none;stroke-opacity:1"
       id="path140"
       inkscape:connector-curvature="0" /><g
       id="g142"><text
         transform="matrix(1,0,0,-1,75,366)"
         style="font-variant:normal;font-weight:normal;font-size:10px;font-family:mwb_cmmi10;-inkscape-font-specification:mwb_cmmi10;writing-mode:lr-tb;fill:#404040;fill-opacity:1;fill-rule:nonzero;stroke:none"
         id="text144"><tspan
           x="0"
           y="0"
           id="tspan146">τ</tspan></text>
<text
         transform="matrix(1,0,0,-1,80,361)"
         style="font-variant:normal;font-weight:normal;font-size:8px;font-family:Times;-inkscape-font-specification:Times-Roman;writing-mode:lr-tb;fill:#404040;fill-opacity:1;fill-rule:nonzero;stroke:none"
         id="text148"><tspan
           x="0"
           y="0"
           id="tspan150">c</tspan></text>
<text
         transform="matrix(1,0,0,-1,146,366)"
         style="font-variant:normal;font-weight:normal;font-size:10px;font-family:mwb_cmmi10;-inkscape-font-specification:mwb_cmmi10;writing-mode:lr-tb;fill:#404040;fill-opacity:1;fill-rule:nonzero;stroke:none"
         id="text152"><tspan
           x="0"
           y="0"
           id="tspan154">τ</tspan></text>
<text
         transform="matrix(1,0,0,-1,151,361)"
         style="font-variant:normal;font-weight:normal;font-size:8px;font-family:Times;-inkscape-font-specification:Times-Roman;writing-mode:lr-tb;fill:#404040;fill-opacity:1;fill-rule:nonzero;stroke:none"
         id="text156"><tspan
           x="0"
           y="0"
           id="tspan158">a</tspan></text>
<text
         transform="matrix(0,1,1,0,22.1531,393.38)"
         style="font-variant:normal;font-weight:normal;font-size:11px;font-family:Times;-inkscape-font-specification:Times-Roman;writing-mode:lr-tb;fill:#404040;fill-opacity:1;fill-rule:nonzero;stroke:none"
         id="text160"><tspan
           x="0 7.3369999 12.221 15.279 20.163 23.221001 26.278999 31.778999 36.662998 39.412998 47.355 52.855 55.912998 58.971001"
           y="0"
           id="tspan162">Relative Units</tspan></text>
</g><path
       d="m 27,378 0,94"
       style="fill:none;stroke:#404040;stroke-width:1;stroke-linecap:square;stroke-linejoin:miter;stroke-miterlimit:10;stroke-dasharray:none;stroke-opacity:1"
       id="path164"
       inkscape:connector-curvature="0" /><path
       d="m 205,378 0,94"
       style="fill:none;stroke:#404040;stroke-width:1;stroke-linecap:square;stroke-linejoin:miter;stroke-miterlimit:10;stroke-dasharray:none;stroke-opacity:1"
       id="path166"
       inkscape:connector-curvature="0" /><path
       d="m 27,378 3.6328,2.741 3.632,2.74 3.6332,2.741 3.6329,2.74 3.632,2.741 3.6332,2.74 3.6328,2.741 3.632,2.74 3.6332,2.741 3.6329,2.74 3.632,2.741 3.6332,2.74 3.6316,2.741 3.6332,2.74 3.6328,2.741 3.6321,2.74 3.6332,2.741 3.6328,2.74 3.632,2.741 3.6332,2.74 3.6329,2.741 3.632,2.74 3.633,2.741 3.633,2.74 3.632,2.74 3.633,2.739 3.633,2.737 3.632,2.731 3.633,2.716 3.633,2.679 3.632,2.586 3.633,2.361 3.633,1.87 3.632,0.969 3.633,-0.252 3.633,-1.382 3.632,-2.109 3.633,-2.474 3.632,-2.633 3.633,-2.698 3.633,-2.724 3.632,-2.734 3.633,-2.738 3.633,-2.74 3.632,-2.74 3.633,-2.74 3.633,-2.741 3.632,-2.74 3.633,-2.741"
       style="fill:none;stroke:#0072bd;stroke-width:1.5;stroke-linecap:butt;stroke-linejoin:bevel;stroke-miterlimit:10;stroke-dasharray:1, 3;stroke-dashoffset:0;stroke-opacity:1"
       id="path168"
       inkscape:connector-curvature="0" /><path
       d="m 27,437.711 3.6328,2.041 3.632,2.036 3.6332,2.028 3.6329,2.016 3.632,2 3.6332,1.978 3.6328,1.947 3.632,1.904 3.6332,1.847 3.6329,1.771 3.632,1.673 3.6332,1.552 3.6316,1.406 3.6332,1.242 3.6328,1.063 3.6321,0.884 3.6332,0.713 3.6328,0.56 3.632,0.427 3.6332,0.321 3.6329,0.236 3.632,0.173 3.633,0.124 3.633,0.089 3.632,0.063 3.633,0.045 3.633,0.032 3.632,0.022 3.633,0.016 3.633,0.011 3.632,0.008 3.633,0.005 3.633,0.004 3.632,0.003 3.633,0.002 3.633,0.001 3.632,10e-4 3.633,0.001 3.632,0 3.633,10e-4 18.163,0 3.633,0.001 10.898,0"
       style="fill:none;stroke:#d95319;stroke-width:1.5;stroke-linecap:butt;stroke-linejoin:bevel;stroke-miterlimit:10;stroke-dasharray:1, 3;stroke-dashoffset:0;stroke-opacity:1"
       id="path170"
       inkscape:connector-curvature="0" /><path
       d="m 27,394.818 3.6328,0.699 3.632,0.705 3.6332,0.713 3.6329,0.724 3.632,0.74 3.6332,0.763 3.6328,0.794 3.632,0.836 3.6332,0.894 3.6329,0.97 3.632,1.067 3.6332,1.189 3.6316,1.334 3.6332,1.499 3.6328,1.677 3.6321,1.856 3.6332,2.027 3.6328,2.182 3.632,2.313 3.6332,2.419 3.6329,2.505 3.632,2.568 3.633,2.616 3.633,2.652 3.632,2.676 3.633,2.694 3.633,2.705 3.632,2.709 3.633,2.7 3.633,2.668 3.632,2.578 3.633,2.356 3.633,1.866 3.632,0.966 3.633,-0.254 3.633,-1.383 3.632,-2.111 3.633,-2.474 3.632,-2.634 3.633,-2.698 3.633,-2.724 3.632,-2.734 3.633,-2.739 3.633,-2.739 3.632,-2.74 3.633,-2.741 3.633,-2.74 3.632,-2.741 3.633,-2.74"
       style="fill:none;stroke:#404040;stroke-width:1.5;stroke-linecap:square;stroke-linejoin:miter;stroke-miterlimit:10;stroke-dasharray:none;stroke-opacity:1"
       id="path172"
       inkscape:connector-curvature="0" /></g></svg>