<?xml version="1.0" encoding="UTF-8" standalone="no"?>
<svg
   xmlns:dc="http://purl.org/dc/elements/1.1/"
   xmlns:cc="http://creativecommons.org/ns#"
   xmlns:rdf="http://www.w3.org/1999/02/22-rdf-syntax-ns#"
   xmlns:svg="http://www.w3.org/2000/svg"
   xmlns="http://www.w3.org/2000/svg"
   viewBox="0 0 349.5025 213.85272"
   height="213.85272"
   width="349.5025"
   xml:space="preserve"
   version="1.1"
   id="svg2"><metadata
     id="metadata8"><rdf:RDF><cc:Work
         rdf:about=""><dc:format>image/svg+xml</dc:format><dc:type
           rdf:resource="http://purl.org/dc/dcmitype/StillImage" /><dc:title></dc:title></cc:Work></rdf:RDF></metadata><defs
     id="defs6" /><g
     transform="matrix(1.25,0,0,-1.25,-277.31875,214.72625)"
     id="g10"><path
       d="m 345.184,3.21484 c -0.907,0.04727 -0.907,0.03125 -0.907,0.84414 l 0,5.45313 0.453,0 c 1.266,-0.01602 1.344,-0.04727 1.625,-1.40703 l 0.532,0 -0.078,2.18792 -6.485,0 -0.078,-2.18792 0.531,0 c 0.282,1.35976 0.375,1.39101 1.641,1.40703 l 0.437,0 0,-5.34414 c -0.015,-0.93789 0.047,-0.89102 -1.031,-0.95313 l 0,-0.51601 3.5,0 0,0.51601 -0.14,0 z"
       style="fill:#3f3f3f;fill-opacity:1;fill-rule:nonzero;stroke:none"
       id="path3886" /><path
       d="m 347.188,2.69883 2.75,0 0,0.46914 c -0.86,0.06211 -0.797,0 -0.813,0.81211 l 0,3.98476 -0.156,0.10899 -1.891,-0.65586 0,-0.45313 0.25,0.03125 c 0.125,0.03086 0.266,0.03086 0.375,0.03086 0.25,0 0.203,-0.01484 0.203,-0.5 l 0,-2.54687 c -0.015,-0.81211 0.032,-0.78125 -0.875,-0.81211 l 0,-0.46914 0.157,0 z m 1.234,7.82817 c -0.297,0 -0.703,-0.4219 -0.703,-0.71802 0,-0.3289 0.39,-0.71914 0.703,-0.71914 0.328,0 0.719,0.39024 0.719,0.71914 0,0.31212 -0.407,0.71802 -0.719,0.71802 z"
       style="fill:#3f3f3f;fill-opacity:1;fill-rule:nonzero;stroke:none"
       id="path3888" /><path
       d="m 350.164,2.69883 2.594,0 0,0.46914 c -0.703,0.01601 -0.735,-0.01602 -0.75,0.42187 l 0,3.10899 c 0,0.01601 0.047,0.01601 0.125,0.09414 0.265,0.25 0.64,0.39101 1.031,0.39101 0.484,0 0.563,-0.23515 0.563,-1 l 0,-2.39101 c -0.016,-0.625 0.031,-0.59414 -0.75,-0.625 l 0,-0.46914 2.765,0 0,0.46914 c -0.75,0 -0.765,0.03086 -0.781,0.73398 l 0,2.71914 c 0.281,0.40586 0.531,0.56289 1.047,0.56289 0.625,0 0.672,-0.14101 0.672,-1.04687 l 0,-2.32813 c -0.016,-0.64101 0.062,-0.5789 -0.719,-0.64101 l 0,-0.46914 2.703,0 0,0.46914 -0.437,0.03086 c -0.344,0.04726 -0.329,0.06328 -0.329,0.48515 l 0,2.26485 c 0,1.29726 -0.562,2.125 -1.421,2.125 -0.641,0 -1.297,-0.34375 -1.735,-0.79688 -0.109,0.34414 -0.625,0.79688 -1.219,0.79688 -0.5,0 -0.89,-0.18672 -1.562,-0.70274 l 0,0.64102 -0.219,0.06172 C 351.18,7.85508 350.805,7.73008 350.055,7.54297 l 0,-0.51602 c 0.297,0.07813 0.375,0.09414 0.5,0.09414 0.281,0 0.234,-0.01601 0.234,-0.54726 l 0,-2.78086 c -0.031,-0.625 -0.016,-0.625 -0.781,-0.625 l 0,-0.46914 0.156,0 z"
       style="fill:#3f3f3f;fill-opacity:1;fill-rule:nonzero;stroke:none"
       id="path3890" /><path
       d="m 362.988,4.76211 c -0.515,-0.82813 -0.89,-1.11016 -1.593,-1.11016 -0.625,0 -1,0.28203 -1.438,1.14102 -0.031,0.07812 -0.109,0.42187 -0.125,0.95312 l 3.406,0 c -0.109,0.875 -0.265,1.29688 -0.547,1.65586 -0.328,0.39102 -0.921,0.67188 -1.5,0.67188 -0.546,0 -1.171,-0.25 -1.593,-0.625 -0.516,-0.45274 -0.86,-1.34375 -0.86,-2.23399 0,-1.53086 0.953,-2.625 2.203,-2.625 1.063,0 2.016,0.79727 2.516,2.06211 l -0.422,0.18789 -0.047,-0.07773 z m -3.14,1.48398 c 0.125,0.875 0.359,1.10899 1.031,1.10899 0.656,0 0.781,-0.14024 0.891,-0.95313 l -1.907,0 -0.015,-0.15586 z"
       style="fill:#3f3f3f;fill-opacity:1;fill-rule:nonzero;stroke:none"
       id="path3892" /><path
       d="m 369.328,10.402 c -0.812,-0.54692 -1.156,-0.81216 -1.562,-1.32817 -0.782,-0.95274 -1.204,-2.15586 -1.204,-3.45274 0,-1.40625 0.454,-2.57812 1.422,-3.70312 0.454,-0.53086 0.735,-0.76602 1.454,-1.203126 l 0.296,0.406246 c -0.984,0.76602 -1.25,1.04688 -1.546,1.85899 -0.266,0.73476 -0.391,1.56289 -0.391,2.67187 0,1.15703 0.156,2.06289 0.453,2.75 0.297,0.67188 0.594,0.96914 1.469,1.67185 l -0.25,0.4223 -0.141,-0.0941 z"
       style="fill:#3f3f3f;fill-opacity:1;fill-rule:nonzero;stroke:none"
       id="path3894" /><path
       d="m 373.457,6.30898 -0.047,1.65586 -0.344,0 c -0.093,-0.125 -0.046,-0.125 -0.093,-0.125 -0.063,0 -0.172,0.03125 -0.297,0.07813 -0.25,0.09414 -0.5,0.15586 -0.766,0.15586 -0.875,0 -1.656,-0.73399 -1.656,-1.53086 0,-0.60899 0.391,-1.15586 1.328,-1.68789 l 0.641,-0.35899 c 0.39,-0.21914 0.531,-0.375 0.531,-0.71914 0,-0.48398 -0.203,-0.63984 -0.766,-0.63984 -0.75,0 -1,0.26484 -1.281,1.54687 l -0.437,0 0,-2.03203 0.359,0 c 0.109,0.15703 0.062,0.14102 0.187,0.14102 0.125,0 0.25,-0.03086 0.5,-0.09414 0.297,-0.06172 0.594,-0.10899 0.813,-0.10899 0.859,0 1.687,0.79727 1.687,1.56211 0,0.54688 -0.296,1.01602 -0.968,1.42188 l -1.188,0.70312 c -0.312,0.17188 -0.422,0.34414 -0.422,0.64102 0,0.43711 0.188,0.59414 0.703,0.59414 0.625,0 0.797,-0.21914 1.094,-1.36016 l 0.422,0 0,0.15703 z"
       style="fill:#3f3f3f;fill-opacity:1;fill-rule:nonzero;stroke:none"
       id="path3896" /><path
       d="m 374.645,0.792969 c 0.812,0.546871 1.14,0.812111 1.546,1.328121 0.782,0.95274 1.219,2.15586 1.219,3.45274 0,1.40625 -0.453,2.57812 -1.422,3.70312 -0.453,0.53203 -0.734,0.76605 -1.453,1.20315 l -0.312,-0.4063 c 1,-0.76482 1.25,-1.03083 1.562,-1.85896 0.25,-0.73476 0.375,-1.56289 0.375,-2.67187 0,-1.15586 -0.14,-2.07813 -0.437,-2.73399 -0.297,-0.68789 -0.594,-0.98515 -1.469,-1.68789 l 0.234,-0.422262 0.157,0.094141 z"
       style="fill:#3f3f3f;fill-opacity:1;fill-rule:nonzero;stroke:none"
       id="path3898" /><path
       d="m 251,28 216,0"
       style="fill:none;stroke:#3f3f3f;stroke-width:1;stroke-linecap:square;stroke-linejoin:miter;stroke-miterlimit:10;stroke-dasharray:none;stroke-opacity:1"
       id="path3900" /><path
       d="m 251,159 216,0"
       style="fill:none;stroke:#3f3f3f;stroke-width:1;stroke-linecap:square;stroke-linejoin:miter;stroke-miterlimit:10;stroke-dasharray:none;stroke-opacity:1"
       id="path3902" /><path
       d="m 251,28 0,2.1602"
       style="fill:none;stroke:#3f3f3f;stroke-width:1;stroke-linecap:square;stroke-linejoin:miter;stroke-miterlimit:10;stroke-dasharray:none;stroke-opacity:1"
       id="path3904" /><path
       d="m 251,159 0,-2.16"
       style="fill:none;stroke:#3f3f3f;stroke-width:1;stroke-linecap:square;stroke-linejoin:miter;stroke-miterlimit:10;stroke-dasharray:none;stroke-opacity:1"
       id="path3906" /><path
       d="m 305,28 0,2.1602"
       style="fill:none;stroke:#3f3f3f;stroke-width:1;stroke-linecap:square;stroke-linejoin:miter;stroke-miterlimit:10;stroke-dasharray:none;stroke-opacity:1"
       id="path3908" /><path
       d="m 305,159 0,-2.16"
       style="fill:none;stroke:#3f3f3f;stroke-width:1;stroke-linecap:square;stroke-linejoin:miter;stroke-miterlimit:10;stroke-dasharray:none;stroke-opacity:1"
       id="path3910" /><path
       d="m 359,28 0,2.1602"
       style="fill:none;stroke:#3f3f3f;stroke-width:1;stroke-linecap:square;stroke-linejoin:miter;stroke-miterlimit:10;stroke-dasharray:none;stroke-opacity:1"
       id="path3912" /><path
       d="m 359,159 0,-2.16"
       style="fill:none;stroke:#3f3f3f;stroke-width:1;stroke-linecap:square;stroke-linejoin:miter;stroke-miterlimit:10;stroke-dasharray:none;stroke-opacity:1"
       id="path3914" /><path
       d="m 413,28 0,2.1602"
       style="fill:none;stroke:#3f3f3f;stroke-width:1;stroke-linecap:square;stroke-linejoin:miter;stroke-miterlimit:10;stroke-dasharray:none;stroke-opacity:1"
       id="path3916" /><path
       d="m 413,159 0,-2.16"
       style="fill:none;stroke:#3f3f3f;stroke-width:1;stroke-linecap:square;stroke-linejoin:miter;stroke-miterlimit:10;stroke-dasharray:none;stroke-opacity:1"
       id="path3918" /><path
       d="m 467,28 0,2.1602"
       style="fill:none;stroke:#3f3f3f;stroke-width:1;stroke-linecap:square;stroke-linejoin:miter;stroke-miterlimit:10;stroke-dasharray:none;stroke-opacity:1"
       id="path3920" /><path
       d="m 467,159 0,-2.16"
       style="fill:none;stroke:#3f3f3f;stroke-width:1;stroke-linecap:square;stroke-linejoin:miter;stroke-miterlimit:10;stroke-dasharray:none;stroke-opacity:1"
       id="path3922" /><path
       d="m 251.047,22.184 c -0.563,0 -1.094,-0.2192 -1.469,-0.5789 -0.578,-0.5621 -1,-1.8281 -1,-3 0,-1.093 0.375,-2.359 0.844,-2.9211 0.375,-0.4379 1,-0.7352 1.578,-0.7352 0.516,0 1.047,0.2192 1.406,0.5782 0.578,0.5468 1,1.8128 1,3.016 0,2.0621 -1.062,3.641 -2.359,3.641 z m -0.031,-0.5942 c 0.828,0 1.125,-0.9687 1.125,-3.0628 0,-2.093 -0.282,-2.984 -1.141,-2.984 -0.859,0 -1.156,0.891 -1.156,2.984 0,2.125 0.312,3.0628 1.172,3.0628 z"
       style="fill:#3f3f3f;fill-opacity:1;fill-rule:nonzero;stroke:none"
       id="path3924" /><path
       d="m 304.75,16.793 -0.203,0.0781 c -0.422,-0.6563 -0.406,-0.6871 -0.875,-0.6871 l -2.016,0 1.406,1.468 c 0.891,0.9378 1.329,1.8128 1.329,2.5941 0,1 -0.953,1.9379 -2,1.9379 -0.547,0 -1.188,-0.282 -1.563,-0.6719 -0.312,-0.3441 -0.516,-0.782 -0.703,-1.6101 l 0.469,-0.109 c 0.468,1.1558 0.672,1.3121 1.375,1.3121 0.843,0 1.25,-0.4063 1.25,-1.25 0,-0.7813 -0.422,-1.5781 -1.266,-2.468 l -1.812,-1.9531 0,-0.3442 4.156,0 0.641,1.625 -0.188,0.0782 z"
       style="fill:#3f3f3f;fill-opacity:1;fill-rule:nonzero;stroke:none"
       id="path3926" /><path
       d="m 307.547,22.184 c -0.563,0 -1.094,-0.2192 -1.469,-0.5789 -0.578,-0.5621 -1,-1.8281 -1,-3 0,-1.093 0.375,-2.359 0.844,-2.9211 0.375,-0.4379 1,-0.7352 1.578,-0.7352 0.516,0 1.047,0.2192 1.406,0.5782 0.578,0.5468 1,1.8128 1,3.016 0,2.0621 -1.062,3.641 -2.359,3.641 z m -0.031,-0.5942 c 0.828,0 1.125,-0.9687 1.125,-3.0628 0,-2.093 -0.282,-2.984 -1.141,-2.984 -0.859,0 -1.156,0.891 -1.156,2.984 0,2.125 0.312,3.0628 1.172,3.0628 z"
       style="fill:#3f3f3f;fill-opacity:1;fill-rule:nonzero;stroke:none"
       id="path3928" /><path
       d="m 358.719,17.7301 -0.875,0 0,4.4539 -0.656,0 -3.235,-4.5789 0,-0.843 2.813,0 0,-1.6723 1.078,0 0,1.6723 1.031,0 0,0.968 -0.156,0 z m -1.797,0 -2.094,0 2.203,3.157 -0.265,0.109 0,-3.266 0.156,0 z"
       style="fill:#3f3f3f;fill-opacity:1;fill-rule:nonzero;stroke:none"
       id="path3930" /><path
       d="m 361.547,22.184 c -0.563,0 -1.094,-0.2192 -1.469,-0.5789 -0.578,-0.5621 -1,-1.8281 -1,-3 0,-1.093 0.375,-2.359 0.844,-2.9211 0.375,-0.4379 1,-0.7352 1.578,-0.7352 0.516,0 1.047,0.2192 1.406,0.5782 0.578,0.5468 1,1.8128 1,3.016 0,2.0621 -1.062,3.641 -2.359,3.641 z m -0.031,-0.5942 c 0.828,0 1.125,-0.9687 1.125,-3.0628 0,-2.093 -0.282,-2.984 -1.141,-2.984 -0.859,0 -1.156,0.891 -1.156,2.984 0,2.125 0.312,3.0628 1.172,3.0628 z"
       style="fill:#3f3f3f;fill-opacity:1;fill-rule:nonzero;stroke:none"
       id="path3932" /><path
       d="m 412.453,22.2621 c -1.141,-0.1101 -1.828,-0.3441 -2.562,-0.8601 -1.079,-0.7649 -1.703,-2.0149 -1.703,-3.359 0,-0.875 0.296,-1.859 0.734,-2.359 0.375,-0.4379 1.031,-0.7352 1.656,-0.7352 1.234,0 2.25,1.1102 2.25,2.4852 0,1.2961 -0.875,2.2648 -2.031,2.2648 -0.453,0 -0.766,-0.125 -1.063,-0.2968 0.204,1.1878 1.172,2.1101 2.922,2.391 l -0.062,0.484 -0.141,-0.0149 z m -2.031,-3.3601 c 0.875,0 1.203,-0.5469 1.203,-1.7969 0,-1.109 -0.234,-1.5461 -0.937,-1.5461 -0.876,0 -1.266,0.7648 -1.266,2.3281 0,0.5 0.031,0.6719 0.234,0.8277 0.219,0.1563 0.406,0.1872 0.766,0.1872 z"
       style="fill:#3f3f3f;fill-opacity:1;fill-rule:nonzero;stroke:none"
       id="path3934" /><path
       d="m 415.547,22.184 c -0.563,0 -1.094,-0.2192 -1.469,-0.5789 -0.578,-0.5621 -1,-1.8281 -1,-3 0,-1.093 0.375,-2.359 0.844,-2.9211 0.375,-0.4379 1,-0.7352 1.578,-0.7352 0.516,0 1.047,0.2192 1.406,0.5782 0.578,0.5468 1,1.8128 1,3.016 0,2.0621 -1.062,3.641 -2.359,3.641 z m -0.031,-0.5942 c 0.828,0 1.125,-0.9687 1.125,-3.0628 0,-2.093 -0.282,-2.984 -1.141,-2.984 -0.859,0 -1.156,0.891 -1.156,2.984 0,2.125 0.312,3.0628 1.172,3.0628 z"
       style="fill:#3f3f3f;fill-opacity:1;fill-rule:nonzero;stroke:none"
       id="path3936" /><path
       d="m 465.016,18.8551 c 0.984,0.532 1.375,1.0469 1.375,1.7347 0,0.8282 -0.86,1.5942 -1.875,1.5942 -1.078,0 -2.063,-0.8442 -2.063,-1.75 0,-0.657 0.235,-1.0469 1.141,-1.8602 -0.938,-0.7187 -1.188,-1.125 -1.188,-1.8117 0,-0.9851 0.938,-1.8133 2.078,-1.8133 1.204,0 2.11,0.8282 2.11,1.8442 0,0.7808 -0.375,1.375 -1.406,2.141 l -0.172,-0.0789 z m -0.422,-1.0313 c 0.734,-0.5308 0.937,-0.7808 0.937,-1.3277 0,-0.6563 -0.297,-0.9371 -0.937,-0.9371 -0.766,0 -1.125,0.4058 -1.125,1.2648 0,0.6563 0.172,0.9532 0.656,1.3442 l 0.469,-0.3442 z m 0.125,1.4383 c -0.891,0.5777 -1.203,0.9219 -1.203,1.484 0,0.5777 0.296,0.8277 0.922,0.8277 0.687,0 0.953,-0.2808 0.953,-0.9687 0,-0.609 -0.219,-0.9063 -0.782,-1.2813 l 0.11,-0.0617 z"
       style="fill:#3f3f3f;fill-opacity:1;fill-rule:nonzero;stroke:none"
       id="path3938" /><path
       d="m 469.547,22.184 c -0.563,0 -1.094,-0.2192 -1.469,-0.5789 -0.578,-0.5621 -1,-1.8281 -1,-3 0,-1.093 0.375,-2.359 0.844,-2.9211 0.375,-0.4379 1,-0.7352 1.578,-0.7352 0.516,0 1.047,0.2192 1.406,0.5782 0.578,0.5468 1,1.8128 1,3.016 0,2.0621 -1.062,3.641 -2.359,3.641 z m -0.031,-0.5942 c 0.828,0 1.125,-0.9687 1.125,-3.0628 0,-2.093 -0.282,-2.984 -1.141,-2.984 -0.859,0 -1.156,0.891 -1.156,2.984 0,2.125 0.312,3.0628 1.172,3.0628 z"
       style="fill:#3f3f3f;fill-opacity:1;fill-rule:nonzero;stroke:none"
       id="path3940" /><path
       d="m 221.902,73.523 0,-0.3589 c 0.407,-0.0782 0.375,-0.0469 0.375,-0.234 0,-0.1102 -0.031,-0.2969 -0.125,-0.4852 -0.156,-0.4058 -0.25,-0.8117 -0.25,-1.1719 0,-0.4531 0.235,-1.0621 0.563,-1.421 0.328,-0.375 0.906,-0.625 1.484,-0.625 0.875,0 1.594,0.5312 2.25,1.7652 0.422,0.7808 0.875,1.3598 1.281,1.641 0.141,0.0938 0.266,0.109 0.547,0.109 0.719,0 1.078,-0.4063 1.078,-1.2031 0,-0.984 -0.453,-1.5309 -1.953,-2.1411 l 0,-0.5148 2.641,0.375 0,0.5148 c -0.359,0.0161 -0.359,0 -0.359,0.1719 0,0.125 0.046,0.3133 0.125,0.516 0.156,0.4223 0.25,0.875 0.25,1.2973 0,1.2809 -1.032,2.3898 -2.157,2.3898 -0.906,0 -1.734,-0.6558 -2.515,-2.1089 -0.625,-1.1559 -1,-1.5621 -1.61,-1.5621 -0.609,0 -0.859,0.3121 -0.859,1 0,0.4839 0.172,0.8429 0.562,1.2339 0.344,0.3282 0.532,0.4371 1.329,0.6723 l 0,0.5309 -2.657,-0.2809 0,-0.1102 z"
       style="fill:#0070bd;fill-opacity:1;fill-rule:nonzero;stroke:none"
       id="path3942" /><path
       d="m 224.387,77.559 0,-0.9692 -1.11,0 c -0.109,0 -0.297,-0.1558 -0.297,-0.2968 0.969,-0.6719 1.344,-1 1.532,-1.3129 0.062,-0.125 0.25,-0.234 0.312,-0.234 0.031,0 0.172,0.0629 0.235,0.1719 l 0,0.4531 3.156,0 c 0.922,0 1.547,0.484 1.547,1.141 0,0.5309 -0.313,1.0469 -1.016,1.5 l -0.297,-0.3441 c 0.375,-0.3282 0.438,-0.4059 0.438,-0.641 0,-0.4059 -0.141,-0.4372 -0.844,-0.4372 l -2.984,0 0,1.109 -0.672,0 0,-0.1398 z"
       style="fill:#0070bd;fill-opacity:1;fill-rule:nonzero;stroke:none"
       id="path3944" /><path
       d="m 229.652,77.8359 0,2.7813 -0.468,0 c -0.032,-0.8902 -0.032,-0.9223 -0.672,-0.9371 l -2.485,0 c -0.343,0 -0.734,0.3121 -0.734,0.625 0,0.0621 0,0.0469 0.109,0.1719 0.172,0.171 0.266,0.4062 0.266,0.546 0,0.2661 -0.344,0.579 -0.641,0.579 -0.375,0 -0.75,-0.375 -0.75,-0.75 0,-0.454 0.297,-0.8911 1.078,-1.4219 l 0.11,0.25 -1.11,0 -0.078,-0.2031 c 0.25,-0.579 0.391,-0.9848 0.641,-1.7821 l 0.484,0 c -0.078,0.3133 -0.078,0.4071 -0.078,0.5473 0,0.266 0.016,0.2187 0.5,0.2187 l 2.75,0 c 0.578,-0.0308 0.485,0.0621 0.625,-0.7808 l 0.453,0 0,0.1558 z"
       style="fill:#0070bd;fill-opacity:1;fill-rule:nonzero;stroke:none"
       id="path3946" /><path
       d="m 227.59,85.875 c 0.828,-0.516 1.109,-0.891 1.109,-1.5941 0,-0.625 -0.281,-1 -1.14,-1.4368 -0.079,-0.032 -0.422,-0.1101 -0.954,-0.125 l 0,3.4059 c -0.875,-0.109 -1.296,-0.266 -1.656,-0.5469 -0.39,-0.3281 -0.672,-0.9222 -0.672,-1.5 0,-0.5472 0.25,-1.1722 0.625,-1.5941 0.453,-0.5149 1.344,-0.859 2.235,-0.859 1.531,0 2.625,0.9531 2.625,2.2031 0,1.0629 -0.797,2.016 -2.063,2.516 l -0.187,-0.4222 0.078,-0.0469 z m -1.485,-3.141 c -0.875,0.125 -1.109,0.3601 -1.109,1.032 0,0.6559 0.141,0.7809 0.953,0.8899 l 0,-1.9059 0.156,-0.016 z"
       style="fill:#0070bd;fill-opacity:1;fill-rule:nonzero;stroke:none"
       id="path3948" /><path
       d="m 226.043,89.9301 -1.656,-0.0469 0,-0.3441 c 0.125,-0.0942 0.125,-0.0469 0.125,-0.0942 0,-0.0617 -0.032,-0.1719 -0.078,-0.2969 -0.094,-0.25 -0.157,-0.5 -0.157,-0.7648 0,-0.875 0.735,-1.6562 1.532,-1.6562 0.609,0 1.156,0.3902 1.687,1.3281 l 0.359,0.6398 c 0.219,0.391 0.375,0.5321 0.719,0.5321 0.485,0 0.641,-0.204 0.641,-0.7661 0,-0.75 -0.266,-1 -1.547,-1.2808 l 0,-0.4379 2.031,0 0,0.3598 c -0.156,0.1089 -0.14,0.0621 -0.14,0.1871 0,0.125 0.031,0.25 0.093,0.5 0.063,0.2968 0.11,0.5941 0.11,0.8129 0,0.8589 -0.797,1.6871 -1.563,1.6871 -0.547,0 -1.015,-0.2969 -1.422,-0.9692 l -0.703,-1.1867 c -0.172,-0.3133 -0.344,-0.4223 -0.64,-0.4223 -0.438,0 -0.594,0.1871 -0.594,0.7032 0,0.625 0.219,0.7968 1.359,1.0941 l 0,0.4219 -0.156,0 z"
       style="fill:#0070bd;fill-opacity:1;fill-rule:nonzero;stroke:none"
       id="path3950" /><path
       d="m 226.043,94.2109 -1.656,-0.0468 0,-0.3442 c 0.125,-0.0929 0.125,-0.0469 0.125,-0.0929 0,-0.0629 -0.032,-0.1719 -0.078,-0.2969 -0.094,-0.25 -0.157,-0.5 -0.157,-0.766 0,-0.875 0.735,-1.6559 1.532,-1.6559 0.609,0 1.156,0.3898 1.687,1.3277 l 0.359,0.6411 c 0.219,0.3902 0.375,0.5312 0.719,0.5312 0.485,0 0.641,-0.2031 0.641,-0.766 0,-0.75 -0.266,-1 -1.547,-1.2813 l 0,-0.4379 2.031,0 0,0.3602 c -0.156,0.109 -0.14,0.0617 -0.14,0.1867 0,0.125 0.031,0.25 0.093,0.5 0.063,0.2973 0.11,0.5942 0.11,0.8133 0,0.859 -0.797,1.6867 -1.563,1.6867 -0.547,0 -1.015,-0.2969 -1.422,-0.9679 l -0.703,-1.1879 c -0.172,-0.3121 -0.344,-0.4219 -0.64,-0.4219 -0.438,0 -0.594,0.1879 -0.594,0.7027 0,0.625 0.219,0.7973 1.359,1.0942 l 0,0.4218 -0.156,0 z"
       style="fill:#0070bd;fill-opacity:1;fill-rule:nonzero;stroke:none"
       id="path3952" /><path
       d="m 221.949,100.77 c 0.547,-0.813 0.813,-1.1571 1.328,-1.563 0.953,-0.7808 2.157,-1.2031 3.453,-1.2031 1.407,0 2.579,0.4531 3.704,1.4223 0.531,0.4527 0.765,0.7338 1.203,1.4528 l -0.407,0.297 c -0.765,-0.985 -1.046,-1.2498 -1.859,-1.5471 -0.734,-0.266 -1.562,-0.391 -2.672,-0.391 -1.156,0 -2.062,0.157 -2.75,0.4531 -0.672,0.2969 -0.969,0.594 -1.672,1.469 l -0.422,-0.25 0.094,-0.14 z"
       style="fill:#0070bd;fill-opacity:1;fill-rule:nonzero;stroke:none"
       id="path3954" /><path
       d="m 229.652,101.496 0,2.469 -0.468,0 c -0.032,-0.688 -0.032,-0.719 -0.422,-0.719 l -3.032,0 c -0.437,0.469 -0.531,0.625 -0.531,0.984 0,0.532 0.188,0.657 0.906,0.657 l 2.297,0 c 0.719,-0.032 0.75,0 0.782,-0.703 l 0.468,0 0,2.593 -0.468,0 c -0.063,-0.687 -0.032,-0.672 -0.579,-0.672 l -2.515,0 c -1.031,0 -1.813,-0.625 -1.813,-1.453 0,-0.5 0.235,-0.953 0.703,-1.453 l -0.64,0 -0.063,-0.219 c 0.203,-0.531 0.328,-0.906 0.532,-1.671 l 0.546,0 c -0.156,0.328 -0.125,0.343 -0.125,0.453 0,0.312 0.016,0.25 0.547,0.25 l 2.735,0 c 0.64,0 0.64,0.031 0.672,-0.672 l 0.468,0 0,0.156 z"
       style="fill:#0070bd;fill-opacity:1;fill-rule:nonzero;stroke:none"
       id="path3956" /><path
       d="m 222.059,114.574 0,-2.75 0.515,0 c 0.063,1.047 0.094,1.031 1.266,1.063 l 3.703,0 -0.109,0.25 -5.375,-4.282 0,-2.078 0.515,0 c 0,0.625 0.047,0.672 0.516,1.063 l 4.797,0 c 1.156,-0.031 1.187,-0.016 1.25,-1.063 l 0.515,0 0,2.875 -0.515,0 c -0.047,-0.984 -0.125,-1.015 -1.25,-1.031 l -4.313,0 0.11,-0.25 6.093,4.906 0,0.391 -5.937,0 c -1.156,0.031 -1.188,0.031 -1.266,1.047 l -0.515,0 0,-0.141 z"
       style="fill:#0070bd;fill-opacity:1;fill-rule:nonzero;stroke:none"
       id="path3958" /><path
       d="m 231.559,115.25 c -0.547,0.812 -0.813,1.141 -1.329,1.547 -0.953,0.781 -2.156,1.219 -3.453,1.219 -1.406,0 -2.578,-0.454 -3.703,-1.422 -0.531,-0.453 -0.765,-0.735 -1.203,-1.453 l 0.406,-0.313 c 0.766,1 1.032,1.25 1.86,1.563 0.734,0.25 1.562,0.375 2.672,0.375 1.156,0 2.078,-0.141 2.734,-0.438 0.687,-0.297 0.984,-0.594 1.687,-1.469 l 0.422,0.235 -0.093,0.156 z"
       style="fill:#0070bd;fill-opacity:1;fill-rule:nonzero;stroke:none"
       id="path3960" /><path
       d="m 255.281,163.547 1.985,2 c 0.109,0.109 0.187,0.25 0.187,0.328 0,0.109 -0.25,0.359 -0.359,0.359 -0.078,0 -0.219,-0.078 -0.313,-0.172 l -1.906,-1.89 -1.891,1.89 c -0.109,0.11 -0.234,0.172 -0.312,0.172 -0.11,0 -0.36,-0.25 -0.36,-0.359 0,-0.078 0.094,-0.234 0.172,-0.328 l 1.875,-1.891 -1.875,-1.859 c -0.093,-0.109 -0.172,-0.281 -0.172,-0.344 0,-0.109 0.25,-0.359 0.36,-0.359 0.078,0 0.203,0.062 0.312,0.172 l 1.891,1.89 1.891,-1.89 c 0.109,-0.094 0.281,-0.172 0.328,-0.172 0.125,0 0.359,0.25 0.359,0.359 0,0.078 -0.078,0.219 -0.187,0.328 l -1.86,1.875 -0.125,-0.109 z"
       style="fill:#3f3f3f;fill-opacity:1;fill-rule:nonzero;stroke:none"
       id="path3962" /><path
       d="m 260.188,161 2.906,0 0,0.484 c -0.922,0 -0.938,-0.062 -0.953,0.422 l 0,6.125 -0.235,0.063 -1.953,-0.985 0,-0.468 c 0.547,0.218 0.781,0.297 0.875,0.297 0.219,0 0.141,0 0.141,-0.313 l 0,-4.531 c -0.016,-0.641 -0.031,-0.61 -0.953,-0.61 l 0,-0.484 0.172,0 z"
       style="fill:#3f3f3f;fill-opacity:1;fill-rule:nonzero;stroke:none"
       id="path3964" /><path
       d="m 266.547,168.094 c -0.563,0 -1.094,-0.219 -1.469,-0.578 -0.578,-0.563 -1,-1.828 -1,-3 0,-1.094 0.375,-2.36 0.844,-2.922 0.375,-0.438 1,-0.735 1.578,-0.735 0.516,0 1.047,0.219 1.406,0.579 0.578,0.546 1,1.812 1,3.015 0,2.063 -1.062,3.641 -2.359,3.641 z m -0.031,-0.594 c 0.828,0 1.125,-0.969 1.125,-3.062 0,-2.094 -0.282,-2.985 -1.141,-2.985 -0.859,0 -1.156,0.891 -1.156,2.985 0,2.124 0.312,3.062 1.172,3.062 z"
       style="fill:#3f3f3f;fill-opacity:1;fill-rule:nonzero;stroke:none"
       id="path3966" /><path
       d="m 269.125,168.234 0,-0.687 2.328,0 0,0.875 -2.328,0 0,-0.188 z"
       style="fill:#3f3f3f;fill-opacity:1;fill-rule:nonzero;stroke:none"
       id="path3968" /><path
       d="m 272.883,168.641 c 0.484,0 0.656,-0.016 0.844,-0.094 0.5,-0.172 0.625,-0.438 0.625,-1 0,-0.672 -0.266,-1 -0.86,-1 -0.219,0 -0.265,0 -0.562,0.187 -0.219,0.141 -0.485,0.25 -0.625,0.25 -0.172,0 -0.485,-0.281 -0.485,-0.453 0,-0.281 0.532,-0.64 1.094,-0.64 0.609,0 1.359,0.265 1.734,0.593 0.391,0.328 0.641,0.922 0.641,1.454 0,0.421 -0.187,0.906 -0.406,1.156 -0.172,0.172 -0.438,0.328 -0.438,0.328 0.313,0.219 0.578,0.64 0.578,1.078 0,0.656 -0.687,1.281 -1.437,1.281 -0.391,0 -0.875,-0.203 -1.156,-0.453 -0.25,-0.219 -0.422,-0.547 -0.641,-1.156 l 0.438,-0.11 c 0.359,0.672 0.593,0.86 1.093,0.86 0.532,0 0.703,-0.156 0.703,-0.672 0,-0.281 -0.062,-0.438 -0.265,-0.641 -0.235,-0.234 -0.328,-0.312 -1.063,-0.562 l 0.032,-0.406 0.156,0 z"
       style="fill:#3f3f3f;fill-opacity:1;fill-rule:nonzero;stroke:none"
       id="path3970" /><path
       d="m 251,28 0,131"
       style="fill:none;stroke:#0070bd;stroke-width:1;stroke-linecap:square;stroke-linejoin:miter;stroke-miterlimit:10;stroke-dasharray:none;stroke-opacity:1"
       id="path3972" /><path
       d="m 467,28 0,131"
       style="fill:none;stroke:#0070bd;stroke-width:1;stroke-linecap:square;stroke-linejoin:miter;stroke-miterlimit:10;stroke-dasharray:none;stroke-opacity:1"
       id="path3974" /><path
       d="m 251,28 2.16,0"
       style="fill:none;stroke:#0070bd;stroke-width:1;stroke-linecap:square;stroke-linejoin:miter;stroke-miterlimit:10;stroke-dasharray:none;stroke-opacity:1"
       id="path3976" /><path
       d="m 467,28 -2.16,0"
       style="fill:none;stroke:#0070bd;stroke-width:1;stroke-linecap:square;stroke-linejoin:miter;stroke-miterlimit:10;stroke-dasharray:none;stroke-opacity:1"
       id="path3978" /><path
       d="m 251,44.375 2.16,0"
       style="fill:none;stroke:#0070bd;stroke-width:1;stroke-linecap:square;stroke-linejoin:miter;stroke-miterlimit:10;stroke-dasharray:none;stroke-opacity:1"
       id="path3980" /><path
       d="m 467,44.375 -2.16,0"
       style="fill:none;stroke:#0070bd;stroke-width:1;stroke-linecap:square;stroke-linejoin:miter;stroke-miterlimit:10;stroke-dasharray:none;stroke-opacity:1"
       id="path3982" /><path
       d="m 251,60.75 2.16,0"
       style="fill:none;stroke:#0070bd;stroke-width:1;stroke-linecap:square;stroke-linejoin:miter;stroke-miterlimit:10;stroke-dasharray:none;stroke-opacity:1"
       id="path3984" /><path
       d="m 467,60.75 -2.16,0"
       style="fill:none;stroke:#0070bd;stroke-width:1;stroke-linecap:square;stroke-linejoin:miter;stroke-miterlimit:10;stroke-dasharray:none;stroke-opacity:1"
       id="path3986" /><path
       d="m 251,77.125 2.16,0"
       style="fill:none;stroke:#0070bd;stroke-width:1;stroke-linecap:square;stroke-linejoin:miter;stroke-miterlimit:10;stroke-dasharray:none;stroke-opacity:1"
       id="path3988" /><path
       d="m 467,77.125 -2.16,0"
       style="fill:none;stroke:#0070bd;stroke-width:1;stroke-linecap:square;stroke-linejoin:miter;stroke-miterlimit:10;stroke-dasharray:none;stroke-opacity:1"
       id="path3990" /><path
       d="m 251,93.5 2.16,0"
       style="fill:none;stroke:#0070bd;stroke-width:1;stroke-linecap:square;stroke-linejoin:miter;stroke-miterlimit:10;stroke-dasharray:none;stroke-opacity:1"
       id="path3992" /><path
       d="m 467,93.5 -2.16,0"
       style="fill:none;stroke:#0070bd;stroke-width:1;stroke-linecap:square;stroke-linejoin:miter;stroke-miterlimit:10;stroke-dasharray:none;stroke-opacity:1"
       id="path3994" /><path
       d="m 251,109.875 2.16,0"
       style="fill:none;stroke:#0070bd;stroke-width:1;stroke-linecap:square;stroke-linejoin:miter;stroke-miterlimit:10;stroke-dasharray:none;stroke-opacity:1"
       id="path3996" /><path
       d="m 467,109.875 -2.16,0"
       style="fill:none;stroke:#0070bd;stroke-width:1;stroke-linecap:square;stroke-linejoin:miter;stroke-miterlimit:10;stroke-dasharray:none;stroke-opacity:1"
       id="path3998" /><path
       d="m 251,126.25 2.16,0"
       style="fill:none;stroke:#0070bd;stroke-width:1;stroke-linecap:square;stroke-linejoin:miter;stroke-miterlimit:10;stroke-dasharray:none;stroke-opacity:1"
       id="path4000" /><path
       d="m 467,126.25 -2.16,0"
       style="fill:none;stroke:#0070bd;stroke-width:1;stroke-linecap:square;stroke-linejoin:miter;stroke-miterlimit:10;stroke-dasharray:none;stroke-opacity:1"
       id="path4002" /><path
       d="m 251,142.625 2.16,0"
       style="fill:none;stroke:#0070bd;stroke-width:1;stroke-linecap:square;stroke-linejoin:miter;stroke-miterlimit:10;stroke-dasharray:none;stroke-opacity:1"
       id="path4004" /><path
       d="m 467,142.625 -2.16,0"
       style="fill:none;stroke:#0070bd;stroke-width:1;stroke-linecap:square;stroke-linejoin:miter;stroke-miterlimit:10;stroke-dasharray:none;stroke-opacity:1"
       id="path4006" /><path
       d="m 251,159 2.16,0"
       style="fill:none;stroke:#0070bd;stroke-width:1;stroke-linecap:square;stroke-linejoin:miter;stroke-miterlimit:10;stroke-dasharray:none;stroke-opacity:1"
       id="path4008" /><path
       d="m 467,159 -2.16,0"
       style="fill:none;stroke:#0070bd;stroke-width:1;stroke-linecap:square;stroke-linejoin:miter;stroke-miterlimit:10;stroke-dasharray:none;stroke-opacity:1"
       id="path4010" /><path
       d="m 244.547,31.434 c -0.563,0 -1.094,-0.2192 -1.469,-0.5789 -0.578,-0.5621 -1,-1.8281 -1,-3 0,-1.093 0.375,-2.359 0.844,-2.9211 0.375,-0.4379 1,-0.7352 1.578,-0.7352 0.516,0 1.047,0.2192 1.406,0.5782 0.578,0.5468 1,1.8128 1,3.016 0,2.0621 -1.062,3.641 -2.359,3.641 z m -0.031,-0.5942 c 0.828,0 1.125,-0.9687 1.125,-3.0628 0,-2.093 -0.282,-2.984 -1.141,-2.984 -0.859,0 -1.156,0.891 -1.156,2.984 0,2.125 0.312,3.0628 1.172,3.0628 z"
       style="fill:#0070bd;fill-opacity:1;fill-rule:nonzero;stroke:none"
       id="path4012" /><path
       d="m 237.047,47.809 c -0.563,0 -1.094,-0.2192 -1.469,-0.5789 -0.578,-0.5621 -1,-1.8281 -1,-3 0,-1.093 0.375,-2.359 0.844,-2.9211 0.375,-0.4379 1,-0.7352 1.578,-0.7352 0.516,0 1.047,0.2192 1.406,0.5782 0.578,0.5468 1,1.8128 1,3.016 0,2.0621 -1.062,3.641 -2.359,3.641 z m -0.031,-0.5942 c 0.828,0 1.125,-0.9687 1.125,-3.0628 0,-2.093 -0.282,-2.984 -1.141,-2.984 -0.859,0 -1.156,0.891 -1.156,2.984 0,2.125 0.312,3.0628 1.172,3.0628 z"
       style="fill:#0070bd;fill-opacity:1;fill-rule:nonzero;stroke:none"
       id="path4014" /><path
       d="m 240.75,42.043 c -0.297,0 -0.703,-0.4219 -0.703,-0.734 0,-0.2969 0.406,-0.7039 0.687,-0.7039 0.313,0 0.719,0.407 0.719,0.7039 0,0.3121 -0.406,0.734 -0.703,0.734 z"
       style="fill:#0070bd;fill-opacity:1;fill-rule:nonzero;stroke:none"
       id="path4016" /><path
       d="m 243.812,46.543 1.954,0 c 0.172,0 0.359,0.1718 0.39,0.25 l 0.406,0.9531 -0.296,0.234 c -0.25,-0.3121 -0.219,-0.3121 -0.438,-0.3121 l -2.172,0 -1.031,-2.25 c -0.109,-0.1879 -0.141,-0.3282 -0.141,-0.3442 0,-0.0617 0.204,-0.234 0.282,-0.234 0.312,0 0.703,-0.0777 1.125,-0.2027 1.156,-0.375 1.515,-0.8281 1.515,-1.8281 0,-0.9539 -0.453,-1.532 -1.234,-1.532 -0.203,0 -0.25,0.016 -0.547,0.2351 -0.328,0.25 -0.656,0.3899 -0.891,0.3899 -0.281,0 -0.578,-0.2969 -0.578,-0.5469 0,-0.375 0.625,-0.7813 1.391,-0.7813 0.828,0 1.656,0.3282 2.156,0.8282 0.453,0.4531 0.703,1.125 0.703,1.891 0,0.7191 -0.218,1.2968 -0.718,1.7968 -0.438,0.4372 -1.126,0.7192 -2.079,0.8903 l 0.266,0.5629 -0.063,0 z"
       style="fill:#0070bd;fill-opacity:1;fill-rule:nonzero;stroke:none"
       id="path4018" /><path
       d="m 243.188,57.0898 2.906,0 0,0.484 c -0.922,0 -0.938,-0.0617 -0.953,0.4223 l 0,6.125 -0.235,0.0629 -1.953,-0.9852 0,-0.4687 c 0.547,0.2187 0.781,0.2969 0.875,0.2969 0.219,0 0.141,0 0.141,-0.3122 l 0,-4.5308 c -0.016,-0.641 -0.031,-0.6102 -0.953,-0.6102 l 0,-0.484 0.172,0 z"
       style="fill:#0070bd;fill-opacity:1;fill-rule:nonzero;stroke:none"
       id="path4020" /><path
       d="m 235.688,73.4648 2.906,0 0,0.484 c -0.922,0 -0.938,-0.0617 -0.953,0.4223 l 0,6.125 -0.235,0.0629 -1.953,-0.9852 0,-0.4687 c 0.547,0.2187 0.781,0.2969 0.875,0.2969 0.219,0 0.141,0 0.141,-0.3122 l 0,-4.5308 c -0.016,-0.641 -0.031,-0.6102 -0.953,-0.6102 l 0,-0.484 0.172,0 z"
       style="fill:#0070bd;fill-opacity:1;fill-rule:nonzero;stroke:none"
       id="path4022" /><path
       d="m 240.75,74.793 c -0.297,0 -0.703,-0.4219 -0.703,-0.734 0,-0.2969 0.406,-0.7039 0.687,-0.7039 0.313,0 0.719,0.407 0.719,0.7039 0,0.3121 -0.406,0.734 -0.703,0.734 z"
       style="fill:#0070bd;fill-opacity:1;fill-rule:nonzero;stroke:none"
       id="path4024" /><path
       d="m 243.812,79.293 1.954,0 c 0.172,0 0.359,0.1718 0.39,0.25 l 0.406,0.9531 -0.296,0.234 c -0.25,-0.3121 -0.219,-0.3121 -0.438,-0.3121 l -2.172,0 -1.031,-2.25 c -0.109,-0.1879 -0.141,-0.3282 -0.141,-0.3442 0,-0.0617 0.204,-0.234 0.282,-0.234 0.312,0 0.703,-0.0777 1.125,-0.2027 1.156,-0.375 1.515,-0.8281 1.515,-1.8281 0,-0.9539 -0.453,-1.532 -1.234,-1.532 -0.203,0 -0.25,0.016 -0.547,0.2351 -0.328,0.25 -0.656,0.3899 -0.891,0.3899 -0.281,0 -0.578,-0.2969 -0.578,-0.5469 0,-0.375 0.625,-0.7813 1.391,-0.7813 0.828,0 1.656,0.3282 2.156,0.8282 0.453,0.4531 0.703,1.125 0.703,1.891 0,0.7191 -0.218,1.2968 -0.718,1.7968 -0.438,0.4372 -1.126,0.7192 -2.079,0.8903 l 0.266,0.5629 -0.063,0 z"
       style="fill:#0070bd;fill-opacity:1;fill-rule:nonzero;stroke:none"
       id="path4026" /><path
       d="m 246.75,91.543 -0.203,0.0781 c -0.422,-0.6563 -0.406,-0.6871 -0.875,-0.6871 l -2.016,0 1.406,1.468 c 0.891,0.9378 1.329,1.8128 1.329,2.5941 0,1 -0.953,1.9379 -2,1.9379 -0.547,0 -1.188,-0.282 -1.563,-0.6719 -0.312,-0.3441 -0.516,-0.782 -0.703,-1.6101 l 0.469,-0.109 c 0.468,1.1558 0.672,1.3121 1.375,1.3121 0.843,0 1.25,-0.4063 1.25,-1.25 0,-0.7813 -0.422,-1.5781 -1.266,-2.468 l -1.812,-1.9531 0,-0.3442 4.156,0 0.641,1.625 -0.188,0.0782 z"
       style="fill:#0070bd;fill-opacity:1;fill-rule:nonzero;stroke:none"
       id="path4028" /><path
       d="m 239.25,107.918 -0.203,0.078 c -0.422,-0.656 -0.406,-0.687 -0.875,-0.687 l -2.016,0 1.406,1.468 c 0.891,0.938 1.329,1.813 1.329,2.594 0,1 -0.953,1.938 -2,1.938 -0.547,0 -1.188,-0.282 -1.563,-0.672 -0.312,-0.344 -0.516,-0.782 -0.703,-1.61 l 0.469,-0.109 c 0.468,1.156 0.672,1.312 1.375,1.312 0.843,0 1.25,-0.406 1.25,-1.25 0,-0.781 -0.422,-1.578 -1.266,-2.468 l -1.812,-1.953 0,-0.344 4.156,0 0.641,1.625 -0.188,0.078 z"
       style="fill:#0070bd;fill-opacity:1;fill-rule:nonzero;stroke:none"
       id="path4030" /><path
       d="m 240.75,107.543 c -0.297,0 -0.703,-0.422 -0.703,-0.734 0,-0.297 0.406,-0.704 0.687,-0.704 0.313,0 0.719,0.407 0.719,0.704 0,0.312 -0.406,0.734 -0.703,0.734 z"
       style="fill:#0070bd;fill-opacity:1;fill-rule:nonzero;stroke:none"
       id="path4032" /><path
       d="m 243.812,112.043 1.954,0 c 0.172,0 0.359,0.172 0.39,0.25 l 0.406,0.953 -0.296,0.234 c -0.25,-0.312 -0.219,-0.312 -0.438,-0.312 l -2.172,0 -1.031,-2.25 c -0.109,-0.188 -0.141,-0.328 -0.141,-0.344 0,-0.062 0.204,-0.234 0.282,-0.234 0.312,0 0.703,-0.078 1.125,-0.203 1.156,-0.375 1.515,-0.828 1.515,-1.828 0,-0.954 -0.453,-1.532 -1.234,-1.532 -0.203,0 -0.25,0.016 -0.547,0.235 -0.328,0.25 -0.656,0.39 -0.891,0.39 -0.281,0 -0.578,-0.297 -0.578,-0.547 0,-0.375 0.625,-0.781 1.391,-0.781 0.828,0 1.656,0.328 2.156,0.828 0.453,0.453 0.703,1.125 0.703,1.891 0,0.719 -0.218,1.297 -0.718,1.797 -0.438,0.437 -1.126,0.719 -2.079,0.89 l 0.266,0.563 -0.063,0 z"
       style="fill:#0070bd;fill-opacity:1;fill-rule:nonzero;stroke:none"
       id="path4034" /><path
       d="m 243.531,125.887 c 0.594,0 0.813,-0.016 1.047,-0.11 0.625,-0.234 0.86,-0.625 0.86,-1.312 0,-0.86 -0.407,-1.328 -1.141,-1.328 -0.281,0 -0.375,0.015 -0.75,0.265 -0.281,0.172 -0.563,0.297 -0.735,0.297 -0.234,0 -0.546,-0.312 -0.546,-0.515 0,-0.36 0.593,-0.735 1.296,-0.735 0.75,0 1.657,0.313 2.141,0.719 0.469,0.406 0.75,1.109 0.75,1.766 0,0.531 -0.187,1.109 -0.469,1.421 -0.218,0.219 -0.515,0.391 -0.625,0.438 0.469,0.328 0.766,0.812 0.766,1.344 0,0.828 -0.781,1.547 -1.719,1.547 -0.5,0 -1.062,-0.219 -1.422,-0.547 -0.296,-0.266 -0.484,-0.641 -0.734,-1.36 l 0.422,-0.109 c 0.437,0.812 0.781,1.078 1.406,1.078 0.656,0 0.938,-0.266 0.938,-0.906 0,-0.36 -0.11,-0.594 -0.36,-0.844 -0.297,-0.312 -0.453,-0.406 -1.312,-0.703 l 0.031,-0.406 0.156,0 z"
       style="fill:#0070bd;fill-opacity:1;fill-rule:nonzero;stroke:none"
       id="path4036" /><path
       d="m 236.031,142.262 c 0.594,0 0.813,-0.016 1.047,-0.11 0.625,-0.234 0.86,-0.625 0.86,-1.312 0,-0.86 -0.407,-1.328 -1.141,-1.328 -0.281,0 -0.375,0.015 -0.75,0.265 -0.281,0.172 -0.563,0.297 -0.735,0.297 -0.234,0 -0.546,-0.312 -0.546,-0.515 0,-0.36 0.593,-0.735 1.296,-0.735 0.75,0 1.657,0.313 2.141,0.719 0.469,0.406 0.75,1.109 0.75,1.766 0,0.531 -0.187,1.109 -0.469,1.421 -0.218,0.219 -0.515,0.391 -0.625,0.438 0.469,0.328 0.766,0.812 0.766,1.344 0,0.828 -0.781,1.547 -1.719,1.547 -0.5,0 -1.062,-0.219 -1.422,-0.547 -0.296,-0.266 -0.484,-0.641 -0.734,-1.36 l 0.422,-0.109 c 0.437,0.812 0.781,1.078 1.406,1.078 0.656,0 0.938,-0.266 0.938,-0.906 0,-0.36 -0.11,-0.594 -0.36,-0.844 -0.297,-0.312 -0.453,-0.406 -1.312,-0.703 l 0.031,-0.406 0.156,0 z"
       style="fill:#0070bd;fill-opacity:1;fill-rule:nonzero;stroke:none"
       id="path4038" /><path
       d="m 240.75,140.293 c -0.297,0 -0.703,-0.422 -0.703,-0.734 0,-0.297 0.406,-0.704 0.687,-0.704 0.313,0 0.719,0.407 0.719,0.704 0,0.312 -0.406,0.734 -0.703,0.734 z"
       style="fill:#0070bd;fill-opacity:1;fill-rule:nonzero;stroke:none"
       id="path4040" /><path
       d="m 243.812,144.793 1.954,0 c 0.172,0 0.359,0.172 0.39,0.25 l 0.406,0.953 -0.296,0.234 c -0.25,-0.312 -0.219,-0.312 -0.438,-0.312 l -2.172,0 -1.031,-2.25 c -0.109,-0.188 -0.141,-0.328 -0.141,-0.344 0,-0.062 0.204,-0.234 0.282,-0.234 0.312,0 0.703,-0.078 1.125,-0.203 1.156,-0.375 1.515,-0.828 1.515,-1.828 0,-0.954 -0.453,-1.532 -1.234,-1.532 -0.203,0 -0.25,0.016 -0.547,0.235 -0.328,0.25 -0.656,0.39 -0.891,0.39 -0.281,0 -0.578,-0.297 -0.578,-0.547 0,-0.375 0.625,-0.781 1.391,-0.781 0.828,0 1.656,0.328 2.156,0.828 0.453,0.453 0.703,1.125 0.703,1.891 0,0.719 -0.218,1.297 -0.718,1.797 -0.438,0.437 -1.126,0.719 -2.079,0.89 l 0.266,0.563 -0.063,0 z"
       style="fill:#0070bd;fill-opacity:1;fill-rule:nonzero;stroke:none"
       id="path4042" /><path
       d="m 246.719,157.98 -0.875,0 0,4.454 -0.656,0 -3.235,-4.579 0,-0.843 2.813,0 0,-1.672 1.078,0 0,1.672 1.031,0 0,0.968 -0.156,0 z m -1.797,0 -2.094,0 2.203,3.157 -0.265,0.109 0,-3.266 0.156,0 z"
       style="fill:#0070bd;fill-opacity:1;fill-rule:nonzero;stroke:none"
       id="path4044" /><path
       d="m 251,28 5.672,110.035 5.668,10.09 5.672,2.121 5.668,-0.129 5.672,-0.125 5.668,-1.054 5.671,-0.016 5.668,-0.781 5.672,0.019 5.668,-0.25 5.672,0.371 5.668,0.731 5.672,-0.985 5.668,-0.566 5.672,-0.863 5.668,-0.106 5.672,0.117 5.668,0.121 5.671,0.106 5.668,0.309 5.672,-0.403 5.668,-0.109 5.672,0.422 5.668,-0.481 5.672,0.395 5.672,-0.133 5.668,-0.664 5.672,-0.039 5.668,-0.211 5.672,-1.383 5.668,0.395 5.671,-0.153 5.668,0.281 5.672,0.032 5.668,-1.364 5.672,-0.378 5.668,0.421 5.672,0.879"
       style="fill:none;stroke:#0070bd;stroke-width:1.5;stroke-linecap:square;stroke-linejoin:miter;stroke-miterlimit:10;stroke-dasharray:none;stroke-opacity:1"
       id="path4046" /><path
       d="m 493.551,85.2852 0,-0.359 c 0.406,-0.0782 0.375,-0.0473 0.375,-0.2352 0,-0.109 -0.031,-0.2961 -0.125,-0.484 -0.156,-0.4058 -0.25,-0.8121 -0.25,-1.1718 0,-0.4532 0.234,-1.0622 0.562,-1.4223 0.328,-0.375 0.907,-0.625 1.485,-0.625 0.875,0 1.593,0.532 2.25,1.766 0.422,0.7813 0.875,1.359 1.281,1.641 0.141,0.093 0.266,0.109 0.547,0.109 0.719,0 1.078,-0.4059 1.078,-1.2027 0,-0.9852 -0.453,-1.5313 -1.953,-2.141 l 0,-0.5153 2.64,0.375 0,0.5153 c -0.359,0.016 -0.359,0 -0.359,0.1718 0,0.125 0.047,0.3129 0.125,0.516 0.156,0.4219 0.25,0.875 0.25,1.2969 0,1.2813 -1.031,2.3903 -2.156,2.3903 -0.906,0 -1.735,-0.6563 -2.516,-2.109 -0.625,-1.1563 -1,-1.5633 -1.609,-1.5633 -0.61,0 -0.86,0.3133 -0.86,1 0,0.4851 0.172,0.8441 0.563,1.2351 0.344,0.3282 0.531,0.4372 1.328,0.6719 l 0,0.5313 -2.656,-0.2813 0,-0.1097 z"
       style="fill:#d95117;fill-opacity:1;fill-rule:nonzero;stroke:none"
       id="path4048" /><path
       d="m 496.035,89.3199 0,-0.9679 -1.109,0 c -0.11,0 -0.297,-0.1571 -0.297,-0.2969 0.969,-0.6719 1.344,-1 1.531,-1.3129 0.063,-0.125 0.25,-0.234 0.313,-0.234 0.031,0 0.172,0.0617 0.234,0.1719 l 0,0.4531 3.156,0 c 0.922,0 1.547,0.484 1.547,1.1398 0,0.5321 -0.312,1.0469 -1.015,1.5 l -0.297,-0.3429 c 0.375,-0.3281 0.437,-0.4071 0.437,-0.641 0,-0.4059 -0.14,-0.4371 -0.844,-0.4371 l -2.984,0 0,1.1089 -0.672,0 0,-0.141 z"
       style="fill:#d95117;fill-opacity:1;fill-rule:nonzero;stroke:none"
       id="path4050" /><path
       d="m 501.301,89.598 0,2.7809 -0.469,0 c -0.031,-0.891 -0.031,-0.9219 -0.672,-0.9379 l -2.484,0 c -0.344,0 -0.735,0.3129 -0.735,0.625 0,0.0629 0,0.0469 0.11,0.1719 0.172,0.1723 0.265,0.407 0.265,0.5473 0,0.266 -0.343,0.5777 -0.64,0.5777 -0.375,0 -0.75,-0.375 -0.75,-0.75 0,-0.4527 0.297,-0.8899 1.078,-1.4219 l 0.109,0.25 -1.109,0 -0.078,-0.2031 c 0.25,-0.5777 0.39,-0.984 0.64,-1.7809 l 0.485,0 c -0.078,0.3129 -0.078,0.4059 -0.078,0.5469 0,0.266 0.015,0.2191 0.5,0.2191 l 2.75,0 c 0.578,-0.032 0.484,0.0622 0.625,-0.782 l 0.453,0 0,0.157 z"
       style="fill:#d95117;fill-opacity:1;fill-rule:nonzero;stroke:none"
       id="path4052" /><path
       d="m 500.316,97.9488 c 0.141,-0.1867 0.157,-0.2027 0.157,-0.375 0,-0.25 0,-0.1867 -0.485,-0.1867 l -2.14,0 c -0.578,0 -1,-0.0941 -1.266,-0.266 -0.391,-0.234 -0.656,-0.8121 -0.656,-1.4531 0,-1.0309 0.703,-2 1.39,-2 0.25,0 0.625,0.359 0.625,0.625 0,0.266 -0.375,0.641 -0.609,0.641 -0.047,0 -0.094,-0.016 -0.172,-0.032 -0.109,-0.0149 -0.187,-0.0309 -0.265,-0.0309 -0.297,0 -0.391,0.2027 -0.391,0.6559 0,0.532 0.172,0.6718 0.766,0.6718 l 0.562,0 c 0.625,-1.5308 0.766,-1.8277 1.188,-2.3117 0.218,-0.2351 0.703,-0.4383 1.062,-0.4383 0.688,0 1.328,0.641 1.328,1.3133 0,0.484 -0.281,1.0309 -0.656,1.484 0.281,0.016 0.656,0.375 0.656,0.8277 0,0.375 -0.172,0.7032 -0.64,1.125 l -0.672,0 0.218,-0.25 z m -0.515,-1.75 c 0.328,0 0.328,-0.0148 0.469,-0.234 0.156,-0.2808 0.187,-0.4687 0.187,-0.7027 0,-0.375 -0.219,-0.5473 -0.687,-0.5473 l -0.047,0 c -0.657,0.0153 -0.922,0.359 -1.313,1.484 l 1.391,0 z"
       style="fill:#d95117;fill-opacity:1;fill-rule:nonzero;stroke:none"
       id="path4054" /><path
       d="m 501.301,98.332 0,2.75 -0.469,0 c -0.062,-0.859 0,-0.797 -0.812,-0.812 l -3.985,0 -0.109,-0.157 0.656,-1.89 0.453,0 -0.031,0.25 c -0.031,0.125 -0.031,0.2649 -0.031,0.375 0,0.25 0.015,0.2032 0.5,0.2032 l 2.547,0 c 0.812,-0.016 0.781,0.0308 0.812,-0.875 l 0.469,0 0,0.1558 z m -7.828,1.234 c 0,-0.2961 0.422,-0.7031 0.718,-0.7031 0.329,0 0.719,0.391 0.719,0.7031 0,0.3289 -0.39,0.719 -0.719,0.719 -0.312,0 -0.718,-0.4061 -0.718,-0.719 z"
       style="fill:#d95117;fill-opacity:1;fill-rule:nonzero;stroke:none"
       id="path4056" /><path
       d="m 501.301,101.344 0,2.468 -0.469,0 c -0.031,-0.687 -0.031,-0.718 -0.422,-0.718 l -3.031,0 c -0.438,0.468 -0.531,0.625 -0.531,0.984 0,0.531 0.187,0.656 0.906,0.656 l 2.297,0 c 0.719,-0.031 0.75,0 0.781,-0.703 l 0.469,0 0,2.594 -0.469,0 c -0.062,-0.687 -0.031,-0.672 -0.578,-0.672 l -2.516,0 c -1.031,0 -1.812,-0.625 -1.812,-1.453 0,-0.5 0.234,-0.953 0.703,-1.453 l -0.641,0 -0.062,-0.219 c 0.203,-0.531 0.328,-0.906 0.531,-1.672 l 0.547,0 c -0.156,0.328 -0.125,0.344 -0.125,0.453 0,0.313 0.016,0.25 0.547,0.25 l 2.734,0 c 0.641,0 0.641,0.032 0.672,-0.671 l 0.469,0 0,0.156 z"
       style="fill:#d95117;fill-opacity:1;fill-rule:nonzero;stroke:none"
       id="path4058" /><path
       d="m 467,28 0,131"
       style="fill:none;stroke:#d95117;stroke-width:1;stroke-linecap:square;stroke-linejoin:miter;stroke-miterlimit:10;stroke-dasharray:none;stroke-opacity:1"
       id="path4060" /><path
       d="m 467,28 -2.16,0"
       style="fill:none;stroke:#d95117;stroke-width:1;stroke-linecap:square;stroke-linejoin:miter;stroke-miterlimit:10;stroke-dasharray:none;stroke-opacity:1"
       id="path4062" /><path
       d="m 467,44.375 -2.16,0"
       style="fill:none;stroke:#d95117;stroke-width:1;stroke-linecap:square;stroke-linejoin:miter;stroke-miterlimit:10;stroke-dasharray:none;stroke-opacity:1"
       id="path4064" /><path
       d="m 467,60.75 -2.16,0"
       style="fill:none;stroke:#d95117;stroke-width:1;stroke-linecap:square;stroke-linejoin:miter;stroke-miterlimit:10;stroke-dasharray:none;stroke-opacity:1"
       id="path4066" /><path
       d="m 467,77.125 -2.16,0"
       style="fill:none;stroke:#d95117;stroke-width:1;stroke-linecap:square;stroke-linejoin:miter;stroke-miterlimit:10;stroke-dasharray:none;stroke-opacity:1"
       id="path4068" /><path
       d="m 467,93.5 -2.16,0"
       style="fill:none;stroke:#d95117;stroke-width:1;stroke-linecap:square;stroke-linejoin:miter;stroke-miterlimit:10;stroke-dasharray:none;stroke-opacity:1"
       id="path4070" /><path
       d="m 467,109.875 -2.16,0"
       style="fill:none;stroke:#d95117;stroke-width:1;stroke-linecap:square;stroke-linejoin:miter;stroke-miterlimit:10;stroke-dasharray:none;stroke-opacity:1"
       id="path4072" /><path
       d="m 467,126.25 -2.16,0"
       style="fill:none;stroke:#d95117;stroke-width:1;stroke-linecap:square;stroke-linejoin:miter;stroke-miterlimit:10;stroke-dasharray:none;stroke-opacity:1"
       id="path4074" /><path
       d="m 467,142.625 -2.16,0"
       style="fill:none;stroke:#d95117;stroke-width:1;stroke-linecap:square;stroke-linejoin:miter;stroke-miterlimit:10;stroke-dasharray:none;stroke-opacity:1"
       id="path4076" /><path
       d="m 467,159 -2.16,0"
       style="fill:none;stroke:#d95117;stroke-width:1;stroke-linecap:square;stroke-linejoin:miter;stroke-miterlimit:10;stroke-dasharray:none;stroke-opacity:1"
       id="path4078" /><path
       d="m 473.547,31.434 c -0.563,0 -1.094,-0.2192 -1.469,-0.5789 -0.578,-0.5621 -1,-1.8281 -1,-3 0,-1.093 0.375,-2.359 0.844,-2.9211 0.375,-0.4379 1,-0.7352 1.578,-0.7352 0.516,0 1.047,0.2192 1.406,0.5782 0.578,0.5468 1,1.8128 1,3.016 0,2.0621 -1.062,3.641 -2.359,3.641 z m -0.031,-0.5942 c 0.828,0 1.125,-0.9687 1.125,-3.0628 0,-2.093 -0.282,-2.984 -1.141,-2.984 -0.859,0 -1.156,0.891 -1.156,2.984 0,2.125 0.312,3.0628 1.172,3.0628 z"
       style="fill:#d95117;fill-opacity:1;fill-rule:nonzero;stroke:none"
       id="path4080" /><path
       d="m 473.547,47.809 c -0.563,0 -1.094,-0.2192 -1.469,-0.5789 -0.578,-0.5621 -1,-1.8281 -1,-3 0,-1.093 0.375,-2.359 0.844,-2.9211 0.375,-0.4379 1,-0.7352 1.578,-0.7352 0.516,0 1.047,0.2192 1.406,0.5782 0.578,0.5468 1,1.8128 1,3.016 0,2.0621 -1.062,3.641 -2.359,3.641 z m -0.031,-0.5942 c 0.828,0 1.125,-0.9687 1.125,-3.0628 0,-2.093 -0.282,-2.984 -1.141,-2.984 -0.859,0 -1.156,0.891 -1.156,2.984 0,2.125 0.312,3.0628 1.172,3.0628 z"
       style="fill:#d95117;fill-opacity:1;fill-rule:nonzero;stroke:none"
       id="path4082" /><path
       d="m 477.25,42.043 c -0.297,0 -0.703,-0.4219 -0.703,-0.734 0,-0.2969 0.406,-0.7039 0.687,-0.7039 0.313,0 0.719,0.407 0.719,0.7039 0,0.3121 -0.406,0.734 -0.703,0.734 z"
       style="fill:#d95117;fill-opacity:1;fill-rule:nonzero;stroke:none"
       id="path4084" /><path
       d="m 481.047,47.809 c -0.563,0 -1.094,-0.2192 -1.469,-0.5789 -0.578,-0.5621 -1,-1.8281 -1,-3 0,-1.093 0.375,-2.359 0.844,-2.9211 0.375,-0.4379 1,-0.7352 1.578,-0.7352 0.516,0 1.047,0.2192 1.406,0.5782 0.578,0.5468 1,1.8128 1,3.016 0,2.0621 -1.062,3.641 -2.359,3.641 z m -0.031,-0.5942 c 0.828,0 1.125,-0.9687 1.125,-3.0628 0,-2.093 -0.282,-2.984 -1.141,-2.984 -0.859,0 -1.156,0.891 -1.156,2.984 0,2.125 0.312,3.0628 1.172,3.0628 z"
       style="fill:#d95117;fill-opacity:1;fill-rule:nonzero;stroke:none"
       id="path4086" /><path
       d="m 488.25,42.418 -0.203,0.0781 c -0.422,-0.6563 -0.406,-0.6871 -0.875,-0.6871 l -2.016,0 1.406,1.468 c 0.891,0.9378 1.329,1.8128 1.329,2.5941 0,1 -0.953,1.9379 -2,1.9379 -0.547,0 -1.188,-0.282 -1.563,-0.6719 -0.312,-0.3441 -0.516,-0.782 -0.703,-1.6101 l 0.469,-0.109 c 0.468,1.1558 0.672,1.3121 1.375,1.3121 0.843,0 1.25,-0.4063 1.25,-1.25 0,-0.7813 -0.422,-1.5781 -1.266,-2.468 l -1.812,-1.9531 0,-0.3442 4.156,0 0.641,1.625 -0.188,0.0782 z"
       style="fill:#d95117;fill-opacity:1;fill-rule:nonzero;stroke:none"
       id="path4088" /><path
       d="m 473.547,64.184 c -0.563,0 -1.094,-0.2192 -1.469,-0.5789 -0.578,-0.5621 -1,-1.8281 -1,-3 0,-1.093 0.375,-2.359 0.844,-2.9211 0.375,-0.4379 1,-0.7352 1.578,-0.7352 0.516,0 1.047,0.2192 1.406,0.5782 0.578,0.5468 1,1.8128 1,3.016 0,2.0621 -1.062,3.641 -2.359,3.641 z m -0.031,-0.5942 c 0.828,0 1.125,-0.9687 1.125,-3.0628 0,-2.093 -0.282,-2.984 -1.141,-2.984 -0.859,0 -1.156,0.891 -1.156,2.984 0,2.125 0.312,3.0628 1.172,3.0628 z"
       style="fill:#d95117;fill-opacity:1;fill-rule:nonzero;stroke:none"
       id="path4090" /><path
       d="m 477.25,58.418 c -0.297,0 -0.703,-0.4219 -0.703,-0.734 0,-0.2969 0.406,-0.7039 0.687,-0.7039 0.313,0 0.719,0.407 0.719,0.7039 0,0.3121 -0.406,0.734 -0.703,0.734 z"
       style="fill:#d95117;fill-opacity:1;fill-rule:nonzero;stroke:none"
       id="path4092" /><path
       d="m 481.047,64.184 c -0.563,0 -1.094,-0.2192 -1.469,-0.5789 -0.578,-0.5621 -1,-1.8281 -1,-3 0,-1.093 0.375,-2.359 0.844,-2.9211 0.375,-0.4379 1,-0.7352 1.578,-0.7352 0.516,0 1.047,0.2192 1.406,0.5782 0.578,0.5468 1,1.8128 1,3.016 0,2.0621 -1.062,3.641 -2.359,3.641 z m -0.031,-0.5942 c 0.828,0 1.125,-0.9687 1.125,-3.0628 0,-2.093 -0.282,-2.984 -1.141,-2.984 -0.859,0 -1.156,0.891 -1.156,2.984 0,2.125 0.312,3.0628 1.172,3.0628 z"
       style="fill:#d95117;fill-opacity:1;fill-rule:nonzero;stroke:none"
       id="path4094" /><path
       d="m 488.219,59.7301 -0.875,0 0,4.4539 -0.656,0 -3.235,-4.5789 0,-0.843 2.813,0 0,-1.6723 1.078,0 0,1.6723 1.031,0 0,0.968 -0.156,0 z m -1.797,0 -2.094,0 2.203,3.157 -0.265,0.109 0,-3.266 0.156,0 z"
       style="fill:#d95117;fill-opacity:1;fill-rule:nonzero;stroke:none"
       id="path4096" /><path
       d="m 473.547,80.559 c -0.563,0 -1.094,-0.2192 -1.469,-0.5789 -0.578,-0.5621 -1,-1.8281 -1,-3 0,-1.093 0.375,-2.359 0.844,-2.9211 0.375,-0.4379 1,-0.7352 1.578,-0.7352 0.516,0 1.047,0.2192 1.406,0.5782 0.578,0.5468 1,1.8128 1,3.016 0,2.0621 -1.062,3.641 -2.359,3.641 z m -0.031,-0.5942 c 0.828,0 1.125,-0.9687 1.125,-3.0628 0,-2.093 -0.282,-2.984 -1.141,-2.984 -0.859,0 -1.156,0.891 -1.156,2.984 0,2.125 0.312,3.0628 1.172,3.0628 z"
       style="fill:#d95117;fill-opacity:1;fill-rule:nonzero;stroke:none"
       id="path4098" /><path
       d="m 477.25,74.793 c -0.297,0 -0.703,-0.4219 -0.703,-0.734 0,-0.2969 0.406,-0.7039 0.687,-0.7039 0.313,0 0.719,0.407 0.719,0.7039 0,0.3121 -0.406,0.734 -0.703,0.734 z"
       style="fill:#d95117;fill-opacity:1;fill-rule:nonzero;stroke:none"
       id="path4100" /><path
       d="m 481.047,80.559 c -0.563,0 -1.094,-0.2192 -1.469,-0.5789 -0.578,-0.5621 -1,-1.8281 -1,-3 0,-1.093 0.375,-2.359 0.844,-2.9211 0.375,-0.4379 1,-0.7352 1.578,-0.7352 0.516,0 1.047,0.2192 1.406,0.5782 0.578,0.5468 1,1.8128 1,3.016 0,2.0621 -1.062,3.641 -2.359,3.641 z m -0.031,-0.5942 c 0.828,0 1.125,-0.9687 1.125,-3.0628 0,-2.093 -0.282,-2.984 -1.141,-2.984 -0.859,0 -1.156,0.891 -1.156,2.984 0,2.125 0.312,3.0628 1.172,3.0628 z"
       style="fill:#d95117;fill-opacity:1;fill-rule:nonzero;stroke:none"
       id="path4102" /><path
       d="m 487.953,80.6371 c -1.141,-0.1101 -1.828,-0.3441 -2.562,-0.8601 -1.079,-0.7649 -1.703,-2.0149 -1.703,-3.359 0,-0.875 0.296,-1.859 0.734,-2.359 0.375,-0.4379 1.031,-0.7352 1.656,-0.7352 1.234,0 2.25,1.1102 2.25,2.4852 0,1.2961 -0.875,2.2648 -2.031,2.2648 -0.453,0 -0.766,-0.125 -1.063,-0.2968 0.204,1.1878 1.172,2.1101 2.922,2.391 l -0.062,0.484 -0.141,-0.0149 z m -2.031,-3.3601 c 0.875,0 1.203,-0.5469 1.203,-1.7969 0,-1.109 -0.234,-1.5461 -0.937,-1.5461 -0.876,0 -1.266,0.7648 -1.266,2.3281 0,0.5 0.031,0.6719 0.234,0.8277 0.219,0.1563 0.406,0.1872 0.766,0.1872 z"
       style="fill:#d95117;fill-opacity:1;fill-rule:nonzero;stroke:none"
       id="path4104" /><path
       d="m 473.547,96.934 c -0.563,0 -1.094,-0.2192 -1.469,-0.5789 -0.578,-0.5621 -1,-1.8281 -1,-3 0,-1.093 0.375,-2.359 0.844,-2.9211 0.375,-0.4379 1,-0.7352 1.578,-0.7352 0.516,0 1.047,0.2192 1.406,0.5782 0.578,0.5468 1,1.8128 1,3.016 0,2.0621 -1.062,3.641 -2.359,3.641 z m -0.031,-0.5942 c 0.828,0 1.125,-0.9687 1.125,-3.0628 0,-2.093 -0.282,-2.984 -1.141,-2.984 -0.859,0 -1.156,0.891 -1.156,2.984 0,2.125 0.312,3.0628 1.172,3.0628 z"
       style="fill:#d95117;fill-opacity:1;fill-rule:nonzero;stroke:none"
       id="path4106" /><path
       d="m 477.25,91.168 c -0.297,0 -0.703,-0.4219 -0.703,-0.734 0,-0.2969 0.406,-0.7039 0.687,-0.7039 0.313,0 0.719,0.407 0.719,0.7039 0,0.3121 -0.406,0.734 -0.703,0.734 z"
       style="fill:#d95117;fill-opacity:1;fill-rule:nonzero;stroke:none"
       id="path4108" /><path
       d="m 481.047,96.934 c -0.563,0 -1.094,-0.2192 -1.469,-0.5789 -0.578,-0.5621 -1,-1.8281 -1,-3 0,-1.093 0.375,-2.359 0.844,-2.9211 0.375,-0.4379 1,-0.7352 1.578,-0.7352 0.516,0 1.047,0.2192 1.406,0.5782 0.578,0.5468 1,1.8128 1,3.016 0,2.0621 -1.062,3.641 -2.359,3.641 z m -0.031,-0.5942 c 0.828,0 1.125,-0.9687 1.125,-3.0628 0,-2.093 -0.282,-2.984 -1.141,-2.984 -0.859,0 -1.156,0.891 -1.156,2.984 0,2.125 0.312,3.0628 1.172,3.0628 z"
       style="fill:#d95117;fill-opacity:1;fill-rule:nonzero;stroke:none"
       id="path4110" /><path
       d="m 486.516,93.6051 c 0.984,0.532 1.375,1.0469 1.375,1.7347 0,0.8282 -0.86,1.5942 -1.875,1.5942 -1.078,0 -2.063,-0.8442 -2.063,-1.75 0,-0.657 0.235,-1.0469 1.141,-1.8602 -0.938,-0.7187 -1.188,-1.125 -1.188,-1.8117 0,-0.9851 0.938,-1.8133 2.078,-1.8133 1.204,0 2.11,0.8282 2.11,1.8442 0,0.7808 -0.375,1.375 -1.406,2.141 l -0.172,-0.0789 z m -0.422,-1.0313 c 0.734,-0.5308 0.937,-0.7808 0.937,-1.3277 0,-0.6563 -0.297,-0.9371 -0.937,-0.9371 -0.766,0 -1.125,0.4058 -1.125,1.2648 0,0.6563 0.172,0.9532 0.656,1.3442 l 0.469,-0.3442 z m 0.125,1.4383 c -0.891,0.5777 -1.203,0.9219 -1.203,1.484 0,0.5777 0.296,0.8277 0.922,0.8277 0.687,0 0.953,-0.2808 0.953,-0.9687 0,-0.609 -0.219,-0.9063 -0.782,-1.2813 l 0.11,-0.0617 z"
       style="fill:#d95117;fill-opacity:1;fill-rule:nonzero;stroke:none"
       id="path4112" /><path
       d="m 473.547,113.309 c -0.563,0 -1.094,-0.219 -1.469,-0.579 -0.578,-0.562 -1,-1.828 -1,-3 0,-1.093 0.375,-2.359 0.844,-2.921 0.375,-0.438 1,-0.735 1.578,-0.735 0.516,0 1.047,0.219 1.406,0.578 0.578,0.547 1,1.813 1,3.016 0,2.062 -1.062,3.641 -2.359,3.641 z m -0.031,-0.594 c 0.828,0 1.125,-0.969 1.125,-3.063 0,-2.093 -0.282,-2.984 -1.141,-2.984 -0.859,0 -1.156,0.891 -1.156,2.984 0,2.125 0.312,3.063 1.172,3.063 z"
       style="fill:#d95117;fill-opacity:1;fill-rule:nonzero;stroke:none"
       id="path4114" /><path
       d="m 477.25,107.543 c -0.297,0 -0.703,-0.422 -0.703,-0.734 0,-0.297 0.406,-0.704 0.687,-0.704 0.313,0 0.719,0.407 0.719,0.704 0,0.312 -0.406,0.734 -0.703,0.734 z"
       style="fill:#d95117;fill-opacity:1;fill-rule:nonzero;stroke:none"
       id="path4116" /><path
       d="m 479.688,106.215 2.906,0 0,0.484 c -0.922,0 -0.938,-0.062 -0.953,0.422 l 0,6.125 -0.235,0.063 -1.953,-0.985 0,-0.469 c 0.547,0.219 0.781,0.297 0.875,0.297 0.219,0 0.141,0 0.141,-0.312 l 0,-4.531 c -0.016,-0.641 -0.031,-0.61 -0.953,-0.61 l 0,-0.484 0.172,0 z"
       style="fill:#d95117;fill-opacity:1;fill-rule:nonzero;stroke:none"
       id="path4118" /><path
       d="m 473.547,129.684 c -0.563,0 -1.094,-0.219 -1.469,-0.579 -0.578,-0.562 -1,-1.828 -1,-3 0,-1.093 0.375,-2.359 0.844,-2.921 0.375,-0.438 1,-0.735 1.578,-0.735 0.516,0 1.047,0.219 1.406,0.578 0.578,0.547 1,1.813 1,3.016 0,2.062 -1.062,3.641 -2.359,3.641 z m -0.031,-0.594 c 0.828,0 1.125,-0.969 1.125,-3.063 0,-2.093 -0.282,-2.984 -1.141,-2.984 -0.859,0 -1.156,0.891 -1.156,2.984 0,2.125 0.312,3.063 1.172,3.063 z"
       style="fill:#d95117;fill-opacity:1;fill-rule:nonzero;stroke:none"
       id="path4120" /><path
       d="m 477.25,123.918 c -0.297,0 -0.703,-0.422 -0.703,-0.734 0,-0.297 0.406,-0.704 0.687,-0.704 0.313,0 0.719,0.407 0.719,0.704 0,0.312 -0.406,0.734 -0.703,0.734 z"
       style="fill:#d95117;fill-opacity:1;fill-rule:nonzero;stroke:none"
       id="path4122" /><path
       d="m 479.688,122.59 2.906,0 0,0.484 c -0.922,0 -0.938,-0.062 -0.953,0.422 l 0,6.125 -0.235,0.063 -1.953,-0.985 0,-0.469 c 0.547,0.219 0.781,0.297 0.875,0.297 0.219,0 0.141,0 0.141,-0.312 l 0,-4.531 c -0.016,-0.641 -0.031,-0.61 -0.953,-0.61 l 0,-0.484 0.172,0 z"
       style="fill:#d95117;fill-opacity:1;fill-rule:nonzero;stroke:none"
       id="path4124" /><path
       d="m 488.25,124.293 -0.203,0.078 c -0.422,-0.656 -0.406,-0.687 -0.875,-0.687 l -2.016,0 1.406,1.468 c 0.891,0.938 1.329,1.813 1.329,2.594 0,1 -0.953,1.938 -2,1.938 -0.547,0 -1.188,-0.282 -1.563,-0.672 -0.312,-0.344 -0.516,-0.782 -0.703,-1.61 l 0.469,-0.109 c 0.468,1.156 0.672,1.312 1.375,1.312 0.843,0 1.25,-0.406 1.25,-1.25 0,-0.781 -0.422,-1.578 -1.266,-2.468 l -1.812,-1.953 0,-0.344 4.156,0 0.641,1.625 -0.188,0.078 z"
       style="fill:#d95117;fill-opacity:1;fill-rule:nonzero;stroke:none"
       id="path4126" /><path
       d="m 473.547,146.059 c -0.563,0 -1.094,-0.219 -1.469,-0.579 -0.578,-0.562 -1,-1.828 -1,-3 0,-1.093 0.375,-2.359 0.844,-2.921 0.375,-0.438 1,-0.735 1.578,-0.735 0.516,0 1.047,0.219 1.406,0.578 0.578,0.547 1,1.813 1,3.016 0,2.062 -1.062,3.641 -2.359,3.641 z m -0.031,-0.594 c 0.828,0 1.125,-0.969 1.125,-3.063 0,-2.093 -0.282,-2.984 -1.141,-2.984 -0.859,0 -1.156,0.891 -1.156,2.984 0,2.125 0.312,3.063 1.172,3.063 z"
       style="fill:#d95117;fill-opacity:1;fill-rule:nonzero;stroke:none"
       id="path4128" /><path
       d="m 477.25,140.293 c -0.297,0 -0.703,-0.422 -0.703,-0.734 0,-0.297 0.406,-0.704 0.687,-0.704 0.313,0 0.719,0.407 0.719,0.704 0,0.312 -0.406,0.734 -0.703,0.734 z"
       style="fill:#d95117;fill-opacity:1;fill-rule:nonzero;stroke:none"
       id="path4130" /><path
       d="m 479.688,138.965 2.906,0 0,0.484 c -0.922,0 -0.938,-0.062 -0.953,0.422 l 0,6.125 -0.235,0.063 -1.953,-0.985 0,-0.469 c 0.547,0.219 0.781,0.297 0.875,0.297 0.219,0 0.141,0 0.141,-0.312 l 0,-4.531 c -0.016,-0.641 -0.031,-0.61 -0.953,-0.61 l 0,-0.484 0.172,0 z"
       style="fill:#d95117;fill-opacity:1;fill-rule:nonzero;stroke:none"
       id="path4132" /><path
       d="m 488.219,141.605 -0.875,0 0,4.454 -0.656,0 -3.235,-4.579 0,-0.843 2.813,0 0,-1.672 1.078,0 0,1.672 1.031,0 0,0.968 -0.156,0 z m -1.797,0 -2.094,0 2.203,3.157 -0.265,0.109 0,-3.266 0.156,0 z"
       style="fill:#d95117;fill-opacity:1;fill-rule:nonzero;stroke:none"
       id="path4134" /><path
       d="m 473.547,162.434 c -0.563,0 -1.094,-0.219 -1.469,-0.579 -0.578,-0.562 -1,-1.828 -1,-3 0,-1.093 0.375,-2.359 0.844,-2.921 0.375,-0.438 1,-0.735 1.578,-0.735 0.516,0 1.047,0.219 1.406,0.578 0.578,0.547 1,1.813 1,3.016 0,2.062 -1.062,3.641 -2.359,3.641 z m -0.031,-0.594 c 0.828,0 1.125,-0.969 1.125,-3.063 0,-2.093 -0.282,-2.984 -1.141,-2.984 -0.859,0 -1.156,0.891 -1.156,2.984 0,2.125 0.312,3.063 1.172,3.063 z"
       style="fill:#d95117;fill-opacity:1;fill-rule:nonzero;stroke:none"
       id="path4136" /><path
       d="m 477.25,156.668 c -0.297,0 -0.703,-0.422 -0.703,-0.734 0,-0.297 0.406,-0.704 0.687,-0.704 0.313,0 0.719,0.407 0.719,0.704 0,0.312 -0.406,0.734 -0.703,0.734 z"
       style="fill:#d95117;fill-opacity:1;fill-rule:nonzero;stroke:none"
       id="path4138" /><path
       d="m 479.688,155.34 2.906,0 0,0.484 c -0.922,0 -0.938,-0.062 -0.953,0.422 l 0,6.125 -0.235,0.063 -1.953,-0.985 0,-0.469 c 0.547,0.219 0.781,0.297 0.875,0.297 0.219,0 0.141,0 0.141,-0.312 l 0,-4.531 c -0.016,-0.641 -0.031,-0.61 -0.953,-0.61 l 0,-0.484 0.172,0 z"
       style="fill:#d95117;fill-opacity:1;fill-rule:nonzero;stroke:none"
       id="path4140" /><path
       d="m 487.953,162.512 c -1.141,-0.11 -1.828,-0.344 -2.562,-0.86 -1.079,-0.765 -1.703,-2.015 -1.703,-3.359 0,-0.875 0.296,-1.859 0.734,-2.359 0.375,-0.438 1.031,-0.735 1.656,-0.735 1.234,0 2.25,1.11 2.25,2.485 0,1.296 -0.875,2.265 -2.031,2.265 -0.453,0 -0.766,-0.125 -1.063,-0.297 0.204,1.188 1.172,2.11 2.922,2.391 l -0.062,0.484 -0.141,-0.015 z m -2.031,-3.36 c 0.875,0 1.203,-0.547 1.203,-1.797 0,-1.109 -0.234,-1.546 -0.937,-1.546 -0.876,0 -1.266,0.765 -1.266,2.328 0,0.5 0.031,0.672 0.234,0.828 0.219,0.156 0.406,0.187 0.766,0.187 z"
       style="fill:#d95117;fill-opacity:1;fill-rule:nonzero;stroke:none"
       id="path4142" /><path
       d="m 251,28 5.672,18.6641 5.668,20.8519 5.672,3.257 5.668,1.961 5.672,1.7539 5.668,1.75 5.671,1.766 5.668,1.7621 5.672,1.7422 5.668,1.7219 5.672,1.7039 5.668,1.6832 5.672,1.6719 5.668,1.6757 5.672,1.6801 5.668,1.6832 5.672,1.6758 5.668,1.6762 5.671,1.6828 5.668,1.6921 5.672,1.695 5.668,1.715 5.672,1.723 5.668,1.734 5.672,1.738 5.672,1.746 5.668,1.742 5.672,1.743 5.668,1.742 5.672,1.738 5.668,1.746 5.671,1.754 5.668,1.774 5.672,1.773 5.668,1.781 5.672,1.789 5.668,1.801 5.672,1.816"
       style="fill:none;stroke:#d95117;stroke-width:1.5;stroke-linecap:square;stroke-linejoin:miter;stroke-miterlimit:10;stroke-dasharray:none;stroke-opacity:1"
       id="path4144" /><path
       d="m 261.801,28 0,39.516"
       style="fill:none;stroke:#3f3f3f;stroke-width:1.5;stroke-linecap:butt;stroke-linejoin:bevel;stroke-miterlimit:10;stroke-dasharray:1, 3;stroke-dashoffset:0;stroke-opacity:1"
       id="path4146" /><path
       d="m 278,66.3012 81,23.875"
       style="fill:none;stroke:#3f3f3f;stroke-width:1.5;stroke-linecap:butt;stroke-linejoin:bevel;stroke-miterlimit:10;stroke-dasharray:10, 6;stroke-dashoffset:0;stroke-opacity:1"
       id="path4148" /><path
       d="m 391,54 54,0 0,33 -54,0 0,-33 z"
       style="fill:#ffffff;fill-opacity:1;fill-rule:nonzero;stroke:none"
       id="path4150" /><path
       d="m 391,54 54,0"
       style="fill:none;stroke:#3f3f3f;stroke-width:1;stroke-linecap:square;stroke-linejoin:miter;stroke-miterlimit:10;stroke-dasharray:none;stroke-opacity:1"
       id="path4152" /><path
       d="m 391,87 54,0"
       style="fill:none;stroke:#3f3f3f;stroke-width:1;stroke-linecap:square;stroke-linejoin:miter;stroke-miterlimit:10;stroke-dasharray:none;stroke-opacity:1"
       id="path4154" /><path
       d="m 391,54 0,0.5391"
       style="fill:none;stroke:#3f3f3f;stroke-width:1;stroke-linecap:square;stroke-linejoin:miter;stroke-miterlimit:10;stroke-dasharray:none;stroke-opacity:1"
       id="path4156" /><path
       d="m 391,87 0,-0.5391"
       style="fill:none;stroke:#3f3f3f;stroke-width:1;stroke-linecap:square;stroke-linejoin:miter;stroke-miterlimit:10;stroke-dasharray:none;stroke-opacity:1"
       id="path4158" /><path
       d="m 445,54 0,0.5391"
       style="fill:none;stroke:#3f3f3f;stroke-width:1;stroke-linecap:square;stroke-linejoin:miter;stroke-miterlimit:10;stroke-dasharray:none;stroke-opacity:1"
       id="path4160" /><path
       d="m 445,87 0,-0.5391"
       style="fill:none;stroke:#3f3f3f;stroke-width:1;stroke-linecap:square;stroke-linejoin:miter;stroke-miterlimit:10;stroke-dasharray:none;stroke-opacity:1"
       id="path4162" /><path
       d="m 391.047,48.184 c -0.563,0 -1.094,-0.2192 -1.469,-0.5789 -0.578,-0.5621 -1,-1.8281 -1,-3 0,-1.093 0.375,-2.359 0.844,-2.9211 0.375,-0.4379 1,-0.7352 1.578,-0.7352 0.516,0 1.047,0.2192 1.406,0.5782 0.578,0.5468 1,1.8128 1,3.016 0,2.0621 -1.062,3.641 -2.359,3.641 z m -0.031,-0.5942 c 0.828,0 1.125,-0.9687 1.125,-3.0628 0,-2.093 -0.282,-2.984 -1.141,-2.984 -0.859,0 -1.156,0.891 -1.156,2.984 0,2.125 0.312,3.0628 1.172,3.0628 z"
       style="fill:#3f3f3f;fill-opacity:1;fill-rule:nonzero;stroke:none"
       id="path4164" /><path
       d="m 439.312,46.918 1.954,0 c 0.172,0 0.359,0.1718 0.39,0.25 l 0.406,0.9531 -0.296,0.234 c -0.25,-0.3121 -0.219,-0.3121 -0.438,-0.3121 l -2.172,0 -1.031,-2.25 c -0.109,-0.1879 -0.141,-0.3282 -0.141,-0.3442 0,-0.0617 0.204,-0.234 0.282,-0.234 0.312,0 0.703,-0.0777 1.125,-0.2027 1.156,-0.375 1.515,-0.8281 1.515,-1.8281 0,-0.9539 -0.453,-1.532 -1.234,-1.532 -0.203,0 -0.25,0.016 -0.547,0.2351 -0.328,0.25 -0.656,0.3899 -0.891,0.3899 -0.281,0 -0.578,-0.2969 -0.578,-0.5469 0,-0.375 0.625,-0.7813 1.391,-0.7813 0.828,0 1.656,0.3282 2.156,0.8282 0.453,0.4531 0.703,1.125 0.703,1.891 0,0.7191 -0.218,1.2968 -0.718,1.7968 -0.438,0.4372 -1.126,0.7192 -2.079,0.8903 l 0.266,0.5629 -0.063,0 z"
       style="fill:#3f3f3f;fill-opacity:1;fill-rule:nonzero;stroke:none"
       id="path4166" /><path
       d="m 445.047,48.184 c -0.563,0 -1.094,-0.2192 -1.469,-0.5789 -0.578,-0.5621 -1,-1.8281 -1,-3 0,-1.093 0.375,-2.359 0.844,-2.9211 0.375,-0.4379 1,-0.7352 1.578,-0.7352 0.516,0 1.047,0.2192 1.406,0.5782 0.578,0.5468 1,1.8128 1,3.016 0,2.0621 -1.062,3.641 -2.359,3.641 z m -0.031,-0.5942 c 0.828,0 1.125,-0.9687 1.125,-3.0628 0,-2.093 -0.282,-2.984 -1.141,-2.984 -0.859,0 -1.156,0.891 -1.156,2.984 0,2.125 0.312,3.0628 1.172,3.0628 z"
       style="fill:#3f3f3f;fill-opacity:1;fill-rule:nonzero;stroke:none"
       id="path4168" /><path
       d="m 450.047,48.184 c -0.563,0 -1.094,-0.2192 -1.469,-0.5789 -0.578,-0.5621 -1,-1.8281 -1,-3 0,-1.093 0.375,-2.359 0.844,-2.9211 0.375,-0.4379 1,-0.7352 1.578,-0.7352 0.516,0 1.047,0.2192 1.406,0.5782 0.578,0.5468 1,1.8128 1,3.016 0,2.0621 -1.062,3.641 -2.359,3.641 z m -0.031,-0.5942 c 0.828,0 1.125,-0.9687 1.125,-3.0628 0,-2.093 -0.282,-2.984 -1.141,-2.984 -0.859,0 -1.156,0.891 -1.156,2.984 0,2.125 0.312,3.0628 1.172,3.0628 z"
       style="fill:#3f3f3f;fill-opacity:1;fill-rule:nonzero;stroke:none"
       id="path4170" /><path
       d="m 369.402,62.2852 0,-0.359 c 0.407,-0.0782 0.375,-0.0473 0.375,-0.2352 0,-0.109 -0.031,-0.2961 -0.125,-0.484 -0.156,-0.4058 -0.25,-0.8121 -0.25,-1.1718 0,-0.4532 0.235,-1.0622 0.563,-1.4223 0.328,-0.375 0.906,-0.625 1.484,-0.625 0.875,0 1.594,0.532 2.25,1.766 0.422,0.7813 0.875,1.359 1.281,1.641 0.141,0.093 0.266,0.109 0.547,0.109 0.719,0 1.078,-0.4059 1.078,-1.2027 0,-0.9852 -0.453,-1.5313 -1.953,-2.141 l 0,-0.5153 2.641,0.375 0,0.5153 c -0.359,0.016 -0.359,0 -0.359,0.1718 0,0.125 0.046,0.3129 0.125,0.516 0.156,0.4219 0.25,0.875 0.25,1.2969 0,1.2813 -1.032,2.3903 -2.157,2.3903 -0.906,0 -1.734,-0.6563 -2.515,-2.109 -0.625,-1.1563 -1,-1.5633 -1.61,-1.5633 -0.609,0 -0.859,0.3133 -0.859,1 0,0.4851 0.172,0.8441 0.562,1.2351 0.344,0.3282 0.532,0.4372 1.329,0.6719 l 0,0.5313 -2.657,-0.2813 0,-0.1097 z"
       style="fill:#3f3f3f;fill-opacity:1;fill-rule:nonzero;stroke:none"
       id="path4172" /><path
       d="m 371.887,66.3199 0,-0.9679 -1.11,0 c -0.109,0 -0.297,-0.1571 -0.297,-0.2969 0.969,-0.6719 1.344,-1 1.532,-1.3129 0.062,-0.125 0.25,-0.234 0.312,-0.234 0.031,0 0.172,0.0617 0.235,0.1719 l 0,0.4531 3.156,0 c 0.922,0 1.547,0.484 1.547,1.1398 0,0.5321 -0.313,1.0469 -1.016,1.5 l -0.297,-0.3429 c 0.375,-0.3281 0.438,-0.4071 0.438,-0.641 0,-0.4059 -0.141,-0.4371 -0.844,-0.4371 l -2.984,0 0,1.1089 -0.672,0 0,-0.141 z"
       style="fill:#3f3f3f;fill-opacity:1;fill-rule:nonzero;stroke:none"
       id="path4174" /><path
       d="m 377.152,66.598 0,2.7809 -0.468,0 c -0.032,-0.891 -0.032,-0.9219 -0.672,-0.9379 l -2.485,0 c -0.343,0 -0.734,0.3129 -0.734,0.625 0,0.0629 0,0.0469 0.109,0.1719 0.172,0.1723 0.266,0.407 0.266,0.5473 0,0.266 -0.344,0.5777 -0.641,0.5777 -0.375,0 -0.75,-0.375 -0.75,-0.75 0,-0.4527 0.297,-0.8899 1.078,-1.4219 l 0.11,0.25 -1.11,0 -0.078,-0.2031 c 0.25,-0.5777 0.391,-0.984 0.641,-1.7809 l 0.484,0 c -0.078,0.3129 -0.078,0.4059 -0.078,0.5469 0,0.266 0.016,0.2191 0.5,0.2191 l 2.75,0 c 0.578,-0.032 0.485,0.0622 0.625,-0.782 l 0.453,0 0,0.157 z"
       style="fill:#3f3f3f;fill-opacity:1;fill-rule:nonzero;stroke:none"
       id="path4176" /><path
       d="m 376.168,74.9488 c 0.141,-0.1867 0.156,-0.2027 0.156,-0.375 0,-0.25 0,-0.1867 -0.484,-0.1867 l -2.141,0 c -0.578,0 -1,-0.0941 -1.265,-0.266 -0.391,-0.234 -0.657,-0.8121 -0.657,-1.4531 0,-1.0309 0.703,-2 1.391,-2 0.25,0 0.625,0.359 0.625,0.625 0,0.266 -0.375,0.641 -0.609,0.641 -0.047,0 -0.094,-0.016 -0.172,-0.032 -0.11,-0.0149 -0.188,-0.0309 -0.266,-0.0309 -0.297,0 -0.391,0.2027 -0.391,0.6559 0,0.532 0.172,0.6718 0.766,0.6718 l 0.563,0 c 0.625,-1.5308 0.765,-1.8277 1.187,-2.3117 0.219,-0.2351 0.703,-0.4383 1.063,-0.4383 0.687,0 1.328,0.641 1.328,1.3133 0,0.484 -0.282,1.0309 -0.657,1.484 0.282,0.016 0.657,0.375 0.657,0.8277 0,0.375 -0.172,0.7032 -0.641,1.125 l -0.672,0 0.219,-0.25 z m -0.516,-1.75 c 0.328,0 0.328,-0.0148 0.469,-0.234 0.156,-0.2808 0.188,-0.4687 0.188,-0.7027 0,-0.375 -0.219,-0.5473 -0.688,-0.5473 l -0.047,0 c -0.656,0.0153 -0.922,0.359 -1.312,1.484 l 1.39,0 z"
       style="fill:#3f3f3f;fill-opacity:1;fill-rule:nonzero;stroke:none"
       id="path4178" /><path
       d="m 377.152,75.332 0,2.75 -0.468,0 c -0.063,-0.859 0,-0.7968 -0.813,-0.8121 l -3.984,0 -0.11,-0.157 0.657,-1.8899 0.453,0 -0.032,0.25 c -0.031,0.125 -0.031,0.2649 -0.031,0.375 0,0.25 0.016,0.2032 0.5,0.2032 l 2.547,0 c 0.813,-0.016 0.781,0.0308 0.813,-0.875 l 0.468,0 0,0.1558 z m -7.828,1.234 c 0,-0.2961 0.422,-0.7031 0.719,-0.7031 0.328,0 0.719,0.391 0.719,0.7031 0,0.3289 -0.391,0.7192 -0.719,0.7192 -0.313,0 -0.719,-0.4063 -0.719,-0.7192 z"
       style="fill:#3f3f3f;fill-opacity:1;fill-rule:nonzero;stroke:none"
       id="path4180" /><path
       d="m 377.152,78.3441 0,2.468 -0.468,0 c -0.032,-0.6871 -0.032,-0.718 -0.422,-0.718 l -3.032,0 c -0.437,0.468 -0.531,0.625 -0.531,0.984 0,0.5309 0.188,0.6559 0.906,0.6559 l 2.297,0 c 0.719,-0.0309 0.75,0 0.782,-0.7031 l 0.468,0 0,2.5941 -0.468,0 c -0.063,-0.6871 -0.032,-0.6719 -0.579,-0.6719 l -2.515,0 c -1.031,0 -1.813,-0.625 -1.813,-1.4531 0,-0.5 0.235,-0.9531 0.703,-1.4531 l -0.64,0 -0.063,-0.2188 c 0.203,-0.5312 0.328,-0.9062 0.532,-1.6722 l 0.546,0 c -0.156,0.3281 -0.125,0.3441 -0.125,0.4531 0,0.3129 0.016,0.25 0.547,0.25 l 2.735,0 c 0.64,0 0.64,0.032 0.672,-0.6711 l 0.468,0 0,0.1562 z"
       style="fill:#3f3f3f;fill-opacity:1;fill-rule:nonzero;stroke:none"
       id="path4182" /><path
       d="m 391,54 0,33"
       style="fill:none;stroke:#3f3f3f;stroke-width:1;stroke-linecap:square;stroke-linejoin:miter;stroke-miterlimit:10;stroke-dasharray:none;stroke-opacity:1"
       id="path4184" /><path
       d="m 445,54 0,33"
       style="fill:none;stroke:#3f3f3f;stroke-width:1;stroke-linecap:square;stroke-linejoin:miter;stroke-miterlimit:10;stroke-dasharray:none;stroke-opacity:1"
       id="path4186" /><path
       d="m 391,54 0.539,0"
       style="fill:none;stroke:#3f3f3f;stroke-width:1;stroke-linecap:square;stroke-linejoin:miter;stroke-miterlimit:10;stroke-dasharray:none;stroke-opacity:1"
       id="path4188" /><path
       d="m 445,54 -0.539,0"
       style="fill:none;stroke:#3f3f3f;stroke-width:1;stroke-linecap:square;stroke-linejoin:miter;stroke-miterlimit:10;stroke-dasharray:none;stroke-opacity:1"
       id="path4190" /><path
       d="m 391,70.5 0.539,0"
       style="fill:none;stroke:#3f3f3f;stroke-width:1;stroke-linecap:square;stroke-linejoin:miter;stroke-miterlimit:10;stroke-dasharray:none;stroke-opacity:1"
       id="path4192" /><path
       d="m 445,70.5 -0.539,0"
       style="fill:none;stroke:#3f3f3f;stroke-width:1;stroke-linecap:square;stroke-linejoin:miter;stroke-miterlimit:10;stroke-dasharray:none;stroke-opacity:1"
       id="path4194" /><path
       d="m 391,87 0.539,0"
       style="fill:none;stroke:#3f3f3f;stroke-width:1;stroke-linecap:square;stroke-linejoin:miter;stroke-miterlimit:10;stroke-dasharray:none;stroke-opacity:1"
       id="path4196" /><path
       d="m 445,87 -0.539,0"
       style="fill:none;stroke:#3f3f3f;stroke-width:1;stroke-linecap:square;stroke-linejoin:miter;stroke-miterlimit:10;stroke-dasharray:none;stroke-opacity:1"
       id="path4198" /><path
       d="m 384.547,57.434 c -0.563,0 -1.094,-0.2192 -1.469,-0.5789 -0.578,-0.5621 -1,-1.8281 -1,-3 0,-1.093 0.375,-2.359 0.844,-2.9211 0.375,-0.4379 1,-0.7352 1.578,-0.7352 0.516,0 1.047,0.2192 1.406,0.5782 0.578,0.5468 1,1.8128 1,3.016 0,2.0621 -1.062,3.641 -2.359,3.641 z m -0.031,-0.5942 c 0.828,0 1.125,-0.9687 1.125,-3.0628 0,-2.093 -0.282,-2.984 -1.141,-2.984 -0.859,0 -1.156,0.891 -1.156,2.984 0,2.125 0.312,3.0628 1.172,3.0628 z"
       style="fill:#3f3f3f;fill-opacity:1;fill-rule:nonzero;stroke:none"
       id="path4200" /><path
       d="m 383.188,66.8398 2.906,0 0,0.484 c -0.922,0 -0.938,-0.0617 -0.953,0.4223 l 0,6.125 -0.235,0.0629 -1.953,-0.9852 0,-0.4687 c 0.547,0.2187 0.781,0.2969 0.875,0.2969 0.219,0 0.141,0 0.141,-0.3122 l 0,-4.5308 c -0.016,-0.641 -0.031,-0.6102 -0.953,-0.6102 l 0,-0.484 0.172,0 z"
       style="fill:#3f3f3f;fill-opacity:1;fill-rule:nonzero;stroke:none"
       id="path4202" /><path
       d="m 386.75,85.043 -0.203,0.0781 c -0.422,-0.6563 -0.406,-0.6871 -0.875,-0.6871 l -2.016,0 1.406,1.468 c 0.891,0.9378 1.329,1.8128 1.329,2.5941 0,1 -0.953,1.9379 -2,1.9379 -0.547,0 -1.188,-0.282 -1.563,-0.6719 -0.312,-0.3441 -0.516,-0.782 -0.703,-1.6101 l 0.469,-0.109 c 0.468,1.1558 0.672,1.3121 1.375,1.3121 0.843,0 1.25,-0.4063 1.25,-1.25 0,-0.7813 -0.422,-1.5781 -1.266,-2.468 l -1.812,-1.9531 0,-0.3442 4.156,0 0.641,1.625 -0.188,0.0782 z"
       style="fill:#3f3f3f;fill-opacity:1;fill-rule:nonzero;stroke:none"
       id="path4204" /><path
       d="m 391,54 0.227,0.375 0.226,0.4219 0.227,0.066 0.226,0.0391 0.453,0.071 0.231,0.0352 0.222,0.0348 0.227,0.0351 0.231,0.0348 0.226,0.0351 0.227,0.0321 0.453,0.0699 0.226,0.0309 0.453,0.0711 0.227,0.0312 0.453,0.0699 0.227,0.0309 0.679,0.1058 0.231,0.0352 2.039,0.316 0.227,0.0391 0.453,0.0711 0.226,0.0386 0.453,0.0704 0.231,0.0386 0.226,0.0352 1.586,0.2742 0.227,0.043 0.226,0.0386 0.227,0.0434 0.227,0.0387 0.679,0.1293 0.231,0.0386 0.222,0.0434 0.231,0.043 1.133,0.2148 0.226,0.0469 0.227,0.0422 0.226,0.0469 0.227,0.0429 0.226,0.0473 0.227,0.043 0.227,0.0468 0.226,0.043 0.227,0.0469 0.226,0.0429 0.231,0.0434 0.226,0.043 0.227,0.0468 0.453,0.086 0.227,0.0461 0.453,0.0859 0.226,0.0469 0.227,0.043 0.226,0.0472 0.227,0.0508 0.906,0.1871 0.231,0.0469 3.171,0.657 0.227,0.05 0.231,0.0512 0.222,0.0508 0.231,0.0511 0.226,0.054 0.227,0.0511 0.226,0.0551 0.227,0.0508 0.226,0.0539 0.68,0.1531 0.227,0.0539 0.226,0.0512 0.453,0.109 0.231,0.0551 0.223,0.0589 0.226,0.0539 0.231,0.0551 0.453,0.1098 0.226,0.05 0.68,0.1641 0.227,0.0511 0.453,0.109 0.226,0.0508 0.453,0.1101 0.453,0.1008 0.231,0.0551 0.68,0.1641 0.226,0.059 0.227,0.0621 0.226,0.0589 1.36,0.375 0.226,0.0661 0.453,0.125 0.231,0.066 0.679,0.1879 2.04,0.598 0.226,0.0699 0.227,0.0661 0.226,0.071 0.231,0.086 0.222,0.082 0.231,0.0699 0.226,0.0661 0.227,0.071 0.227,0.0739 0.226,0.0703 0.227,0.0859 0.226,0.1168 0.453,0.25 0.453,0.2422 0.454,0.25 0.453,0.266 0.226,0.141 0.231,0.1399 0.226,0.1371 0.227,0.141 0.226,0.1328 0.227,0.1281 0.453,0.2739 0.227,0.1402 0.453,0.2899 0.453,0.273 0.226,0.1332 0.454,0.2727 0.226,0.1453 0.231,0.1437 0.226,0.1449 0.227,0.1563 0.226,0.191 0.227,0.2188 0.226,0.2543 0.227,0.2929 0.227,0.2848 0.226,0.2543 0.227,0.2379 0.226,0.2469 0.227,0.2531 0.226,0.2429 0.227,0.25 0.227,0.3161 0.226,0.5269 0.231,0.5281 0.222,0.3278 0.231,0.223 0.226,0.2071 0.227,0.257 0.226,0.25 0.227,0.243 0.227,0.257 0.226,0.3789 0.227,0.3641 0.226,0.2421 0.227,1.1129 0.226,1.234 0.227,0.4031 0.226,0.2848 0.231,0.25 0.223,0.2731 0.027,0.0351"
       style="fill:none;stroke:#d95117;stroke-width:1.5;stroke-linecap:square;stroke-linejoin:miter;stroke-miterlimit:10;stroke-dasharray:none;stroke-opacity:1"
       id="path4206" /></g></svg>