<?xml version="1.0" encoding="UTF-8" standalone="no"?>
<svg
   xmlns:dc="http://purl.org/dc/elements/1.1/"
   xmlns:cc="http://creativecommons.org/ns#"
   xmlns:rdf="http://www.w3.org/1999/02/22-rdf-syntax-ns#"
   xmlns:svg="http://www.w3.org/2000/svg"
   xmlns="http://www.w3.org/2000/svg"
   viewBox="0 0 348.80374 304.1825"
   height="304.1825"
   width="348.80374"
   xml:space="preserve"
   version="1.1"
   id="svg2"><metadata
     id="metadata8"><rdf:RDF><cc:Work
         rdf:about=""><dc:format>image/svg+xml</dc:format><dc:type
           rdf:resource="http://purl.org/dc/dcmitype/StillImage" /><dc:title></dc:title></cc:Work></rdf:RDF></metadata><defs
     id="defs6"><clipPath
       id="clipPath3012"
       clipPathUnits="userSpaceOnUse"><path
         id="path3014"
         d="m 1350,4720 870,0 0,40 -870,-40 z" /></clipPath><clipPath
       id="clipPath3024"
       clipPathUnits="userSpaceOnUse"><path
         id="path3026"
         d="m 2220,4760 -870,0 0,-40 870,40 z" /></clipPath></defs><g
     transform="matrix(1.25,0,0,-1.25,-301.52125,747.6225)"
     id="g10"><path
       d="m 270,382 243,0 0,213 -243,0 0,-213 z"
       style="fill:#ffffff;fill-opacity:1;fill-rule:nonzero;stroke:none"
       id="path6030" /><g
       id="g6032"><text
         transform="matrix(1,0,0,-1,372.715,356.699)"
         style="font-variant:normal;font-weight:normal;font-size:11px;font-family:Times;-inkscape-font-specification:Times-Roman;writing-mode:lr-tb;fill:#404040;fill-opacity:1;fill-rule:nonzero;stroke:none"
         id="text6034"><tspan
           x="0 6.7210002 9.7790003 18.337 23.221001 25.971001 29.634001 33.912998"
           y="0"
           id="tspan6036">Time (s)</tspan></text>
</g><path
       d="m 270,382 243,0"
       style="fill:none;stroke:#404040;stroke-width:1;stroke-linecap:square;stroke-linejoin:miter;stroke-miterlimit:10;stroke-dasharray:none;stroke-opacity:1"
       id="path6038" /><path
       d="m 270,595 243,0"
       style="fill:none;stroke:#404040;stroke-width:1;stroke-linecap:square;stroke-linejoin:miter;stroke-miterlimit:10;stroke-dasharray:none;stroke-opacity:1"
       id="path6040" /><path
       d="m 270,382 0,2.43"
       style="fill:none;stroke:#404040;stroke-width:1;stroke-linecap:square;stroke-linejoin:miter;stroke-miterlimit:10;stroke-dasharray:none;stroke-opacity:1"
       id="path6042" /><path
       d="m 270,595 0,-2.43"
       style="fill:none;stroke:#404040;stroke-width:1;stroke-linecap:square;stroke-linejoin:miter;stroke-miterlimit:10;stroke-dasharray:none;stroke-opacity:1"
       id="path6044" /><path
       d="m 310.5,382 0,2.43"
       style="fill:none;stroke:#404040;stroke-width:1;stroke-linecap:square;stroke-linejoin:miter;stroke-miterlimit:10;stroke-dasharray:none;stroke-opacity:1"
       id="path6046" /><path
       d="m 310.5,595 0,-2.43"
       style="fill:none;stroke:#404040;stroke-width:1;stroke-linecap:square;stroke-linejoin:miter;stroke-miterlimit:10;stroke-dasharray:none;stroke-opacity:1"
       id="path6048" /><path
       d="m 351,382 0,2.43"
       style="fill:none;stroke:#404040;stroke-width:1;stroke-linecap:square;stroke-linejoin:miter;stroke-miterlimit:10;stroke-dasharray:none;stroke-opacity:1"
       id="path6050" /><path
       d="m 351,595 0,-2.43"
       style="fill:none;stroke:#404040;stroke-width:1;stroke-linecap:square;stroke-linejoin:miter;stroke-miterlimit:10;stroke-dasharray:none;stroke-opacity:1"
       id="path6052" /><path
       d="m 391.5,382 0,2.43"
       style="fill:none;stroke:#404040;stroke-width:1;stroke-linecap:square;stroke-linejoin:miter;stroke-miterlimit:10;stroke-dasharray:none;stroke-opacity:1"
       id="path6054" /><path
       d="m 391.5,595 0,-2.43"
       style="fill:none;stroke:#404040;stroke-width:1;stroke-linecap:square;stroke-linejoin:miter;stroke-miterlimit:10;stroke-dasharray:none;stroke-opacity:1"
       id="path6056" /><path
       d="m 432,382 0,2.43"
       style="fill:none;stroke:#404040;stroke-width:1;stroke-linecap:square;stroke-linejoin:miter;stroke-miterlimit:10;stroke-dasharray:none;stroke-opacity:1"
       id="path6058" /><path
       d="m 432,595 0,-2.43"
       style="fill:none;stroke:#404040;stroke-width:1;stroke-linecap:square;stroke-linejoin:miter;stroke-miterlimit:10;stroke-dasharray:none;stroke-opacity:1"
       id="path6060" /><path
       d="m 472.5,382 0,2.43"
       style="fill:none;stroke:#404040;stroke-width:1;stroke-linecap:square;stroke-linejoin:miter;stroke-miterlimit:10;stroke-dasharray:none;stroke-opacity:1"
       id="path6062" /><path
       d="m 472.5,595 0,-2.43"
       style="fill:none;stroke:#404040;stroke-width:1;stroke-linecap:square;stroke-linejoin:miter;stroke-miterlimit:10;stroke-dasharray:none;stroke-opacity:1"
       id="path6064" /><path
       d="m 513,382 0,2.43"
       style="fill:none;stroke:#404040;stroke-width:1;stroke-linecap:square;stroke-linejoin:miter;stroke-miterlimit:10;stroke-dasharray:none;stroke-opacity:1"
       id="path6066" /><path
       d="m 513,595 0,-2.43"
       style="fill:none;stroke:#404040;stroke-width:1;stroke-linecap:square;stroke-linejoin:miter;stroke-miterlimit:10;stroke-dasharray:none;stroke-opacity:1"
       id="path6068" /><g
       id="g6070"><text
         transform="matrix(1,0,0,-1,267.5,369.089)"
         style="font-variant:normal;font-weight:normal;font-size:10px;font-family:Times;-inkscape-font-specification:Times-Roman;writing-mode:lr-tb;fill:#404040;fill-opacity:1;fill-rule:nonzero;stroke:none"
         id="text6072"><tspan
           x="0 35.5 40.5 45.5 76 81 86 116.5 121.5 126.5 157 162 167 197.5 202.5 207.5 238 243 248"
           y="0"
           id="tspan6074">0100200300400500600</tspan></text>
<text
         transform="matrix(0,1,1,0,248.653,475.362)"
         style="font-variant:normal;font-weight:normal;font-size:11px;font-family:Times;-inkscape-font-specification:Times-Roman;writing-mode:lr-tb;fill:#404040;fill-opacity:1;fill-rule:nonzero;stroke:none"
         id="text6076"><tspan
           x="0 6.1160002 9.1739998 12.837 17.721001 20.778999"
           y="0"
           id="tspan6078">Strain</tspan></text>
</g><path
       d="m 270,382 0,213"
       style="fill:none;stroke:#404040;stroke-width:1;stroke-linecap:square;stroke-linejoin:miter;stroke-miterlimit:10;stroke-dasharray:none;stroke-opacity:1"
       id="path6080" /><path
       d="m 513,382 0,213"
       style="fill:none;stroke:#404040;stroke-width:1;stroke-linecap:square;stroke-linejoin:miter;stroke-miterlimit:10;stroke-dasharray:none;stroke-opacity:1"
       id="path6082" /><path
       d="m 270,382 2.43,0"
       style="fill:none;stroke:#404040;stroke-width:1;stroke-linecap:square;stroke-linejoin:miter;stroke-miterlimit:10;stroke-dasharray:none;stroke-opacity:1"
       id="path6084" /><path
       d="m 513,382 -2.43,0"
       style="fill:none;stroke:#404040;stroke-width:1;stroke-linecap:square;stroke-linejoin:miter;stroke-miterlimit:10;stroke-dasharray:none;stroke-opacity:1"
       id="path6086" /><path
       d="m 270,403.3 2.43,0"
       style="fill:none;stroke:#404040;stroke-width:1;stroke-linecap:square;stroke-linejoin:miter;stroke-miterlimit:10;stroke-dasharray:none;stroke-opacity:1"
       id="path6088" /><path
       d="m 513,403.3 -2.43,0"
       style="fill:none;stroke:#404040;stroke-width:1;stroke-linecap:square;stroke-linejoin:miter;stroke-miterlimit:10;stroke-dasharray:none;stroke-opacity:1"
       id="path6090" /><path
       d="m 270,424.6 2.43,0"
       style="fill:none;stroke:#404040;stroke-width:1;stroke-linecap:square;stroke-linejoin:miter;stroke-miterlimit:10;stroke-dasharray:none;stroke-opacity:1"
       id="path6092" /><path
       d="m 513,424.6 -2.43,0"
       style="fill:none;stroke:#404040;stroke-width:1;stroke-linecap:square;stroke-linejoin:miter;stroke-miterlimit:10;stroke-dasharray:none;stroke-opacity:1"
       id="path6094" /><path
       d="m 270,445.9 2.43,0"
       style="fill:none;stroke:#404040;stroke-width:1;stroke-linecap:square;stroke-linejoin:miter;stroke-miterlimit:10;stroke-dasharray:none;stroke-opacity:1"
       id="path6096" /><path
       d="m 513,445.9 -2.43,0"
       style="fill:none;stroke:#404040;stroke-width:1;stroke-linecap:square;stroke-linejoin:miter;stroke-miterlimit:10;stroke-dasharray:none;stroke-opacity:1"
       id="path6098" /><path
       d="m 270,467.2 2.43,0"
       style="fill:none;stroke:#404040;stroke-width:1;stroke-linecap:square;stroke-linejoin:miter;stroke-miterlimit:10;stroke-dasharray:none;stroke-opacity:1"
       id="path6100" /><path
       d="m 513,467.2 -2.43,0"
       style="fill:none;stroke:#404040;stroke-width:1;stroke-linecap:square;stroke-linejoin:miter;stroke-miterlimit:10;stroke-dasharray:none;stroke-opacity:1"
       id="path6102" /><path
       d="m 270,488.5 2.43,0"
       style="fill:none;stroke:#404040;stroke-width:1;stroke-linecap:square;stroke-linejoin:miter;stroke-miterlimit:10;stroke-dasharray:none;stroke-opacity:1"
       id="path6104" /><path
       d="m 513,488.5 -2.43,0"
       style="fill:none;stroke:#404040;stroke-width:1;stroke-linecap:square;stroke-linejoin:miter;stroke-miterlimit:10;stroke-dasharray:none;stroke-opacity:1"
       id="path6106" /><path
       d="m 270,509.8 2.43,0"
       style="fill:none;stroke:#404040;stroke-width:1;stroke-linecap:square;stroke-linejoin:miter;stroke-miterlimit:10;stroke-dasharray:none;stroke-opacity:1"
       id="path6108" /><path
       d="m 513,509.8 -2.43,0"
       style="fill:none;stroke:#404040;stroke-width:1;stroke-linecap:square;stroke-linejoin:miter;stroke-miterlimit:10;stroke-dasharray:none;stroke-opacity:1"
       id="path6110" /><path
       d="m 270,531.1 2.43,0"
       style="fill:none;stroke:#404040;stroke-width:1;stroke-linecap:square;stroke-linejoin:miter;stroke-miterlimit:10;stroke-dasharray:none;stroke-opacity:1"
       id="path6112" /><path
       d="m 513,531.1 -2.43,0"
       style="fill:none;stroke:#404040;stroke-width:1;stroke-linecap:square;stroke-linejoin:miter;stroke-miterlimit:10;stroke-dasharray:none;stroke-opacity:1"
       id="path6114" /><path
       d="m 270,552.4 2.43,0"
       style="fill:none;stroke:#404040;stroke-width:1;stroke-linecap:square;stroke-linejoin:miter;stroke-miterlimit:10;stroke-dasharray:none;stroke-opacity:1"
       id="path6116" /><path
       d="m 513,552.4 -2.43,0"
       style="fill:none;stroke:#404040;stroke-width:1;stroke-linecap:square;stroke-linejoin:miter;stroke-miterlimit:10;stroke-dasharray:none;stroke-opacity:1"
       id="path6118" /><path
       d="m 270,573.7 2.43,0"
       style="fill:none;stroke:#404040;stroke-width:1;stroke-linecap:square;stroke-linejoin:miter;stroke-miterlimit:10;stroke-dasharray:none;stroke-opacity:1"
       id="path6120" /><path
       d="m 513,573.7 -2.43,0"
       style="fill:none;stroke:#404040;stroke-width:1;stroke-linecap:square;stroke-linejoin:miter;stroke-miterlimit:10;stroke-dasharray:none;stroke-opacity:1"
       id="path6122" /><path
       d="m 270,595 2.43,0"
       style="fill:none;stroke:#404040;stroke-width:1;stroke-linecap:square;stroke-linejoin:miter;stroke-miterlimit:10;stroke-dasharray:none;stroke-opacity:1"
       id="path6124" /><path
       d="m 513,595 -2.43,0"
       style="fill:none;stroke:#404040;stroke-width:1;stroke-linecap:square;stroke-linejoin:miter;stroke-miterlimit:10;stroke-dasharray:none;stroke-opacity:1"
       id="path6126" /><g
       id="g6128"><text
         transform="matrix(1,0,0,-1,261,378.338)"
         style="font-variant:normal;font-weight:normal;font-size:10px;font-family:Times;-inkscape-font-specification:Times-Roman;writing-mode:lr-tb;fill:#404040;fill-opacity:1;fill-rule:nonzero;stroke:none"
         id="text6130"><tspan
           x="0"
           y="0"
           id="tspan6132">0</tspan><tspan
           x="-7.5 -2.5 0"
           y="-21.299999"
           id="tspan6134">0.1</tspan><tspan
           x="-7.5 -2.5 0"
           y="-42.599998"
           id="tspan6136">0.2</tspan><tspan
           x="-7.5 -2.5 0"
           y="-63.900002"
           id="tspan6138">0.3</tspan><tspan
           x="-7.5 -2.5 0"
           y="-85.199997"
           id="tspan6140">0.4</tspan><tspan
           x="-7.5 -2.5 0"
           y="-106.5"
           id="tspan6142">0.5</tspan><tspan
           x="-7.5 -2.5 0"
           y="-127.8"
           id="tspan6144">0.6</tspan><tspan
           x="-7.5 -2.5 0"
           y="-149.10001"
           id="tspan6146">0.7</tspan><tspan
           x="-7.5 -2.5 0"
           y="-170.39999"
           id="tspan6148">0.8</tspan><tspan
           x="-7.5 -2.5 0"
           y="-191.7"
           id="tspan6150">0.9</tspan><tspan
           x="0"
           y="-213"
           id="tspan6152">1</tspan></text>
</g><path
       d="m 270.405,382 0.405,0.594 0.405,0.61 0.405,0.607 0.405,0.607 0.405,0.604 0.405,0.6 0.405,0.602 0.405,0.601 0.405,0.595 0.405,0.595 0.405,0.589 0.405,0.565 0.405,0.549 0.405,0.547 0.405,0.537 0.405,0.529 0.405,0.516 0.405,0.509 0.405,0.508 0.405,0.498 0.405,0.487 0.405,0.478 0.405,0.468 0.405,0.449 0.405,0.44 0.405,0.439 0.405,0.427 0.405,0.42 0.405,0.416 0.405,0.409 0.405,0.404 0.405,0.398 0.405,0.401 0.405,0.407 0.405,0.397 0.405,0.391 0.405,0.396 0.405,0.398 0.405,0.393 0.405,0.385 0.405,0.376 0.405,0.364 0.405,0.344 0.405,0.34 0.405,0.335 0.405,0.319 0.405,0.31 0.405,0.31 0.405,0.323 0.405,0.334 0.405,0.337 0.405,0.34 0.405,0.329 0.405,0.329 0.405,0.319 0.405,0.301 0.405,0.3 0.405,0.293 0.405,0.287 0.405,0.285 0.405,0.281 0.405,0.277 0.405,0.277 0.405,0.275 0.405,0.271 0.405,0.267 0.405,0.264 0.405,0.27 0.405,0.262 0.405,0.23 0.405,0.193 0.405,0.195 0.405,0.218 0.405,0.225 0.405,0.222 0.405,0.224 0.405,0.225 0.405,0.215 0.405,0.209 0.405,0.207 0.405,0.201 0.405,0.175 0.405,0.16 0.405,0.166 0.405,0.161 0.405,0.143 0.405,0.124 0.405,0.125 0.405,0.137 0.405,0.139 0.405,0.13 0.405,0.116 0.405,0.111 0.405,0.111 0.405,0.107 0.405,0.094 0.405,0.088 0.405,0.086 0.405,0.089 0.405,0.097 0.405,0.096 0.405,0.102 0.405,0.112 0.405,0.113 0.405,0.112 0.405,0.1 0.405,0.092 0.405,0.094 0.405,0.1 0.405,0.114 0.405,0.127 0.405,0.124 0.405,0.112 0.405,0.106 0.405,0.103 0.405,0.106 0.405,0.096 0.405,0.067 0.405,0.071 0.405,0.108 0.405,0.119 0.405,0.113 0.405,0.112 0.405,0.111 0.405,0.103 0.405,0.095 0.405,0.069 0.405,0.056 0.405,0.079 0.405,0.1 0.405,0.112 0.405,0.127 0.405,0.138 0.405,0.142 0.405,0.138 0.405,0.126 0.405,0.104 0.405,0.083 0.405,0.076 0.405,0.079 0.405,0.067 0.405,0.062 0.405,0.064 0.405,0.06 0.405,0.069 0.405,0.081 0.405,0.084 0.405,0.084 0.405,0.069 0.405,0.062 0.405,0.083 0.405,0.094 0.405,0.102 0.405,0.095 0.405,0.091 0.405,0.088 0.405,0.079 0.405,0.091 0.405,0.099 0.405,0.091 0.405,0.08 0.405,0.071 0.405,0.062 0.405,0.059 0.405,0.066 0.405,0.082 0.405,0.086 0.405,0.08 0.405,0.092 0.405,0.088 0.405,0.089 0.405,0.103 0.405,0.111 0.405,0.112 0.405,0.096 0.405,0.086 0.405,0.087 0.405,0.097 0.405,0.101 0.405,0.096 0.405,0.11 0.405,0.123 0.405,0.115 0.405,0.108 0.405,0.092 0.405,0.079 0.405,0.093 0.405,0.091 0.405,0.067 0.405,0.053 0.405,0.052 0.405,0.045 0.405,0.038 0.405,0.037 0.405,0.039 0.405,0.052 0.405,0.059 0.405,0.059 0.405,0.075 0.405,0.076 0.405,0.062 0.405,0.032 0.405,-0.004 0.405,-0.015 0.405,-0.009 0.405,0.029 0.405,0.048 0.405,0.002 0.405,-0.021 0.405,-0.007 0.405,-0.03 0.405,-0.019 0.405,0.04 0.405,0.065 0.405,0.077 0.405,0.075 0.405,0.061 0.405,0.018 0.405,-0.006 0.405,0.01 0.405,0.019 0.405,0.05 0.405,0.074 0.405,0.08 0.405,0.094 0.405,0.113 0.405,0.119 0.405,0.115 0.405,0.103 0.405,0.101 0.405,0.101 0.405,0.074 0.405,0.054 0.405,0.071 0.405,0.085 0.405,0.087 0.405,0.08 0.405,0.081 0.405,0.074 0.405,0.069 0.405,0.085 0.405,0.102 0.405,0.102 0.405,0.099 0.405,0.102 0.405,0.1 0.405,0.09 0.405,0.089 0.405,0.07 0.405,0.048 0.405,0.047 0.405,0.038 0.405,0.021 0.405,0.015 0.405,0.028 0.405,0.03 0.405,0.032 0.405,0.042 0.405,0.079 0.405,0.101 0.405,0.088 0.405,0.06 0.405,0.036 0.405,0.039 0.405,0.046 0.405,0.046 0.405,0.043 0.405,0.055 0.405,0.061 0.405,0.075 0.405,0.074 0.405,0.041 0.405,0.022 0.405,0.012 0.405,0.008 0.405,0.026 0.405,0.033 0.405,0.029 0.405,0.034 0.405,0.031 0.405,0.032 0.405,0.036 0.405,0.035 0.405,0.033 0.405,0.032 0.405,0.025 0.405,0.019 0.405,0.011 0.405,0.02 0.405,0.028 0.405,0.015 0.405,0.033 0.405,0.086 0.405,0.104 0.405,0.086 0.405,0.081 0.405,0.077 0.405,0.068 0.405,0.066 0.405,0.062 0.405,0.058 0.405,0.052 0.405,0.034 0.405,0.025 0.405,0.033 0.405,-0.008 0.405,-0.03 0.405,10e-4 0.405,0.021 0.405,0.032 0.405,0.036 0.405,0.039 0.405,0.037 0.405,0.052 0.405,0.09 0.405,0.117 0.405,0.119 0.405,0.134 0.405,0.129 0.405,0.112 0.405,0.116 0.405,0.116 0.405,0.095 0.405,0.046 0.405,0.045 0.405,0.061 0.405,0.045 0.405,0.056 0.405,0.05 0.405,0.05 0.405,0.079 0.405,0.088 0.405,0.082 0.405,0.065 0.405,0.034 0.405,0.013 0.405,0.01 0.405,0.007 0.405,-0.014 0.405,-0.052 0.405,-0.095 0.405,-0.129 0.405,-0.13 0.405,-0.124 0.405,-0.127 0.405,-0.113 0.405,-0.072 0.405,-0.048 0.405,-0.054 0.405,-0.096 0.405,-0.113 0.405,-0.069 0.405,-0.016 0.405,0.007 0.405,10e-4 0.405,0 0.405,0.025 0.405,0.066 0.405,0.085 0.405,0.091 0.405,0.085 0.405,0.072 0.405,0.042 0.405,0.009 0.405,0.02 0.405,0.058 0.405,0.07 0.405,0.058 0.405,0.055 0.405,0.046 0.405,0.038 0.405,0.03 0.405,-10e-4 0.405,-0.038 0.405,-0.03 0.405,0.034 0.405,0.054 0.405,0.054 0.405,0.059 0.405,0.016 0.405,-0.03 0.405,-0.058 0.405,-0.087 0.405,-0.115 0.405,-0.143 0.405,-0.151 0.405,-0.132 0.405,-0.125 0.405,-0.115 0.405,-0.094 0.405,-0.081 0.405,-0.047 0.405,-0.015 0.405,0.007 0.405,0.021 0.405,0.017 0.405,0.03 0.405,0.079 0.405,0.09 0.405,0.07 0.405,0.063 0.405,0.072 0.405,0.103 0.405,0.133 0.405,0.129 0.405,0.128 0.405,0.122 0.405,0.073 0.405,0.023 0.405,0 0.405,0.013 0.405,0.044 0.405,0.078 0.405,0.115 0.405,0.132 0.405,0.13 0.405,0.126 0.405,0.115 0.405,0.099 0.405,0.06 0.405,0.028 0.405,0.016 0.405,0.025 0.405,0.057 0.405,0.08 0.405,0.086 0.405,0.089 0.405,0.092 0.405,0.078 0.405,0.059 0.405,0.05 0.405,0.041 0.405,0.047 0.405,0.064 0.405,0.053 0.405,0.019 0.405,0 0.405,0.009 0.405,-0.008 0.405,-0.026 0.405,-0.009 0.405,0.019 0.405,0.025 0.405,0.02 0.405,0.019 0.405,0.006 0.405,-0.009 0.405,0 0.405,0.02 0.405,0.015 0.405,0.04 0.405,0.07 0.405,0.069 0.405,0.061 0.405,0.056 0.405,0.028 0.405,-0.006 0.405,-0.017 0.405,-0.033 0.405,-0.03 0.405,0.003 0.405,0.018 0.405,0.004 0.405,-0.013 0.405,-0.004 0.405,0.026 0.405,0.023 0.405,0.007 0.405,-0.018 0.405,-0.048 0.405,-0.037 0.405,-0.041 0.405,-0.041 0.405,-0.01 0.405,0.024 0.405,0.017 0.405,0.002 0.405,0.003 0.405,-0.003 0.405,-0.02 0.405,-0.041 0.405,-0.034 0.405,-0.03 0.405,-0.031 0.405,-0.011 0.405,0.023 0.405,-0.015 0.405,-0.033 0.405,0.008 0.405,0.023 0.405,0.03 0.405,0.041 0.405,0.054 0.405,0.042 0.405,0.034 0.405,0.032 0.405,0.039 0.405,0.054 0.405,0.044 0.405,0.034 0.405,0.023 0.405,-0.006 0.405,-0.046 0.405,-0.076 0.405,-0.102 0.405,-0.1"
       style="fill:none;stroke:#0072bd;stroke-width:1.5;stroke-linecap:square;stroke-linejoin:miter;stroke-miterlimit:10;stroke-dasharray:none;stroke-opacity:1"
       id="path6154" /><path
       d="m 270.405,382 0.405,0.595 0.405,0.611 0.405,0.612 0.405,0.607 0.405,0.599 0.405,0.594 0.405,0.602 0.405,0.614 0.405,0.612 0.405,0.606 0.405,0.61 0.405,0.604 0.405,0.586 0.405,0.57 0.405,0.542 0.405,0.536 0.405,0.561 0.405,0.578 0.405,0.568 0.405,0.552 0.405,0.541 0.405,0.522 0.405,0.493 0.405,0.47 0.405,0.461 0.405,0.449 0.405,0.425 0.405,0.419 0.405,0.423 0.405,0.42 0.405,0.422 0.405,0.416 0.405,0.414 0.405,0.425 0.405,0.428 0.405,0.43 0.405,0.426 0.405,0.419 0.405,0.381 0.405,0.362 0.405,0.356 0.405,0.333 0.405,0.311 0.405,0.303 0.405,0.31 0.405,0.311 0.405,0.318 0.405,0.319 0.405,0.324 0.405,0.336 0.405,0.349 0.405,0.346 0.405,0.333 0.405,0.318 0.405,0.302 0.405,0.298 0.405,0.302 0.405,0.296 0.405,0.276 0.405,0.275 0.405,0.268 0.405,0.257 0.405,0.261 0.405,0.258 0.405,0.268 0.405,0.28 0.405,0.272 0.405,0.255 0.405,0.258 0.405,0.283 0.405,0.288 0.405,0.281 0.405,0.28 0.405,0.27 0.405,0.254 0.405,0.23 0.405,0.22 0.405,0.237 0.405,0.23 0.405,0.222 0.405,0.211 0.405,0.207 0.405,0.223 0.405,0.229 0.405,0.231 0.405,0.226 0.405,0.222 0.405,0.214 0.405,0.194 0.405,0.181 0.405,0.171 0.405,0.154 0.405,0.158 0.405,0.174 0.405,0.172 0.405,0.168 0.405,0.163 0.405,0.162 0.405,0.163 0.405,0.166 0.405,0.173 0.405,0.171 0.405,0.178 0.405,0.181 0.405,0.173 0.405,0.17 0.405,0.165 0.405,0.161 0.405,0.165 0.405,0.159 0.405,0.155 0.405,0.15 0.405,0.121 0.405,0.113 0.405,0.113 0.405,0.096 0.405,0.09 0.405,0.093 0.405,0.099 0.405,0.095 0.405,0.096 0.405,0.093 0.405,0.079 0.405,0.069 0.405,0.072 0.405,0.069 0.405,0.059 0.405,0.06 0.405,0.07 0.405,0.077 0.405,0.091 0.405,0.105 0.405,0.11 0.405,0.11 0.405,0.111 0.405,0.088 0.405,0.07 0.405,0.082 0.405,0.098 0.405,0.112 0.405,0.114 0.405,0.114 0.405,0.114 0.405,0.114 0.405,0.116 0.405,0.127 0.405,0.143 0.405,0.142 0.405,0.12 0.405,0.115 0.405,0.137 0.405,0.148 0.405,0.145 0.405,0.138 0.405,0.134 0.405,0.136 0.405,0.138 0.405,0.141 0.405,0.137 0.405,0.147 0.405,0.152 0.405,0.134 0.405,0.114 0.405,0.106 0.405,0.112 0.405,0.118 0.405,0.122 0.405,0.145 0.405,0.161 0.405,0.157 0.405,0.163 0.405,0.163 0.405,0.167 0.405,0.171 0.405,0.154 0.405,0.155 0.405,0.175 0.405,0.186 0.405,0.197 0.405,0.232 0.405,0.237 0.405,0.22 0.405,0.198 0.405,0.185 0.405,0.196 0.405,0.195 0.405,0.193 0.405,0.188 0.405,0.142 0.405,0.108 0.405,0.103 0.405,0.104 0.405,0.109 0.405,0.1 0.405,0.085 0.405,0.058 0.405,0.051 0.405,0.076 0.405,0.08 0.405,0.067 0.405,0.071 0.405,0.071 0.405,0.076 0.405,0.098 0.405,0.102 0.405,0.031 0.405,0.003 0.405,0.05 0.405,0.067 0.405,0.063 0.405,0.081 0.405,0.113 0.405,0.126 0.405,0.138 0.405,0.133 0.405,0.134 0.405,0.136 0.405,0.137 0.405,0.138 0.405,0.132 0.405,0.126 0.405,0.118 0.405,0.116 0.405,0.116 0.405,0.098 0.405,0.092 0.405,0.11 0.405,0.12 0.405,0.115 0.405,0.115 0.405,0.125 0.405,0.11 0.405,0.093 0.405,0.098 0.405,0.09 0.405,0.085 0.405,0.097 0.405,0.112 0.405,0.118 0.405,0.125 0.405,0.129 0.405,0.124 0.405,0.128 0.405,0.14 0.405,0.144 0.405,0.15 0.405,0.174 0.405,0.186 0.405,0.183 0.405,0.178 0.405,0.178 0.405,0.191 0.405,0.187 0.405,0.163 0.405,0.164 0.405,0.161 0.405,0.15 0.405,0.163 0.405,0.18 0.405,0.168 0.405,0.166 0.405,0.189 0.405,0.209 0.405,0.22 0.405,0.241 0.405,0.249 0.405,0.223 0.405,0.196 0.405,0.168 0.405,0.152 0.405,0.136 0.405,0.113 0.405,0.114 0.405,0.098 0.405,0.062 0.405,0.055 0.405,0.061 0.405,0.051 0.405,0.04 0.405,0.052 0.405,0.061 0.405,0.061 0.405,0.063 0.405,0.083 0.405,0.103 0.405,0.084 0.405,0.05 0.405,0.042 0.405,0.065 0.405,0.086 0.405,0.094 0.405,0.093 0.405,0.093 0.405,0.105 0.405,0.115 0.405,0.107 0.405,0.094 0.405,0.077 0.405,0.083 0.405,0.119 0.405,0.133 0.405,0.111 0.405,0.097 0.405,0.123 0.405,0.163 0.405,0.189 0.405,0.202 0.405,0.205 0.405,0.201 0.405,0.192 0.405,0.183 0.405,0.174 0.405,0.165 0.405,0.176 0.405,0.183 0.405,0.167 0.405,0.168 0.405,0.182 0.405,0.171 0.405,0.177 0.405,0.21 0.405,0.235 0.405,0.229 0.405,0.229 0.405,0.244 0.405,0.239 0.405,0.233 0.405,0.248 0.405,0.274 0.405,0.269 0.405,0.266 0.405,0.26 0.405,0.245 0.405,0.236 0.405,0.212 0.405,0.212 0.405,0.227 0.405,0.22 0.405,0.217 0.405,0.218 0.405,0.216 0.405,0.213 0.405,0.213 0.405,0.231 0.405,0.241 0.405,0.23 0.405,0.222 0.405,0.151 0.405,0.108 0.405,0.134 0.405,0.147 0.405,0.15 0.405,0.152 0.405,0.145 0.405,0.125 0.405,0.134 0.405,0.158 0.405,0.164 0.405,0.168 0.405,0.179 0.405,0.175 0.405,0.174 0.405,0.175 0.405,0.179 0.405,0.184 0.405,0.187 0.405,0.18 0.405,0.169 0.405,0.159 0.405,0.159 0.405,0.174 0.405,0.176 0.405,0.176 0.405,0.164 0.405,0.161 0.405,0.17 0.405,0.151 0.405,0.142 0.405,0.157 0.405,0.151 0.405,0.127 0.405,0.13 0.405,0.152 0.405,0.155 0.405,0.15 0.405,0.154 0.405,0.168 0.405,0.167 0.405,0.183 0.405,0.199 0.405,0.183 0.405,0.161 0.405,0.139 0.405,0.112 0.405,0.104 0.405,0.106 0.405,0.102 0.405,0.097 0.405,0.104 0.405,0.126 0.405,0.122 0.405,0.116 0.405,0.136 0.405,0.162 0.405,0.173 0.405,0.161 0.405,0.154 0.405,0.175 0.405,0.181 0.405,0.149 0.405,0.138 0.405,0.128 0.405,0.122 0.405,0.139 0.405,0.139 0.405,0.144 0.405,0.154 0.405,0.154 0.405,0.146 0.405,0.144 0.405,0.156 0.405,0.181 0.405,0.183 0.405,0.172 0.405,0.146 0.405,0.133 0.405,0.123 0.405,0.127 0.405,0.163 0.405,0.173 0.405,0.177 0.405,0.158 0.405,0.156 0.405,0.188 0.405,0.196 0.405,0.195 0.405,0.192 0.405,0.182 0.405,0.153 0.405,0.146 0.405,0.169 0.405,0.183 0.405,0.183 0.405,0.179 0.405,0.183 0.405,0.184 0.405,0.189 0.405,0.193 0.405,0.185 0.405,0.17 0.405,0.151 0.405,0.163 0.405,0.186 0.405,0.188 0.405,0.183 0.405,0.169 0.405,0.154 0.405,0.151 0.405,0.134 0.405,0.111 0.405,0.113 0.405,0.123 0.405,0.126 0.405,0.132 0.405,0.128 0.405,0.114 0.405,0.107 0.405,0.091 0.405,0.077 0.405,0.08 0.405,0.071 0.405,0.067 0.405,0.08 0.405,0.089 0.405,0.11 0.405,0.116 0.405,0.112 0.405,0.107 0.405,0.104 0.405,0.114 0.405,0.127 0.405,0.145 0.405,0.137 0.405,0.118 0.405,0.126 0.405,0.132 0.405,0.116 0.405,0.109 0.405,0.116 0.405,0.124 0.405,0.116 0.405,0.104 0.405,0.099 0.405,0.071 0.405,0.06 0.405,0.091 0.405,0.115 0.405,0.112 0.405,0.105 0.405,0.114 0.405,0.113 0.405,0.104 0.405,0.09 0.405,0.067 0.405,0.063 0.405,0.065 0.405,0.048 0.405,0.027 0.405,0.038 0.405,0.067 0.405,0.092 0.405,0.095 0.405,0.107 0.405,0.133 0.405,0.157 0.405,0.16 0.405,0.13 0.405,0.1 0.405,0.095 0.405,0.105 0.405,0.114 0.405,0.104 0.405,0.075 0.405,0.045 0.405,0.035 0.405,0.045 0.405,0.053 0.405,0.06 0.405,0.076 0.405,0.074 0.405,0.056 0.405,0.061 0.405,0.091 0.405,0.127 0.405,0.155 0.405,0.165 0.405,0.162 0.405,0.175 0.405,0.201 0.405,0.208 0.405,0.194 0.405,0.191 0.405,0.193 0.405,0.183 0.405,0.172 0.405,0.171 0.405,0.174 0.405,0.166"
       style="fill:none;stroke:#d95319;stroke-width:1.5;stroke-linecap:square;stroke-linejoin:miter;stroke-miterlimit:10;stroke-dasharray:none;stroke-opacity:1"
       id="path6156" /><path
       d="m 270.405,382 0.405,0.605 0.405,0.602 0.405,0.601 0.405,0.625 0.405,0.624 0.405,0.625 0.405,0.613 0.405,0.586 0.405,0.583 0.405,0.59 0.405,0.6 0.405,0.594 0.405,0.575 0.405,0.541 0.405,0.526 0.405,0.538 0.405,0.553 0.405,0.547 0.405,0.51 0.405,0.529 0.405,0.569 0.405,0.574 0.405,0.573 0.405,0.597 0.405,0.584 0.405,0.537 0.405,0.533 0.405,0.528 0.405,0.497 0.405,0.497 0.405,0.483 0.405,0.452 0.405,0.459 0.405,0.467 0.405,0.438 0.405,0.412 0.405,0.407 0.405,0.372 0.405,0.342 0.405,0.331 0.405,0.342 0.405,0.332 0.405,0.314 0.405,0.331 0.405,0.358 0.405,0.359 0.405,0.337 0.405,0.315 0.405,0.306 0.405,0.315 0.405,0.298 0.405,0.295 0.405,0.326 0.405,0.335 0.405,0.331 0.405,0.31 0.405,0.313 0.405,0.359 0.405,0.376 0.405,0.349 0.405,0.311 0.405,0.306 0.405,0.337 0.405,0.353 0.405,0.344 0.405,0.341 0.405,0.331 0.405,0.328 0.405,0.321 0.405,0.309 0.405,0.328 0.405,0.327 0.405,0.298 0.405,0.286 0.405,0.299 0.405,0.324 0.405,0.339 0.405,0.326 0.405,0.306 0.405,0.305 0.405,0.287 0.405,0.249 0.405,0.242 0.405,0.269 0.405,0.26 0.405,0.248 0.405,0.267 0.405,0.26 0.405,0.242 0.405,0.259 0.405,0.278 0.405,0.269 0.405,0.263 0.405,0.254 0.405,0.245 0.405,0.27 0.405,0.289 0.405,0.296 0.405,0.308 0.405,0.304 0.405,0.28 0.405,0.24 0.405,0.204 0.405,0.21 0.405,0.218 0.405,0.23 0.405,0.253 0.405,0.251 0.405,0.252 0.405,0.255 0.405,0.251 0.405,0.269 0.405,0.286 0.405,0.242 0.405,0.238 0.405,0.264 0.405,0.252 0.405,0.23 0.405,0.237 0.405,0.292 0.405,0.322 0.405,0.33 0.405,0.33 0.405,0.341 0.405,0.359 0.405,0.354 0.405,0.362 0.405,0.39 0.405,0.378 0.405,0.342 0.405,0.34 0.405,0.361 0.405,0.384 0.405,0.392 0.405,0.376 0.405,0.377 0.405,0.389 0.405,0.385 0.405,0.358 0.405,0.337 0.405,0.35 0.405,0.354 0.405,0.355 0.405,0.35 0.405,0.341 0.405,0.328 0.405,0.311 0.405,0.27 0.405,0.239 0.405,0.237 0.405,0.227 0.405,0.229 0.405,0.227 0.405,0.223 0.405,0.216 0.405,0.228 0.405,0.241 0.405,0.237 0.405,0.233 0.405,0.224 0.405,0.2 0.405,0.189 0.405,0.176 0.405,0.195 0.405,0.232 0.405,0.231 0.405,0.254 0.405,0.254 0.405,0.219 0.405,0.202 0.405,0.214 0.405,0.246 0.405,0.274 0.405,0.289 0.405,0.279 0.405,0.262 0.405,0.261 0.405,0.283 0.405,0.279 0.405,0.26 0.405,0.235 0.405,0.22 0.405,0.252 0.405,0.262 0.405,0.255 0.405,0.238 0.405,0.212 0.405,0.213 0.405,0.23 0.405,0.251 0.405,0.256 0.405,0.239 0.405,0.232 0.405,0.234 0.405,0.241 0.405,0.261 0.405,0.279 0.405,0.302 0.405,0.306 0.405,0.31 0.405,0.299 0.405,0.293 0.405,0.301 0.405,0.271 0.405,0.252 0.405,0.254 0.405,0.261 0.405,0.251 0.405,0.233 0.405,0.229 0.405,0.25 0.405,0.289 0.405,0.312 0.405,0.318 0.405,0.304 0.405,0.29 0.405,0.277 0.405,0.278 0.405,0.296 0.405,0.292 0.405,0.286 0.405,0.263 0.405,0.239 0.405,0.238 0.405,0.23 0.405,0.248 0.405,0.27 0.405,0.25 0.405,0.262 0.405,0.304 0.405,0.298 0.405,0.285 0.405,0.27 0.405,0.251 0.405,0.257 0.405,0.268 0.405,0.282 0.405,0.298 0.405,0.306 0.405,0.321 0.405,0.327 0.405,0.319 0.405,0.291 0.405,0.321 0.405,0.374 0.405,0.378 0.405,0.4 0.405,0.424 0.405,0.441 0.405,0.456 0.405,0.471 0.405,0.522 0.405,0.527 0.405,0.484 0.405,0.472 0.405,0.458 0.405,0.445 0.405,0.432 0.405,0.389 0.405,0.35 0.405,0.361 0.405,0.386 0.405,0.414 0.405,0.434 0.405,0.403 0.405,0.384 0.405,0.394 0.405,0.35 0.405,0.337 0.405,0.37 0.405,0.382 0.405,0.359 0.405,0.336 0.405,0.349 0.405,0.36 0.405,0.35 0.405,0.361 0.405,0.385 0.405,0.395 0.405,0.393 0.405,0.388 0.405,0.382 0.405,0.371 0.405,0.365 0.405,0.364 0.405,0.369 0.405,0.399 0.405,0.405 0.405,0.394 0.405,0.389 0.405,0.385 0.405,0.374 0.405,0.364 0.405,0.34 0.405,0.292 0.405,0.269 0.405,0.239 0.405,0.235 0.405,0.258 0.405,0.246 0.405,0.229 0.405,0.237 0.405,0.257 0.405,0.261 0.405,0.237 0.405,0.23 0.405,0.225 0.405,0.209 0.405,0.228 0.405,0.243 0.405,0.25 0.405,0.246 0.405,0.236 0.405,0.222 0.405,0.208 0.405,0.226 0.405,0.212 0.405,0.197 0.405,0.213 0.405,0.21 0.405,0.224 0.405,0.237 0.405,0.24 0.405,0.247 0.405,0.213 0.405,0.183 0.405,0.196 0.405,0.216 0.405,0.224 0.405,0.226 0.405,0.222 0.405,0.206 0.405,0.203 0.405,0.174 0.405,0.122 0.405,0.095 0.405,0.077 0.405,0.071 0.405,0.098 0.405,0.127 0.405,0.143 0.405,0.123 0.405,0.122 0.405,0.143 0.405,0.142 0.405,0.161 0.405,0.169 0.405,0.161 0.405,0.163 0.405,0.16 0.405,0.147 0.405,0.136 0.405,0.127 0.405,0.132 0.405,0.14 0.405,0.158 0.405,0.179 0.405,0.179 0.405,0.173 0.405,0.18 0.405,0.199 0.405,0.225 0.405,0.258 0.405,0.259 0.405,0.266 0.405,0.295 0.405,0.273 0.405,0.238 0.405,0.225 0.405,0.241 0.405,0.273 0.405,0.27 0.405,0.261 0.405,0.295 0.405,0.297 0.405,0.263 0.405,0.245 0.405,0.24 0.405,0.226 0.405,0.219 0.405,0.234 0.405,0.22 0.405,0.217 0.405,0.218 0.405,0.207 0.405,0.191 0.405,0.175 0.405,0.148 0.405,0.135 0.405,0.155 0.405,0.187 0.405,0.217 0.405,0.205 0.405,0.186 0.405,0.184 0.405,0.197 0.405,0.191 0.405,0.158 0.405,0.146 0.405,0.135 0.405,0.135 0.405,0.136 0.405,0.125 0.405,0.144 0.405,0.164 0.405,0.176 0.405,0.158 0.405,0.131 0.405,0.13 0.405,0.14 0.405,0.16 0.405,0.167 0.405,0.162 0.405,0.153 0.405,0.141 0.405,0.133 0.405,0.15 0.405,0.167 0.405,0.159 0.405,0.146 0.405,0.128 0.405,0.116 0.405,0.08 0.405,0.06 0.405,0.069 0.405,0.072 0.405,0.086 0.405,0.117 0.405,0.135 0.405,0.13 0.405,0.145 0.405,0.159 0.405,0.146 0.405,0.146 0.405,0.166 0.405,0.151 0.405,0.126 0.405,0.129 0.405,0.143 0.405,0.172 0.405,0.211 0.405,0.238 0.405,0.246 0.405,0.239 0.405,0.242 0.405,0.249 0.405,0.253 0.405,0.246 0.405,0.25 0.405,0.278 0.405,0.266 0.405,0.235 0.405,0.245 0.405,0.258 0.405,0.235 0.405,0.23 0.405,0.231 0.405,0.23 0.405,0.255 0.405,0.255 0.405,0.233 0.405,0.237 0.405,0.231 0.405,0.196 0.405,0.164 0.405,0.142 0.405,0.144 0.405,0.141 0.405,0.161 0.405,0.192 0.405,0.188 0.405,0.16 0.405,0.105 0.405,0.105 0.405,0.127 0.405,0.124 0.405,0.147 0.405,0.175 0.405,0.179 0.405,0.17 0.405,0.18 0.405,0.213 0.405,0.214 0.405,0.21 0.405,0.231 0.405,0.21 0.405,0.158 0.405,0.144 0.405,0.165 0.405,0.188 0.405,0.18 0.405,0.154 0.405,0.162 0.405,0.166 0.405,0.146 0.405,0.159 0.405,0.172 0.405,0.162 0.405,0.172 0.405,0.175 0.405,0.173 0.405,0.191 0.405,0.227 0.405,0.225 0.405,0.221 0.405,0.241 0.405,0.238 0.405,0.237 0.405,0.233 0.405,0.223 0.405,0.244 0.405,0.272 0.405,0.302 0.405,0.323 0.405,0.276 0.405,0.27 0.405,0.31 0.405,0.313 0.405,0.309 0.405,0.287 0.405,0.283 0.405,0.299 0.405,0.298 0.405,0.271 0.405,0.238 0.405,0.238 0.405,0.255 0.405,0.245 0.405,0.227 0.405,0.223 0.405,0.24 0.405,0.222 0.405,0.204 0.405,0.227 0.405,0.242 0.405,0.223 0.405,0.193 0.405,0.204 0.405,0.255 0.405,0.271 0.405,0.241 0.405,0.243 0.405,0.265 0.405,0.272 0.405,0.262 0.405,0.247 0.405,0.251 0.405,0.248 0.405,0.235 0.405,0.247 0.405,0.251 0.405,0.25 0.405,0.255 0.405,0.261 0.405,0.276 0.405,0.267 0.405,0.253 0.405,0.255"
       style="fill:none;stroke:#edb120;stroke-width:1.5;stroke-linecap:square;stroke-linejoin:miter;stroke-miterlimit:10;stroke-dasharray:none;stroke-opacity:1"
       id="path6158" /><path
       d="m 270.405,382 0.405,0.603 0.405,0.659 0.405,0.662 0.405,0.621 0.405,0.615 0.405,0.589 0.405,0.541 0.405,0.506 0.405,0.522 0.405,0.54 0.405,0.539 0.405,0.568 0.405,0.573 0.405,0.532 0.405,0.505 0.405,0.515 0.405,0.524 0.405,0.479 0.405,0.426 0.405,0.419 0.405,0.36 0.405,0.34 0.405,0.375 0.405,0.39 0.405,0.403 0.405,0.377 0.405,0.331 0.405,0.313 0.405,0.348 0.405,0.358 0.405,0.352 0.405,0.373 0.405,0.386 0.405,0.403 0.405,0.406 0.405,0.384 0.405,0.374 0.405,0.393 0.405,0.382 0.405,0.399 0.405,0.383 0.405,0.306 0.405,0.288 0.405,0.32 0.405,0.349 0.405,0.395 0.405,0.397 0.405,0.342 0.405,0.337 0.405,0.339 0.405,0.342 0.405,0.333 0.405,0.354 0.405,0.387 0.405,0.392 0.405,0.403 0.405,0.419 0.405,0.455 0.405,0.446 0.405,0.39 0.405,0.35 0.405,0.338 0.405,0.342 0.405,0.342 0.405,0.31 0.405,0.278 0.405,0.271 0.405,0.273 0.405,0.286 0.405,0.306 0.405,0.279 0.405,0.274 0.405,0.315 0.405,0.343 0.405,0.359 0.405,0.339 0.405,0.288 0.405,0.28 0.405,0.325 0.405,0.357 0.405,0.396 0.405,0.418 0.405,0.411 0.405,0.428 0.405,0.431 0.405,0.448 0.405,0.491 0.405,0.533 0.405,0.522 0.405,0.53 0.405,0.588 0.405,0.542 0.405,0.504 0.405,0.473 0.405,0.426 0.405,0.451 0.405,0.452 0.405,0.479 0.405,0.539 0.405,0.556 0.405,0.539 0.405,0.537 0.405,0.509 0.405,0.444 0.405,0.419 0.405,0.418 0.405,0.412 0.405,0.387 0.405,0.394 0.405,0.423 0.405,0.372 0.405,0.331 0.405,0.345 0.405,0.386 0.405,0.401 0.405,0.368 0.405,0.313 0.405,0.254 0.405,0.297 0.405,0.356 0.405,0.348 0.405,0.33 0.405,0.341 0.405,0.378 0.405,0.397 0.405,0.386 0.405,0.395 0.405,0.386 0.405,0.38 0.405,0.413 0.405,0.417 0.405,0.416 0.405,0.424 0.405,0.41 0.405,0.389 0.405,0.391 0.405,0.4 0.405,0.399 0.405,0.4 0.405,0.393 0.405,0.345 0.405,0.353 0.405,0.36 0.405,0.348 0.405,0.386 0.405,0.37 0.405,0.349 0.405,0.355 0.405,0.326 0.405,0.342 0.405,0.377 0.405,0.366 0.405,0.366 0.405,0.365 0.405,0.395 0.405,0.405 0.405,0.365 0.405,0.419 0.405,0.485 0.405,0.469 0.405,0.465 0.405,0.482 0.405,0.505 0.405,0.46 0.405,0.388 0.405,0.365 0.405,0.436 0.405,0.504 0.405,0.487 0.405,0.459 0.405,0.437 0.405,0.417 0.405,0.427 0.405,0.422 0.405,0.398 0.405,0.405 0.405,0.417 0.405,0.417 0.405,0.407 0.405,0.423 0.405,0.39 0.405,0.352 0.405,0.371 0.405,0.371 0.405,0.369 0.405,0.392 0.405,0.394 0.405,0.42 0.405,0.437 0.405,0.439 0.405,0.434 0.405,0.44 0.405,0.467 0.405,0.497 0.405,0.559 0.405,0.558 0.405,0.521 0.405,0.456 0.405,0.405 0.405,0.421 0.405,0.433 0.405,0.432 0.405,0.424 0.405,0.409 0.405,0.398 0.405,0.377 0.405,0.381 0.405,0.415 0.405,0.411 0.405,0.362 0.405,0.362 0.405,0.391 0.405,0.37 0.405,0.385 0.405,0.396 0.405,0.434 0.405,0.453 0.405,0.467 0.405,0.497 0.405,0.477 0.405,0.45 0.405,0.423 0.405,0.472 0.405,0.474 0.405,0.457 0.405,0.407 0.405,0.355 0.405,0.402 0.405,0.434 0.405,0.458 0.405,0.491 0.405,0.456 0.405,0.429 0.405,0.416 0.405,0.411 0.405,0.452 0.405,0.47 0.405,0.442 0.405,0.425 0.405,0.434 0.405,0.419 0.405,0.432 0.405,0.479 0.405,0.49 0.405,0.467 0.405,0.415 0.405,0.381 0.405,0.353 0.405,0.339 0.405,0.32 0.405,0.308 0.405,0.339 0.405,0.352 0.405,0.361 0.405,0.395 0.405,0.421 0.405,0.412 0.405,0.36 0.405,0.333 0.405,0.35 0.405,0.367 0.405,0.382 0.405,0.386 0.405,0.376 0.405,0.358 0.405,0.344 0.405,0.327 0.405,0.327 0.405,0.356 0.405,0.401 0.405,0.453 0.405,0.445 0.405,0.406 0.405,0.407 0.405,0.451 0.405,0.462 0.405,0.422 0.405,0.374 0.405,0.351 0.405,0.353 0.405,0.374 0.405,0.35 0.405,0.312 0.405,0.326 0.405,0.308 0.405,0.279 0.405,0.314 0.405,0.368 0.405,0.387 0.405,0.406 0.405,0.414 0.405,0.4 0.405,0.415 0.405,0.469 0.405,0.476 0.405,0.423 0.405,0.378 0.405,0.387 0.405,0.372 0.405,0.357 0.405,0.381 0.405,0.394 0.405,0.417 0.405,0.431 0.405,0.439 0.405,0.422 0.405,0.421 0.405,0.458 0.405,0.485 0.405,0.495 0.405,0.519 0.405,0.51 0.405,0.471 0.405,0.493 0.405,0.543 0.405,0.555 0.405,0.552 0.405,0.559 0.405,0.548 0.405,0.518 0.405,0.503 0.405,0.509 0.405,0.503 0.405,0.522 0.405,0.508 0.405,0.452 0.405,0.421 0.405,0.381 0.405,0.394 0.405,0.436 0.405,0.4 0.405,0.404 0.405,0.493 0.405,0.497 0.405,0.422 0.405,0.45 0.405,0.513 0.405,0.477 0.405,0.462 0.405,0.467 0.405,0.407 0.405,0.375 0.405,0.428 0.405,0.458 0.405,0.457 0.405,0.46 0.405,0.432 0.405,0.451 0.405,0.48 0.405,0.446 0.405,0.41 0.405,0.418 0.405,0.43 0.405,0.43 0.405,0.42 0.405,0.407 0.405,0.378 0.405,0.343 0.405,0.365 0.405,0.385 0.405,0.379 0.405,0.395 0.405,0.394 0.405,0.417 0.405,0.388 0.405,0.353 0.405,0.391 0.405,0.417 0.405,0.381 0.405,0.351 0.405,0.423 0.405,0.453 0.405,0.44 0.405,0.408 0.405,0.335 0.405,0.332 0.405,0.416 0.405,0.458 0.405,0.474 0.405,0.489 0.405,0.464 0.405,0.394 0.405,0.346 0.405,0.403 0.405,0.461 0.405,0.452 0.405,0.429 0.405,0.367 0.405,0.302 0.405,0.337 0.405,0.398 0.405,0.376 0.405,0.331 0.405,0.299 0.405,0.324 0.405,0.374 0.405,0.343 0.405,0.323 0.405,0.345 0.405,0.335 0.405,0.378 0.405,0.438 0.405,0.444 0.405,0.417 0.405,0.389 0.405,0.453 0.405,0.476 0.405,0.447 0.405,0.445 0.405,0.454 0.405,0.465 0.405,0.466 0.405,0.471 0.405,0.468 0.405,0.464 0.405,0.475 0.405,0.454 0.405,0.39 0.405,0.403 0.405,0.453 0.405,0.402 0.405,0.403 0.405,0.466 0.405,0.415 0.405,0.381 0.405,0.431 0.405,0.477 0.405,0.525 0.405,0.56 0.405,0.546 0.405,0.476 0.405,0.423 0.405,0.393 0.405,0.382 0.405,0.382 0.405,0.366 0.405,0.365 0.405,0.388 0.405,0.419 0.405,0.419 0.405,0.392 0.405,0.372 0.405,0.325 0.405,0.294 0.405,0.351 0.405,0.362 0.405,0.316 0.405,0.253 0.405,0.204 0.405,0.237 0.405,0.309 0.405,0.294 0.405,0.267 0.405,0.348 0.405,0.373 0.405,0.341 0.405,0.349 0.405,0.366 0.405,0.359 0.405,0.349 0.405,0.348 0.405,0.327 0.405,0.308 0.405,0.291 0.405,0.291 0.405,0.338 0.405,0.399 0.405,0.445 0.405,0.459 0.405,0.435 0.405,0.454 0.405,0.457 0.405,0.384 0.405,0.358 0.405,0.357 0.405,0.363 0.405,0.38 0.405,0.375 0.405,0.384 0.405,0.413 0.405,0.45 0.405,0.494 0.405,0.501 0.405,0.562 0.405,0.563 0.405,0.549 0.405,0.593 0.405,0.556 0.405,0.532 0.405,0.544 0.405,0.542"
       style="fill:none;stroke:#7e2f8e;stroke-width:1.5;stroke-linecap:square;stroke-linejoin:miter;stroke-miterlimit:10;stroke-dasharray:none;stroke-opacity:1"
       id="path6160" /><path
       d="m 270.405,382 0.405,0.575 0.405,0.611 0.405,0.556 0.405,0.517 0.405,0.433 0.405,0.385 0.405,0.439 0.405,0.476 0.405,0.559 0.405,0.585 0.405,0.589 0.405,0.563 0.405,0.599 0.405,0.673 0.405,0.676 0.405,0.657 0.405,0.485 0.405,0.4 0.405,0.49 0.405,0.585 0.405,0.568 0.405,0.5 0.405,0.557 0.405,0.599 0.405,0.569 0.405,0.559 0.405,0.538 0.405,0.463 0.405,0.424 0.405,0.416 0.405,0.367 0.405,0.414 0.405,0.452 0.405,0.406 0.405,0.409 0.405,0.431 0.405,0.413 0.405,0.448 0.405,0.486 0.405,0.444 0.405,0.433 0.405,0.467 0.405,0.47 0.405,0.429 0.405,0.414 0.405,0.475 0.405,0.511 0.405,0.495 0.405,0.437 0.405,0.356 0.405,0.38 0.405,0.483 0.405,0.58 0.405,0.688 0.405,0.716 0.405,0.638 0.405,0.608 0.405,0.521 0.405,0.462 0.405,0.51 0.405,0.541 0.405,0.569 0.405,0.583 0.405,0.594 0.405,0.548 0.405,0.515 0.405,0.564 0.405,0.614 0.405,0.556 0.405,0.461 0.405,0.438 0.405,0.416 0.405,0.438 0.405,0.436 0.405,0.372 0.405,0.416 0.405,0.469 0.405,0.369 0.405,0.375 0.405,0.495 0.405,0.52 0.405,0.517 0.405,0.535 0.405,0.532 0.405,0.508 0.405,0.51 0.405,0.542 0.405,0.519 0.405,0.48 0.405,0.406 0.405,0.372 0.405,0.388 0.405,0.337 0.405,0.382 0.405,0.412 0.405,0.36 0.405,0.441 0.405,0.492 0.405,0.428 0.405,0.41 0.405,0.415 0.405,0.43 0.405,0.456 0.405,0.464 0.405,0.431 0.405,0.386 0.405,0.421 0.405,0.447 0.405,0.415 0.405,0.363 0.405,0.379 0.405,0.408 0.405,0.35 0.405,0.339 0.405,0.328 0.405,0.274 0.405,0.286 0.405,0.351 0.405,0.354 0.405,0.315 0.405,0.324 0.405,0.355 0.405,0.399 0.405,0.405 0.405,0.366 0.405,0.402 0.405,0.466 0.405,0.501 0.405,0.497 0.405,0.444 0.405,0.411 0.405,0.338 0.405,0.323 0.405,0.374 0.405,0.421 0.405,0.513 0.405,0.608 0.405,0.605 0.405,0.543 0.405,0.493 0.405,0.446 0.405,0.371 0.405,0.315 0.405,0.349 0.405,0.422 0.405,0.511 0.405,0.462 0.405,0.453 0.405,0.515 0.405,0.507 0.405,0.453 0.405,0.382 0.405,0.362 0.405,0.308 0.405,0.282 0.405,0.306 0.405,0.273 0.405,0.298 0.405,0.375 0.405,0.456 0.405,0.47 0.405,0.395 0.405,0.36 0.405,0.4 0.405,0.459 0.405,0.402 0.405,0.376 0.405,0.37 0.405,0.368 0.405,0.447 0.405,0.476 0.405,0.52 0.405,0.524 0.405,0.481 0.405,0.51 0.405,0.536 0.405,0.519 0.405,0.53 0.405,0.618 0.405,0.635 0.405,0.588 0.405,0.548 0.405,0.571 0.405,0.577 0.405,0.496 0.405,0.531 0.405,0.528 0.405,0.513 0.405,0.528 0.405,0.486 0.405,0.44 0.405,0.376 0.405,0.396 0.405,0.452 0.405,0.481 0.405,0.395 0.405,0.327 0.405,0.407 0.405,0.469 0.405,0.498 0.405,0.524 0.405,0.432 0.405,0.337 0.405,0.366 0.405,0.37 0.405,0.349 0.405,0.364 0.405,0.335 0.405,0.275 0.405,0.314 0.405,0.36 0.405,0.347 0.405,0.358 0.405,0.339 0.405,0.328 0.405,0.319 0.405,0.357 0.405,0.436 0.405,0.414 0.405,0.378 0.405,0.358 0.405,0.327 0.405,0.309 0.405,0.348 0.405,0.351 0.405,0.307 0.405,0.318 0.405,0.377 0.405,0.393 0.405,0.411 0.405,0.402 0.405,0.398 0.405,0.394 0.405,0.352 0.405,0.396 0.405,0.435 0.405,0.474 0.405,0.437 0.405,0.392 0.405,0.413 0.405,0.35 0.405,0.339 0.405,0.376 0.405,0.323 0.405,0.323 0.405,0.361 0.405,0.326 0.405,0.356 0.405,0.369 0.405,0.325 0.405,0.337 0.405,0.319 0.405,0.296 0.405,0.394 0.405,0.439 0.405,0.399 0.405,0.368 0.405,0.343 0.405,0.346 0.405,0.349 0.405,0.363 0.405,0.368 0.405,0.353 0.405,0.323 0.405,0.366 0.405,0.392 0.405,0.366 0.405,0.393 0.405,0.406 0.405,0.426 0.405,0.483 0.405,0.5 0.405,0.448 0.405,0.415 0.405,0.486 0.405,0.499 0.405,0.442 0.405,0.394 0.405,0.381 0.405,0.408 0.405,0.432 0.405,0.487 0.405,0.514 0.405,0.459 0.405,0.354 0.405,0.401 0.405,0.488 0.405,0.523 0.405,0.514 0.405,0.516 0.405,0.557 0.405,0.541 0.405,0.532 0.405,0.53 0.405,0.474 0.405,0.456 0.405,0.548 0.405,0.582 0.405,0.533 0.405,0.482 0.405,0.471 0.405,0.531 0.405,0.545 0.405,0.47 0.405,0.416 0.405,0.433 0.405,0.496 0.405,0.521 0.405,0.527 0.405,0.509 0.405,0.489 0.405,0.565 0.405,0.561 0.405,0.468 0.405,0.47 0.405,0.464 0.405,0.465 0.405,0.44 0.405,0.423 0.405,0.47 0.405,0.481 0.405,0.476 0.405,0.464 0.405,0.442 0.405,0.45 0.405,0.519 0.405,0.575 0.405,0.567 0.405,0.556 0.405,0.52 0.405,0.516 0.405,0.55 0.405,0.502 0.405,0.477 0.405,0.461 0.405,0.466 0.405,0.401 0.405,0.292 0.405,0.357 0.405,0.372 0.405,0.36 0.405,0.389 0.405,0.399 0.405,0.468 0.405,0.422 0.405,0.356 0.405,0.365 0.405,0.344 0.405,0.315 0.405,0.369 0.405,0.408 0.405,0.387 0.405,0.397 0.405,0.387 0.405,0.394 0.405,0.392 0.405,0.36 0.405,0.392 0.405,0.432 0.405,0.401 0.405,0.409 0.405,0.422 0.405,0.395 0.405,0.348 0.405,0.385 0.405,0.399 0.405,0.315 0.405,0.337 0.405,0.433 0.405,0.474 0.405,0.434 0.405,0.388 0.405,0.443 0.405,0.471 0.405,0.371 0.405,0.346 0.405,0.413 0.405,0.466 0.405,0.456 0.405,0.478 0.405,0.577 0.405,0.53 0.405,0.43 0.405,0.395 0.405,0.398 0.405,0.351 0.405,0.298 0.405,0.36 0.405,0.404 0.405,0.378 0.405,0.363 0.405,0.442 0.405,0.455 0.405,0.407 0.405,0.501 0.405,0.566 0.405,0.479 0.405,0.463 0.405,0.477 0.405,0.462 0.405,0.487 0.405,0.506 0.405,0.558 0.405,0.53 0.405,0.521 0.405,0.484 0.405,0.433 0.405,0.414 0.405,0.426 0.405,0.474 0.405,0.491 0.405,0.511 0.405,0.484 0.405,0.461 0.405,0.446 0.405,0.404 0.405,0.398 0.405,0.435 0.405,0.368 0.405,0.297 0.405,0.334 0.405,0.338 0.405,0.377 0.405,0.444 0.405,0.481 0.405,0.474 0.405,0.374 0.405,0.29 0.405,0.3 0.405,0.354 0.405,0.378 0.405,0.382 0.405,0.355 0.405,0.355 0.405,0.338 0.405,0.321 0.405,0.317 0.405,0.313 0.405,0.374 0.405,0.4 0.405,0.406 0.405,0.45 0.405,0.552 0.405,0.56 0.405,0.477 0.405,0.455 0.405,0.433 0.405,0.454 0.405,0.511 0.405,0.514 0.405,0.443 0.405,0.409 0.405,0.422 0.405,0.433 0.405,0.392 0.405,0.368 0.405,0.418 0.405,0.451 0.405,0.475 0.405,0.455 0.405,0.416 0.405,0.442 0.405,0.469 0.405,0.427 0.405,0.461 0.405,0.518 0.405,0.474 0.405,0.421 0.405,0.438 0.405,0.491 0.405,0.49 0.405,0.415 0.405,0.339 0.405,0.383 0.405,0.494 0.405,0.508 0.405,0.5"
       style="fill:none;stroke:#77ac30;stroke-width:1.5;stroke-linecap:square;stroke-linejoin:miter;stroke-miterlimit:10;stroke-dasharray:none;stroke-opacity:1"
       id="path6162" /><path
       d="m 270.337,382 0.338,0.413 0.338,0.391 0.337,0.388 0.338,0.344 0.337,0.373 0.337,0.4 0.338,0.355 0.338,0.393 0.337,0.474 0.338,0.442 0.337,0.459 0.337,0.54 0.338,0.489 0.338,0.453 0.337,0.461 0.338,0.424 0.337,0.375 0.337,0.346 0.338,0.355 0.337,0.359 0.338,0.355 0.338,0.37 0.337,0.389 0.338,0.398 0.337,0.351 0.337,0.346 0.338,0.364 0.338,0.416 0.337,0.488 0.337,0.433 0.338,0.428 0.338,0.402 0.337,0.359 0.338,0.371 0.337,0.327 0.337,0.302 0.338,0.348 0.338,0.408 0.337,0.454 0.338,0.465 0.337,0.406 0.337,0.46 0.338,0.448 0.338,0.314 0.337,0.323 0.338,0.35 0.337,0.324 0.337,0.316 0.338,0.36 0.337,0.39 0.338,0.37 0.338,0.377 0.337,0.409 0.338,0.423 0.337,0.463 0.337,0.46 0.338,0.424 0.338,0.364 0.337,0.328 0.337,0.346 0.338,0.341 0.338,0.373 0.337,0.352 0.338,0.34 0.337,0.376 0.337,0.377 0.338,0.34 0.338,0.354 0.337,0.341 0.338,0.346 0.337,0.342 0.337,0.314 0.338,0.323 0.338,0.334 0.337,0.39 0.338,0.405 0.337,0.463 0.337,0.444 0.338,0.354 0.337,0.317 0.338,0.308 0.338,0.337 0.337,0.422 0.338,0.414 0.337,0.396 0.337,0.445 0.338,0.41 0.338,0.428 0.337,0.421 0.337,0.385 0.338,0.403 0.338,0.439 0.337,0.429 0.338,0.377 0.337,0.358 0.337,0.344 0.338,0.367 0.338,0.377 0.337,0.365 0.338,0.319 0.337,0.333 0.337,0.416 0.338,0.366 0.338,0.316 0.337,0.368 0.338,0.387 0.337,0.39 0.337,0.387 0.338,0.371 0.337,0.379 0.338,0.356 0.338,0.341 0.337,0.348 0.338,0.315 0.337,0.311 0.337,0.337 0.338,0.359 0.338,0.386 0.337,0.347 0.337,0.295 0.338,0.312 0.338,0.311 0.337,0.291 0.338,0.312 0.337,0.33 0.337,0.351 0.338,0.401 0.338,0.342 0.337,0.313 0.338,0.39 0.337,0.432 0.337,0.4 0.338,0.365 0.338,0.333 0.337,0.333 0.338,0.424 0.337,0.399 0.337,0.337 0.338,0.378 0.337,0.418 0.338,0.435 0.338,0.478 0.337,0.508 0.338,0.502 0.337,0.436 0.337,0.409 0.338,0.39 0.338,0.343 0.337,0.389 0.337,0.383 0.338,0.312 0.338,0.358 0.337,0.379 0.338,0.353 0.337,0.404 0.337,0.415 0.338,0.369 0.338,0.308 0.337,0.379 0.338,0.445 0.337,0.422 0.337,0.455 0.338,0.484 0.338,0.49 0.337,0.463 0.338,0.404 0.337,0.413 0.337,0.431 0.338,0.39 0.337,0.334 0.338,0.31 0.338,0.313 0.337,0.357 0.338,0.397 0.337,0.361 0.337,0.338 0.338,0.371 0.338,0.428 0.337,0.522 0.337,0.453 0.338,0.282 0.338,0.273 0.337,0.388 0.338,0.461 0.337,0.426 0.337,0.439 0.338,0.49 0.338,0.454 0.337,0.422 0.338,0.454 0.337,0.443 0.337,0.441 0.338,0.385 0.338,0.324 0.337,0.317 0.338,0.285 0.337,0.308 0.337,0.335 0.338,0.323 0.337,0.318 0.338,0.368 0.338,0.425 0.337,0.445 0.338,0.424 0.337,0.337 0.337,0.325 0.338,0.384 0.338,0.408 0.337,0.332 0.337,0.375 0.338,0.463 0.338,0.385 0.337,0.358 0.338,0.342 0.337,0.368 0.337,0.406 0.338,0.364 0.338,0.333 0.337,0.383 0.338,0.439 0.337,0.466 0.337,0.5 0.338,0.487 0.338,0.466 0.337,0.427 0.338,0.407 0.337,0.422 0.337,0.481 0.338,0.504 0.337,0.482 0.338,0.461 0.338,0.41 0.337,0.418 0.338,0.444 0.337,0.474 0.337,0.456 0.338,0.403 0.338,0.389 0.337,0.412 0.337,0.393 0.338,0.36 0.338,0.367 0.337,0.347 0.338,0.33 0.337,0.347 0.337,0.407 0.338,0.437 0.338,0.408 0.337,0.373 0.338,0.41 0.337,0.473 0.337,0.473 0.338,0.403 0.338,0.299 0.337,0.327 0.338,0.37 0.337,0.32 0.337,0.382 0.338,0.443 0.337,0.373 0.338,0.327 0.338,0.361 0.337,0.393 0.338,0.325 0.337,0.292 0.337,0.332 0.338,0.327 0.338,0.323 0.337,0.349 0.337,0.354 0.338,0.4 0.338,0.387 0.337,0.311 0.338,0.267 0.337,0.266 0.337,0.342 0.338,0.322 0.338,0.298 0.337,0.382 0.338,0.376 0.337,0.333 0.337,0.396 0.338,0.444 0.338,0.369 0.337,0.435 0.338,0.446 0.337,0.316 0.337,0.266 0.338,0.257 0.337,0.32 0.338,0.353 0.338,0.311 0.337,0.284 0.338,0.3 0.337,0.293 0.337,0.299 0.338,0.379 0.338,0.395 0.337,0.388 0.337,0.458 0.338,0.451 0.338,0.366 0.337,0.364 0.338,0.36 0.337,0.351 0.337,0.412 0.338,0.417 0.338,0.444 0.337,0.372 0.337,0.313 0.338,0.393 0.337,0.404 0.338,0.425 0.338,0.439 0.337,0.355 0.338,0.286 0.337,0.258 0.338,0.225 0.337,0.271 0.337,0.354 0.338,0.381 0.338,0.45 0.337,0.447 0.338,0.397 0.337,0.418 0.337,0.402 0.338,0.379 0.338,0.369 0.337,0.35 0.337,0.355 0.338,0.433 0.338,0.502 0.337,0.482 0.338,0.5 0.337,0.504 0.337,0.5 0.338,0.457 0.338,0.346 0.337,0.327 0.337,0.357 0.338,0.386 0.337,0.407 0.338,0.371 0.338,0.354 0.337,0.394 0.338,0.355 0.337,0.301 0.338,0.299 0.337,0.289 0.337,0.298 0.338,0.339 0.338,0.337 0.337,0.343 0.338,0.415 0.337,0.473 0.337,0.394 0.338,0.31 0.338,0.358 0.337,0.342 0.337,0.344 0.338,0.421 0.338,0.443 0.337,0.504 0.338,0.565 0.337,0.485 0.337,0.373 0.338,0.369 0.338,0.425 0.337,0.399 0.337,0.366 0.338,0.376 0.337,0.442 0.338,0.474 0.338,0.449 0.337,0.416 0.338,0.35 0.337,0.365 0.338,0.334 0.337,0.27 0.337,0.294 0.338,0.363 0.338,0.468 0.337,0.537 0.338,0.463 0.337,0.404 0.337,0.474 0.338,0.508 0.338,0.428 0.337,0.372 0.337,0.381 0.338,0.345 0.338,0.37 0.337,0.444 0.338,0.411 0.337,0.357 0.337,0.335 0.338,0.303 0.338,0.281 0.337,0.345 0.337,0.392 0.338,0.347 0.337,0.366 0.338,0.409 0.338,0.412 0.337,0.476 0.338,0.447 0.337,0.357 0.338,0.331 0.337,0.319 0.337,0.351 0.338,0.396 0.338,0.426 0.337,0.447 0.338,0.478 0.337,0.452 0.337,0.4 0.338,0.419 0.338,0.42 0.337,0.407 0.337,0.407 0.338,0.409 0.338,0.432 0.337,0.429 0.338,0.443 0.337,0.493 0.337,0.483 0.338,0.407 0.338,0.373 0.337,0.352 0.337,0.354 0.338,0.445 0.337,0.507 0.338,0.457 0.338,0.4 0.337,0.344 0.338,0.345 0.337,0.44 0.338,0.491 0.337,0.45 0.337,0.446 0.338,0.376 0.338,0.33 0.337,0.42 0.338,0.441 0.337,0.364 0.337,0.347 0.338,0.362 0.338,0.304 0.337,0.363 0.337,0.429 0.338,0.475 0.338,0.441 0.337,0.357 0.338,0.411 0.337,0.408 0.337,0.315 0.338,0.3 0.338,0.383 0.337,0.423 0.337,0.397 0.338,0.331 0.337,0.343 0.338,0.387 0.338,0.388 0.337,0.377 0.338,0.366 0.337,0.443 0.338,0.452 0.337,0.422 0.337,0.447 0.338,0.403 0.338,0.35 0.337,0.325 0.338,0.331 0.337,0.391 0.337,0.479 0.338,0.506 0.338,0.467 0.337,0.494 0.337,0.488 0.338,0.467 0.338,0.478 0.337,0.484 0.338,0.495 0.337,0.468 0.337,0.438 0.338,0.453 0.338,0.439 0.337,0.392 0.337,0.385 0.338,0.446 0.337,0.441 0.338,0.376 0.338,0.325 0.337,0.319 0.338,0.369 0.337,0.41"
       style="fill:none;stroke:#4dbeee;stroke-width:1.5;stroke-linecap:square;stroke-linejoin:miter;stroke-miterlimit:10;stroke-dasharray:none;stroke-opacity:1"
       id="path6164" /><path
       d="m 280,500 79,0 0,85 -79,0 0,-85 z"
       style="fill:#ffffff;fill-opacity:1;fill-rule:nonzero;stroke:none"
       id="path6166" /><g
       id="g6168"><text
         transform="matrix(1,0,0,-1,319,575)"
         style="font-variant:normal;font-weight:normal;font-size:9px;font-family:mwb_cmmi10;-inkscape-font-specification:mwb_cmmi10;writing-mode:lr-tb;fill:#404040;fill-opacity:1;fill-rule:nonzero;stroke:none"
         id="text6170"><tspan
           x="0"
           y="0"
           id="tspan6172"></tspan></text>
<text
         transform="matrix(1,0,0,-1,323,571)"
         style="font-variant:normal;font-weight:normal;font-size:7px;font-family:Times;-inkscape-font-specification:Times-Roman;writing-mode:lr-tb;fill:#404040;fill-opacity:1;fill-rule:nonzero;stroke:none"
         id="text6174"><tspan
           x="0"
           y="0"
           id="tspan6176">r</tspan></text>
<text
         transform="matrix(1,0,0,-1,328.25,575)"
         style="font-variant:normal;font-weight:normal;font-size:9px;font-family:Times;-inkscape-font-specification:Times-Roman;writing-mode:lr-tb;fill:#404040;fill-opacity:1;fill-rule:nonzero;stroke:none"
         id="text6178"><tspan
           x="0 5.0760002 7.3260002 11.826 16.326 20.826"
           y="0"
           id="tspan6180">= 1000</tspan></text>
</g><path
       d="m 286,576.45 30,0"
       style="fill:none;stroke:#0072bd;stroke-width:1.5;stroke-linecap:square;stroke-linejoin:miter;stroke-miterlimit:10;stroke-dasharray:none;stroke-opacity:1"
       id="path6182" /><g
       id="g6184"><text
         transform="matrix(1,0,0,-1,319,561)"
         style="font-variant:normal;font-weight:normal;font-size:9px;font-family:mwb_cmmi10;-inkscape-font-specification:mwb_cmmi10;writing-mode:lr-tb;fill:#404040;fill-opacity:1;fill-rule:nonzero;stroke:none"
         id="text6186"><tspan
           x="0"
           y="0"
           id="tspan6188"></tspan></text>
<text
         transform="matrix(1,0,0,-1,323,557)"
         style="font-variant:normal;font-weight:normal;font-size:7px;font-family:Times;-inkscape-font-specification:Times-Roman;writing-mode:lr-tb;fill:#404040;fill-opacity:1;fill-rule:nonzero;stroke:none"
         id="text6190"><tspan
           x="0"
           y="0"
           id="tspan6192">r</tspan></text>
<text
         transform="matrix(1,0,0,-1,328.25,561)"
         style="font-variant:normal;font-weight:normal;font-size:9px;font-family:Times;-inkscape-font-specification:Times-Roman;writing-mode:lr-tb;fill:#404040;fill-opacity:1;fill-rule:nonzero;stroke:none"
         id="text6194"><tspan
           x="0 5.0760002 7.3260002 11.826 16.326 20.826 23.076"
           y="0"
           id="tspan6196">= 333.3</tspan></text>
</g><path
       d="m 286,562.87 30,0"
       style="fill:none;stroke:#d95319;stroke-width:1.5;stroke-linecap:square;stroke-linejoin:miter;stroke-miterlimit:10;stroke-dasharray:none;stroke-opacity:1"
       id="path6198" /><g
       id="g6200"><text
         transform="matrix(1,0,0,-1,319,548)"
         style="font-variant:normal;font-weight:normal;font-size:9px;font-family:mwb_cmmi10;-inkscape-font-specification:mwb_cmmi10;writing-mode:lr-tb;fill:#404040;fill-opacity:1;fill-rule:nonzero;stroke:none"
         id="text6202"><tspan
           x="0"
           y="0"
           id="tspan6204"></tspan></text>
<text
         transform="matrix(1,0,0,-1,323,544)"
         style="font-variant:normal;font-weight:normal;font-size:7px;font-family:Times;-inkscape-font-specification:Times-Roman;writing-mode:lr-tb;fill:#404040;fill-opacity:1;fill-rule:nonzero;stroke:none"
         id="text6206"><tspan
           x="0"
           y="0"
           id="tspan6208">r</tspan></text>
<text
         transform="matrix(1,0,0,-1,328.25,548)"
         style="font-variant:normal;font-weight:normal;font-size:9px;font-family:Times;-inkscape-font-specification:Times-Roman;writing-mode:lr-tb;fill:#404040;fill-opacity:1;fill-rule:nonzero;stroke:none"
         id="text6210"><tspan
           x="0 5.0760002 7.3260002 11.826 16.326"
           y="0"
           id="tspan6212">= 100</tspan></text>
</g><path
       d="m 286,549.29 30,0"
       style="fill:none;stroke:#edb120;stroke-width:1.5;stroke-linecap:square;stroke-linejoin:miter;stroke-miterlimit:10;stroke-dasharray:none;stroke-opacity:1"
       id="path6214" /><g
       id="g6216"><text
         transform="matrix(1,0,0,-1,319,534)"
         style="font-variant:normal;font-weight:normal;font-size:9px;font-family:mwb_cmmi10;-inkscape-font-specification:mwb_cmmi10;writing-mode:lr-tb;fill:#404040;fill-opacity:1;fill-rule:nonzero;stroke:none"
         id="text6218"><tspan
           x="0"
           y="0"
           id="tspan6220"></tspan></text>
<text
         transform="matrix(1,0,0,-1,323,530)"
         style="font-variant:normal;font-weight:normal;font-size:7px;font-family:Times;-inkscape-font-specification:Times-Roman;writing-mode:lr-tb;fill:#404040;fill-opacity:1;fill-rule:nonzero;stroke:none"
         id="text6222"><tspan
           x="0"
           y="0"
           id="tspan6224">r</tspan></text>
<text
         transform="matrix(1,0,0,-1,328.25,534)"
         style="font-variant:normal;font-weight:normal;font-size:9px;font-family:Times;-inkscape-font-specification:Times-Roman;writing-mode:lr-tb;fill:#404040;fill-opacity:1;fill-rule:nonzero;stroke:none"
         id="text6226"><tspan
           x="0 5.0760002 7.3260002 11.826 16.326 18.576 23.076"
           y="0"
           id="tspan6228">= 33.33</tspan></text>
</g><path
       d="m 286,535.71 30,0"
       style="fill:none;stroke:#7e2f8e;stroke-width:1.5;stroke-linecap:square;stroke-linejoin:miter;stroke-miterlimit:10;stroke-dasharray:none;stroke-opacity:1"
       id="path6230" /><g
       id="g6232"><text
         transform="matrix(1,0,0,-1,319,521)"
         style="font-variant:normal;font-weight:normal;font-size:9px;font-family:mwb_cmmi10;-inkscape-font-specification:mwb_cmmi10;writing-mode:lr-tb;fill:#404040;fill-opacity:1;fill-rule:nonzero;stroke:none"
         id="text6234"><tspan
           x="0"
           y="0"
           id="tspan6236"></tspan></text>
<text
         transform="matrix(1,0,0,-1,323,517)"
         style="font-variant:normal;font-weight:normal;font-size:7px;font-family:Times;-inkscape-font-specification:Times-Roman;writing-mode:lr-tb;fill:#404040;fill-opacity:1;fill-rule:nonzero;stroke:none"
         id="text6238"><tspan
           x="0"
           y="0"
           id="tspan6240">r</tspan></text>
<text
         transform="matrix(1,0,0,-1,328.25,521)"
         style="font-variant:normal;font-weight:normal;font-size:9px;font-family:Times;-inkscape-font-specification:Times-Roman;writing-mode:lr-tb;fill:#404040;fill-opacity:1;fill-rule:nonzero;stroke:none"
         id="text6242"><tspan
           x="0 5.0760002 7.3260002 11.826"
           y="0"
           id="tspan6244">= 10</tspan></text>
</g><path
       d="m 286,522.13 30,0"
       style="fill:none;stroke:#77ac30;stroke-width:1.5;stroke-linecap:square;stroke-linejoin:miter;stroke-miterlimit:10;stroke-dasharray:none;stroke-opacity:1"
       id="path6246" /><g
       id="g6248"><text
         transform="matrix(1,0,0,-1,319,507)"
         style="font-variant:normal;font-weight:normal;font-size:9px;font-family:mwb_cmmi10;-inkscape-font-specification:mwb_cmmi10;writing-mode:lr-tb;fill:#404040;fill-opacity:1;fill-rule:nonzero;stroke:none"
         id="text6250"><tspan
           x="0"
           y="0"
           id="tspan6252"></tspan></text>
<text
         transform="matrix(1,0,0,-1,323,503)"
         style="font-variant:normal;font-weight:normal;font-size:7px;font-family:Times;-inkscape-font-specification:Times-Roman;writing-mode:lr-tb;fill:#404040;fill-opacity:1;fill-rule:nonzero;stroke:none"
         id="text6254"><tspan
           x="0"
           y="0"
           id="tspan6256">r</tspan></text>
<text
         transform="matrix(1,0,0,-1,328.25,507)"
         style="font-variant:normal;font-weight:normal;font-size:9px;font-family:Times;-inkscape-font-specification:Times-Roman;writing-mode:lr-tb;fill:#404040;fill-opacity:1;fill-rule:nonzero;stroke:none"
         id="text6258"><tspan
           x="0 5.0760002 7.3260002 11.826 14.076 18.576 23.076"
           y="0"
           id="tspan6260">= 3.333</tspan></text>
</g><path
       d="m 286,508.55 30,0"
       style="fill:none;stroke:#4dbeee;stroke-width:1.5;stroke-linecap:square;stroke-linejoin:miter;stroke-miterlimit:10;stroke-dasharray:none;stroke-opacity:1"
       id="path6262" /><path
       d="m 280,500 0,85 79,0 0,-85 -79,0"
       style="fill:none;stroke:#404040;stroke-width:1;stroke-linecap:square;stroke-linejoin:miter;stroke-miterlimit:10;stroke-dasharray:none;stroke-opacity:1"
       id="path6264" /></g></svg>