<?xml version="1.0" encoding="UTF-8" standalone="no"?>
<svg
   xmlns:dc="http://purl.org/dc/elements/1.1/"
   xmlns:cc="http://creativecommons.org/ns#"
   xmlns:rdf="http://www.w3.org/1999/02/22-rdf-syntax-ns#"
   xmlns:svg="http://www.w3.org/2000/svg"
   xmlns="http://www.w3.org/2000/svg"
   viewBox="0 0 321.30374 254.3325"
   height="254.3325"
   width="321.30374"
   xml:space="preserve"
   version="1.1"
   id="svg2"><metadata
     id="metadata8"><rdf:RDF><cc:Work
         rdf:about=""><dc:format>image/svg+xml</dc:format><dc:type
           rdf:resource="http://purl.org/dc/dcmitype/StillImage" /><dc:title></dc:title></cc:Work></rdf:RDF></metadata><defs
     id="defs6"><clipPath
       id="clipPath4100"
       clipPathUnits="userSpaceOnUse"><path
         id="path4102"
         d="m 1650,3220 440,0 0,80 -440,-80 z" /></clipPath><clipPath
       id="clipPath4112"
       clipPathUnits="userSpaceOnUse"><path
         id="path4114"
         d="m 2090,3300 -440,0 0,-80 440,80 z" /></clipPath></defs><g
     transform="matrix(1.25,0,0,-1.25,-312.77125,535.2725)"
     id="g10"><path
       d="m 284,252 216,0 0,173 -216,0 0,-173 z"
       style="fill:#ffffff;fill-opacity:1;fill-rule:nonzero;stroke:none"
       id="path8298" /><g
       id="g8300"><text
         transform="matrix(1,0,0,-1,373.215,226.699)"
         style="font-variant:normal;font-weight:normal;font-size:11px;font-family:Times;-inkscape-font-specification:Times-Roman;writing-mode:lr-tb;fill:#404040;fill-opacity:1;fill-rule:nonzero;stroke:none"
         id="text8302"><tspan
           x="0 6.7210002 9.7790003 18.337 23.221001 25.971001 29.634001 33.912998"
           y="0"
           id="tspan8304">Time (s)</tspan></text>
</g><path
       d="m 284,252 216,0"
       style="fill:none;stroke:#404040;stroke-width:1;stroke-linecap:square;stroke-linejoin:miter;stroke-miterlimit:10;stroke-dasharray:none;stroke-opacity:1"
       id="path8306" /><path
       d="m 284,425 216,0"
       style="fill:none;stroke:#404040;stroke-width:1;stroke-linecap:square;stroke-linejoin:miter;stroke-miterlimit:10;stroke-dasharray:none;stroke-opacity:1"
       id="path8308" /><path
       d="m 284,252 0,2.16"
       style="fill:none;stroke:#404040;stroke-width:1;stroke-linecap:square;stroke-linejoin:miter;stroke-miterlimit:10;stroke-dasharray:none;stroke-opacity:1"
       id="path8310" /><path
       d="m 284,425 0,-2.16"
       style="fill:none;stroke:#404040;stroke-width:1;stroke-linecap:square;stroke-linejoin:miter;stroke-miterlimit:10;stroke-dasharray:none;stroke-opacity:1"
       id="path8312" /><path
       d="m 327.2,252 0,2.16"
       style="fill:none;stroke:#404040;stroke-width:1;stroke-linecap:square;stroke-linejoin:miter;stroke-miterlimit:10;stroke-dasharray:none;stroke-opacity:1"
       id="path8314" /><path
       d="m 327.2,425 0,-2.16"
       style="fill:none;stroke:#404040;stroke-width:1;stroke-linecap:square;stroke-linejoin:miter;stroke-miterlimit:10;stroke-dasharray:none;stroke-opacity:1"
       id="path8316" /><path
       d="m 370.4,252 0,2.16"
       style="fill:none;stroke:#404040;stroke-width:1;stroke-linecap:square;stroke-linejoin:miter;stroke-miterlimit:10;stroke-dasharray:none;stroke-opacity:1"
       id="path8318" /><path
       d="m 370.4,425 0,-2.16"
       style="fill:none;stroke:#404040;stroke-width:1;stroke-linecap:square;stroke-linejoin:miter;stroke-miterlimit:10;stroke-dasharray:none;stroke-opacity:1"
       id="path8320" /><path
       d="m 413.6,252 0,2.16"
       style="fill:none;stroke:#404040;stroke-width:1;stroke-linecap:square;stroke-linejoin:miter;stroke-miterlimit:10;stroke-dasharray:none;stroke-opacity:1"
       id="path8322" /><path
       d="m 413.6,425 0,-2.16"
       style="fill:none;stroke:#404040;stroke-width:1;stroke-linecap:square;stroke-linejoin:miter;stroke-miterlimit:10;stroke-dasharray:none;stroke-opacity:1"
       id="path8324" /><path
       d="m 456.8,252 0,2.16"
       style="fill:none;stroke:#404040;stroke-width:1;stroke-linecap:square;stroke-linejoin:miter;stroke-miterlimit:10;stroke-dasharray:none;stroke-opacity:1"
       id="path8326" /><path
       d="m 456.8,425 0,-2.16"
       style="fill:none;stroke:#404040;stroke-width:1;stroke-linecap:square;stroke-linejoin:miter;stroke-miterlimit:10;stroke-dasharray:none;stroke-opacity:1"
       id="path8328" /><path
       d="m 500,252 0,2.16"
       style="fill:none;stroke:#404040;stroke-width:1;stroke-linecap:square;stroke-linejoin:miter;stroke-miterlimit:10;stroke-dasharray:none;stroke-opacity:1"
       id="path8330" /><path
       d="m 500,425 0,-2.16"
       style="fill:none;stroke:#404040;stroke-width:1;stroke-linecap:square;stroke-linejoin:miter;stroke-miterlimit:10;stroke-dasharray:none;stroke-opacity:1"
       id="path8332" /><g
       id="g8334"><text
         transform="matrix(1,0,0,-1,281.5,239.089)"
         style="font-variant:normal;font-weight:normal;font-size:10px;font-family:Times;-inkscape-font-specification:Times-Roman;writing-mode:lr-tb;fill:#404040;fill-opacity:1;fill-rule:nonzero;stroke:none"
         id="text8336"><tspan
           x="0 40.700001 45.700001 81.400002 86.400002 91.400002 124.6 129.60001 134.60001 167.8 172.8 177.8 211 216 221"
           y="0"
           id="tspan8338">050100150200250</tspan></text>
<text
         transform="matrix(0,1,1,0,257.653,313.6)"
         style="font-variant:normal;font-weight:normal;font-size:11px;font-family:Times;-inkscape-font-specification:Times-Roman;writing-mode:lr-tb;fill:#404040;fill-opacity:1;fill-rule:nonzero;stroke:none"
         id="text8340"><tspan
           x="0 6.1160002 9.1739998 12.837 17.721001 22 26.278999 29.028999 32.692001 38.192001 46.133999"
           y="0"
           id="tspan8342">Stress (nN)</tspan></text>
</g><path
       d="m 284,252 0,173"
       style="fill:none;stroke:#404040;stroke-width:1;stroke-linecap:square;stroke-linejoin:miter;stroke-miterlimit:10;stroke-dasharray:none;stroke-opacity:1"
       id="path8344" /><path
       d="m 500,252 0,173"
       style="fill:none;stroke:#404040;stroke-width:1;stroke-linecap:square;stroke-linejoin:miter;stroke-miterlimit:10;stroke-dasharray:none;stroke-opacity:1"
       id="path8346" /><path
       d="m 284,252 2.16,0"
       style="fill:none;stroke:#404040;stroke-width:1;stroke-linecap:square;stroke-linejoin:miter;stroke-miterlimit:10;stroke-dasharray:none;stroke-opacity:1"
       id="path8348" /><path
       d="m 500,252 -2.16,0"
       style="fill:none;stroke:#404040;stroke-width:1;stroke-linecap:square;stroke-linejoin:miter;stroke-miterlimit:10;stroke-dasharray:none;stroke-opacity:1"
       id="path8350" /><path
       d="m 284,286.6 2.16,0"
       style="fill:none;stroke:#404040;stroke-width:1;stroke-linecap:square;stroke-linejoin:miter;stroke-miterlimit:10;stroke-dasharray:none;stroke-opacity:1"
       id="path8352" /><path
       d="m 500,286.6 -2.16,0"
       style="fill:none;stroke:#404040;stroke-width:1;stroke-linecap:square;stroke-linejoin:miter;stroke-miterlimit:10;stroke-dasharray:none;stroke-opacity:1"
       id="path8354" /><path
       d="m 284,321.2 2.16,0"
       style="fill:none;stroke:#404040;stroke-width:1;stroke-linecap:square;stroke-linejoin:miter;stroke-miterlimit:10;stroke-dasharray:none;stroke-opacity:1"
       id="path8356" /><path
       d="m 500,321.2 -2.16,0"
       style="fill:none;stroke:#404040;stroke-width:1;stroke-linecap:square;stroke-linejoin:miter;stroke-miterlimit:10;stroke-dasharray:none;stroke-opacity:1"
       id="path8358" /><path
       d="m 284,355.8 2.16,0"
       style="fill:none;stroke:#404040;stroke-width:1;stroke-linecap:square;stroke-linejoin:miter;stroke-miterlimit:10;stroke-dasharray:none;stroke-opacity:1"
       id="path8360" /><path
       d="m 500,355.8 -2.16,0"
       style="fill:none;stroke:#404040;stroke-width:1;stroke-linecap:square;stroke-linejoin:miter;stroke-miterlimit:10;stroke-dasharray:none;stroke-opacity:1"
       id="path8362" /><path
       d="m 284,390.4 2.16,0"
       style="fill:none;stroke:#404040;stroke-width:1;stroke-linecap:square;stroke-linejoin:miter;stroke-miterlimit:10;stroke-dasharray:none;stroke-opacity:1"
       id="path8364" /><path
       d="m 500,390.4 -2.16,0"
       style="fill:none;stroke:#404040;stroke-width:1;stroke-linecap:square;stroke-linejoin:miter;stroke-miterlimit:10;stroke-dasharray:none;stroke-opacity:1"
       id="path8366" /><path
       d="m 284,425 2.16,0"
       style="fill:none;stroke:#404040;stroke-width:1;stroke-linecap:square;stroke-linejoin:miter;stroke-miterlimit:10;stroke-dasharray:none;stroke-opacity:1"
       id="path8368" /><path
       d="m 500,425 -2.16,0"
       style="fill:none;stroke:#404040;stroke-width:1;stroke-linecap:square;stroke-linejoin:miter;stroke-miterlimit:10;stroke-dasharray:none;stroke-opacity:1"
       id="path8370" /><g
       id="g8372"><text
         transform="matrix(1,0,0,-1,275,248.338)"
         style="font-variant:normal;font-weight:normal;font-size:10px;font-family:Times;-inkscape-font-specification:Times-Roman;writing-mode:lr-tb;fill:#404040;fill-opacity:1;fill-rule:nonzero;stroke:none"
         id="text8374"><tspan
           x="0"
           y="0"
           id="tspan8376">0</tspan><tspan
           x="-12.5 -7.5 -5 0"
           y="-34.599998"
           id="tspan8378">0.01</tspan><tspan
           x="-12.5 -7.5 -5 0"
           y="-69.199997"
           id="tspan8380">0.02</tspan><tspan
           x="-12.5 -7.5 -5 0"
           y="-103.8"
           id="tspan8382">0.03</tspan><tspan
           x="-12.5 -7.5 -5 0"
           y="-138.39999"
           id="tspan8384">0.04</tspan><tspan
           x="-12.5 -7.5 -5 0"
           y="-173"
           id="tspan8386">0.05</tspan></text>
</g><path
       d="m 284,252 0.864,29.633 0.864,22.518 0.864,18.013 0.864,14.643 0.864,12.423 0.864,11.645 0.864,9.325 0.864,7.794 0.864,6.601 0.864,4.818 0.864,4.556 0.864,3.993 0.864,3.65 0.864,3.595 0.864,1.506 0.864,1.685 0.864,1.343 0.864,0.904 0.864,0.125 0.864,-0.346 0.864,-1.411 0.864,-0.748 0.864,-1.167 0.864,-1.057 0.864,-1.379 0.864,-2.436 0.864,-2.246 0.864,-2.536 0.864,-0.748 0.864,-3.509 0.864,-3.121 0.864,-3.342 0.864,-2.513 0.864,-3.243 0.864,-1.62 0.864,0.288 0.864,-0.578 0.864,-0.333 0.864,-0.184 0.864,-1.539 0.864,-1.89 0.864,-2.666 0.864,-0.574 0.864,-2.735 0.864,-2.286 0.864,-0.653 0.864,-0.368 0.864,0.127 0.864,-0.306 0.864,-0.352 0.864,-0.098 0.864,0.515 0.864,0.281 0.864,-0.923 0.864,-1.507 0.864,-1.459 0.864,-1.712 0.864,-0.692 0.864,-3.974 0.864,-1.508 0.864,-1.247 0.864,-0.732 0.864,-1.245 0.864,-0.885 0.864,-1.405 0.864,-1.618 0.864,-1.984 0.864,0.146 0.864,-0.812 0.864,-1.69 0.864,-0.935 0.864,-2.405 0.864,-1.784 0.864,-1.706 0.864,-2.715 0.864,-1.798 0.864,-1.654 0.864,-2.938 0.864,-2.325 0.864,-2.107 0.864,-1.375 0.864,-0.443 0.864,0.065 0.864,-0.828 0.864,-0.357 0.864,0.293 0.864,-0.065 0.864,-0.896 0.864,-0.447 0.864,-0.269 0.864,-0.294 0.864,-0.248 0.864,-1.057 0.864,-0.289 0.864,-0.578 0.864,0.052 0.864,-0.357 0.864,0.492 0.864,-0.164 0.864,-0.355 0.864,-1.347 0.864,-0.214 0.864,-0.615 0.864,-1.043 0.864,-1.605 0.864,-1.996 0.864,-0.112 0.864,-1.575 0.864,-0.728 0.864,0.213 0.864,-0.537 0.864,-0.319 0.864,-1.333 0.864,-0.948 0.864,0.751 0.864,-1.308 0.864,-0.429 0.864,0.393 0.864,0.567 0.864,0.156 0.864,0.067 0.864,0.637 0.864,-1.323 0.864,-1.787 0.864,-0.441 0.864,-0.942 0.864,-0.849 0.864,-1.327 0.864,-1.129 0.864,1.508 0.864,1.397 0.864,0.142 0.864,-0.562 0.864,-0.135 0.864,-0.325 0.864,1.057 0.864,-1.685 0.864,-0.101 0.864,-1.295 0.864,-0.121 0.864,-0.051 0.864,-0.668 0.864,-1.052 0.864,-1.456 0.864,-0.612 0.864,-1.001 0.864,-0.447 0.864,-0.752 0.864,-0.34 0.864,0.354 0.864,-0.286 0.864,-0.502 0.864,-0.762 0.864,-0.486 0.864,-0.189 0.864,-1.68 0.864,-1.016 0.864,-0.432 0.864,-1.495 0.864,-0.17 0.864,-1.828 0.864,-1.195 0.864,-0.692 0.864,-0.67 0.864,-1.128 0.864,0.26 0.864,-0.612 0.864,-1.362 0.864,-0.903 0.864,-1.259 0.864,-1.297 0.864,-1.779 0.864,-0.189 0.864,-0.702 0.864,-0.526 0.864,0.035 0.864,0.056 0.864,0.244 0.864,0.325 0.864,1.148 0.864,0.534 0.864,0.765 0.864,-0.6 0.864,2.96 0.864,0.701 0.864,0.996 0.864,0.141 0.864,-0.03 0.864,0.374 0.864,-0.093 0.864,-0.042 0.864,-0.016 0.864,-0.986 0.864,-0.559 0.864,-0.384 0.864,-0.017 0.864,-1.098 0.864,-0.739 0.864,0.294 0.864,-0.929 0.864,0.604 0.864,-1.089 0.864,-0.414 0.864,0.068 0.864,-0.296 0.864,-0.484 0.864,-0.63 0.864,-0.798 0.864,0.446 0.864,-0.746 0.864,1.235 0.864,-0.767 0.864,0.667 0.864,0.298 0.864,0.864 0.864,1.071 0.864,-1.667 0.864,2.205 0.864,1.129 0.864,1.093 0.864,0.922 0.864,1.382 0.864,0.975 0.864,1.105 0.864,-1.007 0.864,2.657 0.864,-0.31 0.864,1.265 0.864,0.461 0.864,1.027 0.864,0.082 0.864,0.098 0.864,0.578 0.864,0.516 0.864,-0.225 0.864,-0.1 0.864,-0.103 0.864,-0.888 0.864,-1.241 0.864,0.564 0.864,-0.383 0.864,-0.08 0.864,-0.172 0.864,-0.401 0.864,-0.15 0.864,0.285 0.864,0.304 0.864,-0.162 0.864,-0.035 0.864,-0.237 0.022,0.025"
       style="fill:none;stroke:#0072bd;stroke-width:1.5;stroke-linecap:square;stroke-linejoin:miter;stroke-miterlimit:10;stroke-dasharray:none;stroke-opacity:1"
       id="path8388" /><path
       d="m 284,252 0.864,29.381 0.864,20.405 0.864,16.737 0.864,13.399 0.864,10.527 0.864,8.196 0.864,8.279 0.864,6.93 0.864,6.023 0.864,4.535 0.864,4.058 0.864,2.261 0.864,2.015 0.864,0.149 0.864,-0.672 0.864,0.989 0.864,-0.231 0.864,1.031 0.864,0.753 0.864,-1.505 0.864,-0.487 0.864,-0.599 0.864,-5.256 0.864,-1.311 0.864,-0.932 0.864,-2.242 0.864,-1.505 0.864,-0.619 0.864,1.26 0.864,-1.386 0.864,0.224 0.864,-0.803 0.864,-1.109 0.864,-1.683 0.864,-5.135 0.864,-3.89 0.864,-2.234 0.864,-1.776 0.864,0.534 0.864,-0.055 0.864,-3.606 0.864,-0.763 0.864,-0.732 0.864,-0.138 0.864,-1.023 0.864,-0.765 0.864,-1.233 0.864,-1.124 0.864,-2.298 0.864,0.327 0.864,-1.516 0.864,-0.133 0.864,0.306 0.864,1.142 0.864,-1.015 0.864,0.512 0.864,0.448 0.864,-1.606 0.864,-2.879 0.864,0.392 0.864,-2.198 0.864,0.9 0.864,-2.21 0.864,0.023 0.864,2.278 0.864,0.088 0.864,-2.188 0.864,1.398 0.864,-0.062 0.864,-0.624 0.864,2.297 0.864,0.709 0.864,0.088 0.864,-0.726 0.864,0.9 0.864,-2.024 0.864,-0.793 0.864,-0.273 0.864,0.024 0.864,-2.611 0.864,-1.701 0.864,-3.041 0.864,-2.566 0.864,-0.664 0.864,-0.626 0.864,-0.025 0.864,-1.261 0.864,0.671 0.864,-0.931 0.864,-0.537 0.864,-0.679 0.864,-1.159 0.864,-1.453 0.864,0.108 0.864,1.433 0.864,1.73 0.864,2.165 0.864,0.396 0.864,-1.873 0.864,-0.191 0.864,0.965 0.864,0.151 0.864,-3.235 0.864,1.577 0.864,2.272 0.864,-1.569 0.864,0.816 0.864,2.322 0.864,1.523 0.864,1.023 0.864,-1.256 0.864,-1.915 0.864,1.656 0.864,-1.319 0.864,-1.744 0.864,-2.121 0.864,-3.822 0.864,-2.05 0.864,0.009 0.864,-1.317 0.864,1.485 0.864,-1.989 0.864,-1.134 0.864,1.236 0.864,-0.92 0.864,-0.294 0.864,-1.511 0.864,-0.144 0.864,0.35 0.864,0.691 0.864,1.641 0.864,1.073 0.864,0.035 0.864,-2.39 0.864,-1.04 0.864,0.449 0.864,0.921 0.864,-0.68 0.864,-0.297 0.864,0.14 0.864,1.162 0.864,0.351 0.864,-0.619 0.864,-1.53 0.864,-1.956 0.864,-1.703 0.864,-1.632 0.864,2.061 0.864,2.036 0.864,1.745 0.864,-0.136 0.864,-0.568 0.864,3.457 0.864,2.61 0.864,1.446 0.864,0.893 0.864,-0.386 0.864,2.457 0.864,1.486 0.864,0.258 0.864,0.676 0.864,0.177 0.864,-0.632 0.864,0.161 0.864,-0.708 0.864,0.587 0.864,-1.71 0.864,-0.715 0.864,-0.489 0.864,0.466 0.864,0.197 0.864,-0.975 0.864,-0.693 0.864,-1.91 0.864,-1.663 0.864,1.612 0.864,1.241 0.864,2.194 0.864,2.36 0.864,1.625 0.864,1.667 0.864,0.209 0.864,2.787 0.864,1.61 0.864,0.743 0.864,-1.003 0.864,2.04 0.864,1.299 0.864,-1.883 0.864,-0.489 0.864,0.147 0.864,-1.211 0.864,0.759 0.864,-2.068 0.864,2.103 0.864,-1.79 0.864,-1.735 0.864,-1.853 0.864,-1.895 0.864,1.16 0.864,-1.585 0.864,0.37 0.864,0.036 0.864,-0.721 0.864,2.692 0.864,-0.188 0.864,1.176 0.864,-0.814 0.864,-0.331 0.864,-1.206 0.864,0.02 0.864,-1.169 0.864,-2.57 0.864,-2.53 0.864,-1.018 0.864,-2.705 0.864,1.135 0.864,0.764 0.864,-1.812 0.864,0.691 0.864,0.008 0.864,-2.326 0.864,-0.376 0.864,0.59 0.864,0.801 0.864,1.29 0.864,1.273 0.864,0.881 0.864,1.089 0.864,1.264 0.864,1.541 0.864,0.421 0.864,-0.832 0.864,1.066 0.864,0.199 0.864,-0.67 0.864,0.773 0.864,0.739 0.864,1.003 0.864,-0.194 0.864,-0.598 0.864,-0.997 0.864,-0.028 0.864,1.125 0.864,-1.68 0.864,-1.933 0.864,2.421 0.864,0.597 0.864,0.314 0.864,0.715 0.022,-0.033"
       style="fill:none;stroke:#d95319;stroke-width:1.5;stroke-linecap:square;stroke-linejoin:miter;stroke-miterlimit:10;stroke-dasharray:none;stroke-opacity:1"
       id="path8390" /><path
       d="m 284,252 0.864,26.888 0.864,14.965 0.864,10.846 0.864,6.234 0.864,7.211 0.864,5.983 0.864,-0.434 0.864,4.441 0.864,1.726 0.864,0.092 0.864,-0.212 0.864,1.003 0.864,1.971 0.864,0.128 0.864,4.439 0.864,4.691 0.864,3.275 0.864,-9.173 0.864,0.404 0.864,1.293 0.864,-1.423 0.864,-0.491 0.864,-1.153 0.864,2.407 0.864,2.833 0.864,-1.229 0.864,-2.532 0.864,6.445 0.864,-0.449 0.864,-2.135 0.864,-4.695 0.864,-0.883 0.864,-3.11 0.864,-3.572 0.864,0.843 0.864,-0.507 0.864,-2.996 0.864,0.624 0.864,4.385 0.864,-1.569 0.864,3.381 0.864,-1.23 0.864,1.973 0.864,2.072 0.864,-1.805 0.864,-1.272 0.864,-3.553 0.864,-6.482 0.864,-2.717 0.864,2.051 0.864,3.081 0.864,-1.479 0.864,4.635 0.864,2.165 0.864,-0.21 0.864,-0.93 0.864,3.414 0.864,-2.94 0.864,-0.369 0.864,-3.408 0.864,-0.69 0.864,-3.158 0.864,1.298 0.864,-0.849 0.864,2.469 0.864,-2.533 0.864,0.81 0.864,0.664 0.864,-1.059 0.864,-2.912 0.864,-0.46 0.864,1.645 0.864,2.407 0.864,-1.873 0.864,1.556 0.864,-1.232 0.864,-0.281 0.864,-0.062 0.864,-5.864 0.864,-1.401 0.864,0.847 0.864,-2.22 0.864,0.671 0.864,-4.284 0.864,-0.481 0.864,2.064 0.864,1.519 0.864,1.624 0.864,-0.106 0.864,-3.524 0.864,2.632 0.864,2.707 0.864,-2.957 0.864,2.955 0.864,2.934 0.864,3.361 0.864,-0.218 0.864,-1.646 0.864,0.101 0.864,1.301 0.864,-0.58 0.864,-3.632 0.864,-1.118 0.864,-2.016 0.864,-0.178 0.864,1.563 0.864,-0.796 0.864,2.39 0.864,5.097 0.864,-0.356 0.864,-1.674 0.864,-1.108 0.864,2.484 0.864,0.231 0.864,-0.166 0.864,-1.544 0.864,-4.307 0.864,0.65 0.864,-0.863 0.864,0.585 0.864,5.09 0.864,2.851 0.864,-1.426 0.864,1.56 0.864,-2.737 0.864,3.074 0.864,5.197 0.864,0.049 0.864,-0.458 0.864,-3.702 0.864,2.252 0.864,-0.488 0.864,0.058 0.864,-2.97 0.864,2.272 0.864,-1.989 0.864,-1.024 0.864,3.611 0.864,4.432 0.864,3.514 0.864,1.959 0.864,-2.099 0.864,-5.845 0.864,-2.249 0.864,1.612 0.864,-3.72 0.864,-0.029 0.864,2.585 0.864,4.223 0.864,-1.315 0.864,-2.689 0.864,0.38 0.864,-1.212 0.864,-4.181 0.864,-5.31 0.864,2.161 0.864,-0.55 0.864,-1.524 0.864,1.238 0.864,-1.715 0.864,3.46 0.864,3.547 0.864,-2.469 0.864,2.311 0.864,2.041 0.864,4.769 0.864,-0.731 0.864,1.6 0.864,-1.287 0.864,0.715 0.864,-2.467 0.864,-3.173 0.864,0.364 0.864,-2.358 0.864,4.399 0.864,1.011 0.864,1.039 0.864,-3.732 0.864,3.646 0.864,0.12 0.864,-1.165 0.864,5.771 0.864,0.501 0.864,2.197 0.864,-1.091 0.864,0.831 0.864,-2.235 0.864,-3.732 0.864,0.625 0.864,-2.352 0.864,3.761 0.864,1.517 0.864,2.335 0.864,0.838 0.864,-3.15 0.864,-2.935 0.864,-5.081 0.864,-0.427 0.864,-1.131 0.864,-5.784 0.864,0.721 0.864,-0.37 0.864,3.763 0.864,-1.31 0.864,-0.326 0.864,1.922 0.864,1.281 0.864,1.996 0.864,2.089 0.864,-1.31 0.864,-1.676 0.864,-1.806 0.864,-1.761 0.864,-2.087 0.864,1.991 0.864,-3.568 0.864,0.605 0.864,-2.238 0.864,-4.96 0.864,0.512 0.864,-0.356 0.864,0.43 0.864,0.369 0.864,-0.967 0.864,-3.647 0.864,-2.256 0.864,-0.429 0.864,-0.008 0.864,7.269 0.864,3.035 0.864,-0.197 0.864,0.982 0.864,4.288 0.864,0.913 0.864,-3.235 0.864,0.252 0.864,3.478 0.864,0.03 0.864,3.348 0.864,-1.516 0.864,1.302 0.864,0.766 0.864,1.702 0.864,-5.343 0.864,-0.089 0.864,-1.902 0.864,-1.757 0.864,3.569 0.864,2.437 0.864,-0.969 0.022,0.028"
       style="fill:none;stroke:#edb120;stroke-width:1.5;stroke-linecap:square;stroke-linejoin:miter;stroke-miterlimit:10;stroke-dasharray:none;stroke-opacity:1"
       id="path8392" /><path
       d="m 284,252 0.216,6.569 0.216,3.215 0.216,2.727 0.216,1.512 0.216,0.392 0.216,1.837 0.216,1.129 0.216,1.528 0.216,-0.245 0.216,-0.684 0.216,-2.187 0.216,-0.795 0.216,0.743 0.216,0.67 0.216,-0.509 0.216,-0.433 0.216,-0.647 0.216,-0.352 0.216,0.073 0.216,1.865 0.216,-0.71 0.216,-0.427 0.216,0.726 0.216,0.747 0.216,0.011 0.216,1.238 0.216,0.426 0.216,-1.127 0.216,1.748 0.216,-0.158 0.216,-0.339 0.216,-1.829 0.216,0.672 0.216,-0.443 0.216,-1.202 0.216,-1.566 0.216,0.077 0.216,-0.85 0.216,-0.383 0.216,1.412 0.216,-0.009 0.216,0.565 0.216,1.678 0.216,-0.974 0.216,-0.25 0.216,-0.986 0.216,-0.927 0.216,1.724 0.216,-0.185 0.216,-0.027 0.216,-0.476 0.216,-0.108 0.216,1.031 0.216,-0.5 0.216,1.176 0.216,-1.241 0.216,-1.335 0.216,0.684 0.216,-0.222 0.216,-0.258 0.216,-1.489 0.216,2.654 0.216,1.69 0.216,-1.193 0.216,0.149 0.216,0.673 0.216,1.378 0.216,-0.417 0.216,1.154 0.216,-2.57 0.216,0.355 0.216,-0.168 0.216,1.941 0.216,-0.088 0.216,0.636 0.216,-1.981 0.216,-0.12 0.216,-0.026 0.216,-0.537 0.216,-0.887 0.216,-0.177 0.216,1.29 0.216,0.441 0.216,1.352 0.216,-0.491 0.216,-0.956 0.216,0.64 0.216,-1.763 0.216,1.398 0.216,0 0.216,0.366 0.216,-0.837 0.216,-0.982 0.216,-1.617 0.216,1.761 0.216,0.02 0.216,1.712 0.216,-0.148 0.216,0.382 0.216,-0.131 0.216,0.163 0.216,-3.159 0.216,-0.893 0.216,0.735 0.216,0.401 0.216,0.818 0.216,-0.186 0.216,0.691 0.216,0.686 0.216,0.514 0.216,-0.727 0.216,-0.017 0.216,-1.134 0.216,0.652 0.216,-1.419 0.216,0.095 0.216,-0.409 0.216,1.098 0.216,-0.905 0.216,-0.1 0.216,1.17 0.216,1.306 0.216,0.518 0.216,-0.13 0.216,-1.258 0.216,-0.913 0.216,-0.055 0.216,0.368 0.216,1.3 0.216,-0.085 0.216,-1.199 0.216,2.033 0.216,-1.395 0.216,0.255 0.216,-0.669 0.216,0.689 0.216,-0.103 0.216,-0.368 0.216,0.409 0.216,2.387 0.216,-1.04 0.216,-0.634 0.216,-0.288 0.216,-0.067 0.216,-1.7 0.216,-0.764 0.216,1.74 0.216,-0.597 0.216,1.293 0.216,-0.331 0.216,-3.292 0.216,0.938 0.216,-0.824 0.216,0.974 0.216,1.626 0.216,-0.29 0.216,-0.071 0.216,-0.285 0.216,1.028 0.216,-0.397 0.216,1.19 0.216,-0.799 0.216,1.074 0.216,-0.382 0.216,-1.073 0.216,-0.663 0.216,-0.156 0.216,1.341 0.216,-0.107 0.216,1.376 0.216,-0.539 0.216,-0.5 0.216,-1.137 0.216,0.018 0.216,0.814 0.216,2.224 0.216,-0.489 0.216,-0.389 0.216,-0.15 0.216,-1.917 0.216,1.456 0.216,0.292 0.216,-0.016 0.216,1.062 0.216,-0.334 0.216,-0.411 0.216,2.452 0.216,-1.094 0.216,-0.155 0.216,0.981 0.216,-0.248 0.216,-1.867 0.216,0.564 0.216,-0.361 0.216,-0.835 0.216,-0.826 0.216,0.085 0.216,1.188 0.216,-0.574 0.216,0.051 0.216,0.466 0.216,0.37 0.216,0.081 0.216,-1.789 0.216,2.71 0.216,0.922 0.216,0.182 0.216,-0.152 0.216,0.89 0.216,0.505 0.216,0.829 0.216,-1.621 0.216,-2.566 0.216,1.256 0.216,-0.144 0.216,0.738 0.216,-1.424 0.216,0.169 0.216,0.674 0.216,0.55 0.216,-1.769 0.216,0.305 0.216,0.384 0.216,0.975 0.216,0.782 0.216,-0.018 0.216,-1.354 0.216,-0.216 0.216,0.285 0.216,0.202 0.216,-0.749 0.216,0.064 0.216,-0.66 0.216,0.643 0.216,-0.416 0.216,1.66 0.216,-0.834 0.216,0.802 0.216,-0.502 0.216,-0.189 0.216,-1.228 0.216,-0.475 0.216,-2.055 0.216,0.72 0.216,0.106 0.216,0.069 0.216,0.062 0.216,-0.661 0.216,1.66 0.216,-0.135 0.216,0.094 0.216,0.031 0.216,0.476 0.216,-0.64 0.216,0.046 0.216,0.097 0.216,0.28 0.216,-0.539 0.216,-0.571 0.216,-1.757 0.216,1.554 0.216,-0.411 0.216,1.266 0.216,-0.559 0.216,1.01 0.216,-0.157 0.216,-1.364 0.216,1.088 0.216,-0.15 0.216,-0.652 0.216,1.613 0.216,0.037 0.216,-0.874 0.216,0.272 0.216,0.157 0.216,-0.344 0.216,1.035 0.216,-0.676 0.216,0.433 0.216,-0.005 0.216,0.933 0.216,-0.508 0.216,-0.232 0.216,0.246 0.216,-0.126 0.216,-1.691 0.216,0.226 0.216,0.987 0.216,1.377 0.216,0.664 0.216,-1.232 0.216,-0.286 0.216,2.319 0.216,0.682 0.216,-1.178 0.216,-1.04 0.216,0.919 0.216,0.775 0.216,-1.307 0.216,-1.386 0.216,-1.986 0.216,0.045 0.216,1.305 0.216,-0.82 0.216,0.21 0.216,0.288 0.216,-0.446 0.216,0.224 0.216,1.632 0.216,-0.293 0.216,-1.916 0.216,0.209 0.216,0.274 0.216,-0.115 0.216,0.262 0.216,-0.427 0.216,-0.987 0.216,0.913 0.216,0.724 0.216,-2.643 0.216,-0.4 0.216,1.69 0.216,1.832 0.216,1.252 0.216,-1.218 0.216,0.558 0.216,-0.661 0.216,-0.805 0.216,-1.231 0.216,-0.936 0.216,0.975 0.216,1.871 0.216,-0.135 0.216,-0.794 0.216,-0.842 0.216,1.103 0.216,1.508 0.216,0.159 0.216,0.066 0.216,1.406 0.216,-1.794 0.216,0.731 0.216,-0.207 0.216,-0.859 0.216,-3.064 0.216,0.17 0.216,0.631 0.216,1.291 0.216,-0.706 0.216,-0.202 0.216,1.058 0.216,0.981 0.216,-0.651 0.216,-0.288 0.216,1.136 0.216,1.584 0.216,0.996 0.216,0.393 0.216,-0.149 0.216,0.156 0.216,-0.797 0.216,-0.747 0.216,0.308 0.216,0.638 0.216,-1.025 0.216,-1.673 0.216,-0.465 0.216,0.568 0.216,0.673 0.216,0.253 0.216,1.002 0.216,-0.939 0.216,0.549 0.216,0.834 0.216,-0.79 0.216,-2.573 0.216,1.629 0.216,-0.284 0.216,0.477 0.216,-0.037 0.216,-1.269 0.216,1.619 0.216,0.104 0.216,-1.554 0.216,-1.174 0.216,0.627 0.216,1.605 0.216,0.409 0.216,-0.403 0.216,-0.161 0.216,-1.986 0.216,-1.289 0.216,0.724 0.216,-0.096 0.216,-0.225 0.216,1.312 0.216,0.005 0.216,-0.633 0.216,0.386 0.216,-0.39 0.216,0.331 0.216,0.856 0.216,0.732 0.216,-0.294 0.216,-0.041 0.216,-0.559 0.216,2.062 0.216,1.835 0.216,0.287 0.216,0.567 0.216,0.567 0.216,-0.393 0.216,-1.399 0.216,-0.44 0.216,0.422 0.216,0.929 0.216,0.33 0.216,-2.833 0.216,0.162 0.216,-0.096 0.216,0.43 0.216,-0.787 0.216,0.593 0.216,-2.401 0.216,0.049 0.216,1.089 0.216,-1.174 0.216,-0.646 0.216,-0.022 0.216,-0.405 0.216,1.337 0.216,0.602 0.216,-0.712 0.216,-0.4 0.216,-1.134 0.216,1.657 0.216,-0.705 0.216,-1.705 0.216,-0.068 0.216,-0.958 0.216,-0.676 0.216,0.825 0.216,0.648 0.216,-0.983 0.216,0.825 0.216,2.177 0.216,0.261 0.216,0.659 0.216,0.301 0.216,-2.33 0.216,-0.879 0.216,0.143 0.216,-1.534 0.216,0.417 0.216,0.864 0.216,0.875 0.216,1.311 0.216,1.431 0.216,0.55 0.216,-0.653 0.216,-0.058 0.216,-1.535 0.216,-2 0.216,0.714 0.216,1.015 0.216,0.833 0.216,-0.242 0.216,-1.042 0.216,-0.28 0.216,-0.495 0.216,1.239 0.216,-1.074 0.216,0.809 0.216,0.876 0.216,-0.352 0.216,0.437 0.216,1.037 0.216,0.106 0.216,-1.576 0.216,1.556 0.216,0.53 0.216,1.352 0.216,-0.167 0.216,-2.494 0.216,0.537 0.216,-0.103 0.216,-0.273 0.216,-1.407 0.216,-0.391 0.216,-0.616 0.216,1.635 0.216,-0.926 0.216,0.472 0.216,-0.363 0.216,-1.622 0.216,1.107 0.216,-0.551 0.216,-0.486 0.216,0.188 0.216,-0.041 0.216,0.918 0.216,2.242 0.216,1.284 0.216,0.072 0.216,0.964 0.216,0.662 0.216,-2.411 0.216,0.914 0.216,1.18 0.216,-1.843 0.216,0.919 0.216,1.193 0.216,0.029 0.216,-2.291 0.216,-0.416 0.216,-1.352 0.216,0.335 0.216,0.261 0.216,-0.482 0.216,0.708 0.216,1.214 0.216,0.276 0.216,-0.11 0.216,-1.406 0.216,0.481 0.216,0.3 0.216,0.009 0.216,0.679 0.216,-0.205 0.216,-2.021 0.216,-1.213 0.216,0.286 0.216,-0.509 0.216,1.383 0.216,2.335 0.216,-0.3 0.216,0.517 0.216,-0.451 0.216,-0.881 0.216,1.148 0.216,1.658 0.216,-2.704 0.216,0.169 0.216,1.029 0.216,2.03 0.216,-0.347 0.216,0.885 0.216,0.546 0.216,-1.766 0.216,-0.5 0.216,0.128 0.216,-0.271 0.216,-0.612 0.216,0.718 0.216,-1.746 0.216,-0.199 0.216,-0.109 0.216,-1.101 0.216,0.331 0.216,-1.091 0.216,2.572 0.216,0.401 0.216,0.317 0.216,0.683 0.216,-1.96 0.216,0.11 0.216,0.808 0.216,0.657 0.216,0.052 0.216,-0.2 0.216,1.965 0.216,0.957 0.216,0.077 0.216,-0.559 0.216,-1.382 0.216,-0.257 0.216,-1.115 0.216,-1.093 0.216,-0.374 0.216,-0.408 0.216,0.736 0.216,-1.685 0.216,2.226 0.216,1.118 0.216,-1.566 0.216,0.272 0.216,-2.786 0.216,2.063 0.216,1.229 0.216,-1.328 0.216,-2.029 0.216,0.898 0.216,-0.59 0.216,0.657 0.216,0.07 0.216,-0.682 0.216,1.421 0.216,1.524 0.216,-0.399 0.216,-1.715 0.216,1.163 0.216,0.894 0.216,0.092 0.216,-1.083 0.216,1.047 0.216,-0.081 0.216,0.117 0.216,-2.346 0.216,-0.493 0.216,-0.334 0.216,0.108 0.216,0.418 0.216,-0.848 0.216,-0.285 0.216,0.652 0.216,-0.226 0.216,-0.603 0.216,1.671 0.216,-0.173 0.216,1.701 0.216,-0.72 0.216,-0.068 0.216,-0.012 0.216,1.203 0.216,0.806 0.216,0.781 0.216,0.009 0.216,-1.619 0.216,-0.376 0.216,0.235 0.216,0.205 0.216,-1.491 0.216,-1.079 0.216,-0.902 0.216,1.192 0.216,0.622 0.216,-0.485 0.216,-0.185 0.216,-1.389 0.216,-0.256 0.216,-0.105 0.216,0.058 0.216,0.015 0.216,-2.595 0.216,2.463 0.216,1.036 0.216,1.975 0.216,-0.415 0.216,1.544 0.216,0.576 0.216,-0.119 0.216,-0.573 0.216,-1.653 0.216,-0.543 0.216,0.463 0.216,-0.837 0.216,-1.536 0.216,0.596 0.216,-0.08 0.216,-0.965 0.216,1.039 0.216,1.906 0.216,-0.622 0.216,0.331 0.216,-0.708 0.216,-0.566 0.216,1.936 0.216,2.491 0.216,0.483 0.216,-3.263 0.216,0.823 0.216,1.685 0.216,0.554 0.216,-2.1 0.216,-0.33 0.216,0.39 0.216,0.111 0.216,0.206 0.216,-0.816 0.216,0.168 0.216,-0.313 0.216,0.513 0.216,-0.576 0.216,-1.384 0.216,-0.55 0.216,1.205 0.216,0.654 0.216,-0.858 0.216,0.497 0.216,0.478 0.216,-0.757 0.216,0.476 0.216,0.39 0.216,-1.564 0.216,-0.578 0.216,1.286 0.216,0.055 0.216,0.476 0.216,1.483 0.216,-0.995 0.216,0.05 0.216,-1.332 0.216,1.189 0.216,0.328 0.216,1.046 0.216,-2.651 0.216,0.489 0.216,0.063 0.216,-0.218 0.216,1.1 0.216,-0.258 0.216,0.012 0.216,-1.084 0.216,1.814 0.216,-0.436 0.216,-0.909 0.216,0.487 0.216,-1.091 0.216,0.459 0.216,-0.013 0.216,0.368 0.216,-0.364 0.216,0.457 0.216,1.573 0.216,1.782 0.216,-0.555 0.216,-0.704 0.216,-1.91 0.216,-1.12 0.216,-0.123 0.216,1.614 0.216,-1.287 0.216,0.775 0.216,-0.745 0.216,-1.249 0.216,0.229 0.216,0.132 0.216,-0.897 0.216,-0.033 0.216,-1.118 0.216,1.301 0.216,1.126 0.216,1.089 0.216,0.944 0.216,0.337 0.216,0.053 0.216,-0.627 0.216,0.751 0.216,-0.153 0.216,-0.288 0.216,-0.408 0.216,-0.161 0.216,0.859 0.216,-0.117 0.216,0.524 0.216,-1.003 0.216,0.13 0.216,-0.527 0.216,0.234 0.216,1.935 0.216,0.46 0.216,-0.094 0.216,1.034 0.216,-3.335 0.216,-1.347 0.216,1.658 0.216,0.145 0.216,-0.78 0.216,-0.896 0.216,-0.043 0.216,-0.243 0.216,0.023 0.216,1.313 0.216,0.253 0.216,1.425 0.216,-0.741 0.216,-1.885 0.216,-0.99 0.216,0.563 0.216,1.368 0.216,1.513 0.216,-0.503 0.216,1.046 0.216,-0.246 0.216,-1.424 0.216,0.829 0.216,-1.455 0.216,-0.535 0.216,-0.984 0.216,1.336 0.216,-0.258 0.216,0.994 0.216,-2.302 0.216,1.064 0.216,-1.141 0.216,0.224 0.216,1.796 0.216,-1.352 0.216,1.21 0.216,0.286 0.216,0.228 0.216,-0.497 0.216,0.094 0.216,1.158 0.216,-0.931 0.216,1.373 0.216,1.801 0.216,1.99 0.216,-1.826 0.216,-2.969 0.216,-0.217 0.216,1.657 0.216,-0.698 0.216,-0.549 0.216,1.27 0.216,-0.4 0.216,-0.665 0.216,-1.46 0.216,0.991 0.216,1.109 0.216,0.251 0.216,-0.065 0.216,-0.276 0.216,0.53 0.216,1.878 0.216,1.963 0.216,0.777 0.216,1.598 0.216,0.351 0.216,-3.167 0.216,-2.206 0.216,0.401 0.216,-1.777 0.216,-1.46 0.216,-0.399 0.216,-0.745 0.216,0.411 0.216,-0.783 0.216,-0.28 0.216,-0.614 0.216,-1.123 0.216,1.607 0.216,0.988 0.216,0.86 0.216,-0.106 0.216,-0.654 0.216,0.186 0.216,-1.183 0.216,-0.79 0.216,-0.044 0.216,2.178 0.216,0.829 0.216,-10e-4 0.216,1.744 0.216,0.815 0.216,-0.265 0.216,-1.468 0.216,-0.909 0.216,-0.689 0.216,-1.738 0.216,-0.514 0.216,-1.068 0.216,0.441 0.216,1.349 0.216,0.429 0.216,-1.034 0.216,-1.309 0.216,0.646 0.216,0.497 0.216,0.563 0.216,0.941 0.216,-0.915 0.216,0.954 0.216,2.499 0.216,-0.402 0.216,-1.125 0.216,-0.794 0.216,0.756 0.216,-0.489 0.216,-0.146 0.216,0.111 0.216,1.632 0.216,0.68 0.216,-0.268 0.216,-1.258 0.216,-0.33 0.216,-0.896 0.216,0.284 0.216,-2.611 0.216,2.138 0.216,0.039 0.216,-0.501 0.216,0.663 0.216,0.597 0.216,-1.394 0.216,-1.399 0.216,1.332 0.216,-0.136 0.216,0.641 0.216,0.349 0.216,0.518 0.216,0.52 0.216,1.702 0.216,-0.487 0.216,0.023 0.216,-0.875 0.216,-0.196 0.216,0.418 0.216,0.479 0.216,-0.312 0.216,-0.378 0.216,1.009 0.216,-1.599 0.216,0.271 0.216,0.015 0.216,-1.093 0.216,1.776 0.216,0.086 0.216,-0.677 0.216,-0.96 0.216,-0.435 0.216,-0.649 0.216,-0.341 0.216,-0.129 0.216,-1.878 0.216,1.458 0.216,0.719 0.216,1.604 0.216,0.436 0.216,-0.292 0.216,-1.421 0.216,0.822 0.216,0.723"
       style="fill:none;stroke:#7e2f8e;stroke-width:1.5;stroke-linecap:square;stroke-linejoin:miter;stroke-miterlimit:10;stroke-dasharray:none;stroke-opacity:1"
       id="path8394" /><path
       d="m 413,358 77,0 0,57 -77,0 0,-57 z"
       style="fill:#ffffff;fill-opacity:1;fill-rule:nonzero;stroke:none"
       id="path8396" /><g
       id="g8398"><text
         transform="matrix(1,0,0,-1,452,405)"
         style="font-variant:normal;font-weight:normal;font-size:9px;font-family:mwb_cmmi10;-inkscape-font-specification:mwb_cmmi10;writing-mode:lr-tb;fill:#404040;fill-opacity:1;fill-rule:nonzero;stroke:none"
         id="text8400"><tspan
           x="0"
           y="0"
           id="tspan8402">τ</tspan></text>
<text
         transform="matrix(1,0,0,-1,456,401)"
         style="font-variant:normal;font-weight:normal;font-size:7px;font-family:Times;-inkscape-font-specification:Times-Roman;writing-mode:lr-tb;fill:#404040;fill-opacity:1;fill-rule:nonzero;stroke:none"
         id="text8404"><tspan
           x="0"
           y="0"
           id="tspan8406">r</tspan></text>
<text
         transform="matrix(1,0,0,-1,461.25,405)"
         style="font-variant:normal;font-weight:normal;font-size:9px;font-family:Times;-inkscape-font-specification:Times-Roman;writing-mode:lr-tb;fill:#404040;fill-opacity:1;fill-rule:nonzero;stroke:none"
         id="text8408"><tspan
           x="0 5.0760002 7.3260002 11.826 16.326 20.826"
           y="0"
           id="tspan8410">= 1000</tspan></text>
</g><path
       d="m 419,406.574 30,0"
       style="fill:none;stroke:#0072bd;stroke-width:1.5;stroke-linecap:square;stroke-linejoin:miter;stroke-miterlimit:10;stroke-dasharray:none;stroke-opacity:1"
       id="path8412" /><g
       id="g8414"><text
         transform="matrix(1,0,0,-1,452,392)"
         style="font-variant:normal;font-weight:normal;font-size:9px;font-family:mwb_cmmi10;-inkscape-font-specification:mwb_cmmi10;writing-mode:lr-tb;fill:#404040;fill-opacity:1;fill-rule:nonzero;stroke:none"
         id="text8416"><tspan
           x="0"
           y="0"
           id="tspan8418">τ</tspan></text>
<text
         transform="matrix(1,0,0,-1,456,388)"
         style="font-variant:normal;font-weight:normal;font-size:7px;font-family:Times;-inkscape-font-specification:Times-Roman;writing-mode:lr-tb;fill:#404040;fill-opacity:1;fill-rule:nonzero;stroke:none"
         id="text8420"><tspan
           x="0"
           y="0"
           id="tspan8422">r</tspan></text>
<text
         transform="matrix(1,0,0,-1,461.25,392)"
         style="font-variant:normal;font-weight:normal;font-size:9px;font-family:Times;-inkscape-font-specification:Times-Roman;writing-mode:lr-tb;fill:#404040;fill-opacity:1;fill-rule:nonzero;stroke:none"
         id="text8424"><tspan
           x="0 5.0760002 7.3260002 11.826 16.326"
           y="0"
           id="tspan8426">= 100</tspan></text>
</g><path
       d="m 419,393.191 30,0"
       style="fill:none;stroke:#d95319;stroke-width:1.5;stroke-linecap:square;stroke-linejoin:miter;stroke-miterlimit:10;stroke-dasharray:none;stroke-opacity:1"
       id="path8428" /><g
       id="g8430"><text
         transform="matrix(1,0,0,-1,452,378)"
         style="font-variant:normal;font-weight:normal;font-size:9px;font-family:mwb_cmmi10;-inkscape-font-specification:mwb_cmmi10;writing-mode:lr-tb;fill:#404040;fill-opacity:1;fill-rule:nonzero;stroke:none"
         id="text8432"><tspan
           x="0"
           y="0"
           id="tspan8434">τ</tspan></text>
<text
         transform="matrix(1,0,0,-1,456,374)"
         style="font-variant:normal;font-weight:normal;font-size:7px;font-family:Times;-inkscape-font-specification:Times-Roman;writing-mode:lr-tb;fill:#404040;fill-opacity:1;fill-rule:nonzero;stroke:none"
         id="text8436"><tspan
           x="0"
           y="0"
           id="tspan8438">r</tspan></text>
<text
         transform="matrix(1,0,0,-1,461.25,378)"
         style="font-variant:normal;font-weight:normal;font-size:9px;font-family:Times;-inkscape-font-specification:Times-Roman;writing-mode:lr-tb;fill:#404040;fill-opacity:1;fill-rule:nonzero;stroke:none"
         id="text8440"><tspan
           x="0 5.0760002 7.3260002 11.826"
           y="0"
           id="tspan8442">= 10</tspan></text>
</g><path
       d="m 419,379.809 30,0"
       style="fill:none;stroke:#edb120;stroke-width:1.5;stroke-linecap:square;stroke-linejoin:miter;stroke-miterlimit:10;stroke-dasharray:none;stroke-opacity:1"
       id="path8444" /><g
       id="g8446"><text
         transform="matrix(1,0,0,-1,452,365)"
         style="font-variant:normal;font-weight:normal;font-size:9px;font-family:mwb_cmmi10;-inkscape-font-specification:mwb_cmmi10;writing-mode:lr-tb;fill:#404040;fill-opacity:1;fill-rule:nonzero;stroke:none"
         id="text8448"><tspan
           x="0"
           y="0"
           id="tspan8450">τ</tspan></text>
<text
         transform="matrix(1,0,0,-1,456,361)"
         style="font-variant:normal;font-weight:normal;font-size:7px;font-family:Times;-inkscape-font-specification:Times-Roman;writing-mode:lr-tb;fill:#404040;fill-opacity:1;fill-rule:nonzero;stroke:none"
         id="text8452"><tspan
           x="0"
           y="0"
           id="tspan8454">r</tspan></text>
<text
         transform="matrix(1,0,0,-1,461.25,365)"
         style="font-variant:normal;font-weight:normal;font-size:9px;font-family:Times;-inkscape-font-specification:Times-Roman;writing-mode:lr-tb;fill:#404040;fill-opacity:1;fill-rule:nonzero;stroke:none"
         id="text8456"><tspan
           x="0 5.0760002 7.3260002"
           y="0"
           id="tspan8458">= 1</tspan></text>
</g><path
       d="m 419,366.426 30,0"
       style="fill:none;stroke:#7e2f8e;stroke-width:1.5;stroke-linecap:square;stroke-linejoin:miter;stroke-miterlimit:10;stroke-dasharray:none;stroke-opacity:1"
       id="path8460" /><path
       d="m 413,358 0,57 77,0 0,-57 -77,0"
       style="fill:none;stroke:#404040;stroke-width:1;stroke-linecap:square;stroke-linejoin:miter;stroke-miterlimit:10;stroke-dasharray:none;stroke-opacity:1"
       id="path8462" /></g></svg>