<?xml version="1.0" encoding="UTF-8" standalone="no"?>
<svg
   xmlns:dc="http://purl.org/dc/elements/1.1/"
   xmlns:cc="http://creativecommons.org/ns#"
   xmlns:rdf="http://www.w3.org/1999/02/22-rdf-syntax-ns#"
   xmlns:svg="http://www.w3.org/2000/svg"
   xmlns="http://www.w3.org/2000/svg"
   xmlns:sodipodi="http://sodipodi.sourceforge.net/DTD/sodipodi-0.dtd"
   xmlns:inkscape="http://www.inkscape.org/namespaces/inkscape"
   viewBox="0 0 239.20348 160.625"
   height="160.625"
   width="239.20348"
   xml:space="preserve"
   version="1.1"
   id="svg2"
   inkscape:version="0.91 r13725"
   sodipodi:docname="figure_theor_a.svg"><sodipodi:namedview
     pagecolor="#ffffff"
     bordercolor="#666666"
     borderopacity="1"
     objecttolerance="10"
     gridtolerance="10"
     guidetolerance="10"
     inkscape:pageopacity="0"
     inkscape:pageshadow="2"
     inkscape:window-width="741"
     inkscape:window-height="480"
     id="namedview56"
     showgrid="false"
     fit-margin-top="0"
     fit-margin-left="0"
     fit-margin-right="0"
     fit-margin-bottom="0"
     inkscape:zoom="0.23838384"
     inkscape:cx="364.19988"
     inkscape:cy="-93.75"
     inkscape:window-x="57"
     inkscape:window-y="34"
     inkscape:window-maximized="0"
     inkscape:current-layer="svg2" /><metadata
     id="metadata8"><rdf:RDF><cc:Work
         rdf:about=""><dc:format>image/svg+xml</dc:format><dc:type
           rdf:resource="http://purl.org/dc/dcmitype/StillImage" /><dc:title></dc:title></cc:Work></rdf:RDF></metadata><defs
     id="defs6"><clipPath
       id="clipPath2358"
       clipPathUnits="userSpaceOnUse"><path
         id="path2360"
         d="m 4680,3940 200,0 0,1890 -200,-1890 z"
         inkscape:connector-curvature="0" /></clipPath><clipPath
       id="clipPath2370"
       clipPathUnits="userSpaceOnUse"><path
         id="path2372"
         d="m 4880,5830 -200,0 0,-1890 200,1890 z"
         inkscape:connector-curvature="0" /></clipPath></defs><g
     transform="matrix(1.25,0,0,-1.25,-18.300125,749.375)"
     id="g10"><path
       d="m 27,504 178,0 0,95 -178,0 0,-95 z"
       style="fill:#ffffff;fill-opacity:1;fill-rule:nonzero;stroke:none"
       id="path18"
       inkscape:connector-curvature="0" /><g
       id="g20"><text
         transform="matrix(1,0,0,-1,71,476)"
         style="font-variant:normal;font-weight:normal;font-size:11px;font-family:Times;-inkscape-font-specification:Times-Roman;writing-mode:lr-tb;fill:#404040;fill-opacity:1;fill-rule:nonzero;stroke:none"
         id="text22"><tspan
           x="0 7.3369999 12.221 17.105 22.605 27.489 30.547001 33.605 39.105 44.605 47.355 54.076 57.133999 65.692001 70.575996 73.325996"
           y="0"
           id="tspan24">Recycling Time (</tspan></text>
<text
         transform="matrix(1,0,0,-1,148,476)"
         style="font-variant:normal;font-weight:normal;font-size:11px;font-family:mwb_cmmi10;-inkscape-font-specification:mwb_cmmi10;writing-mode:lr-tb;fill:#404040;fill-opacity:1;fill-rule:nonzero;stroke:none"
         id="text26"><tspan
           x="0"
           y="0"
           id="tspan28">τ</tspan></text>
<text
         transform="matrix(1,0,0,-1,153,471)"
         style="font-variant:normal;font-weight:normal;font-size:8px;font-family:Times;-inkscape-font-specification:Times-Roman;writing-mode:lr-tb;fill:#404040;fill-opacity:1;fill-rule:nonzero;stroke:none"
         id="text30"><tspan
           x="0"
           y="0"
           id="tspan32">r</tspan></text>
<text
         transform="matrix(1,0,0,-1,156,476)"
         style="font-variant:normal;font-weight:normal;font-size:11px;font-family:Times;-inkscape-font-specification:Times-Roman;writing-mode:lr-tb;fill:#404040;fill-opacity:1;fill-rule:nonzero;stroke:none"
         id="text34"><tspan
           x="0"
           y="0"
           id="tspan36">)</tspan></text>
</g><path
       d="m 27,504 178,0"
       style="fill:none;stroke:#404040;stroke-width:1;stroke-linecap:square;stroke-linejoin:miter;stroke-miterlimit:10;stroke-dasharray:none;stroke-opacity:1"
       id="path38"
       inkscape:connector-curvature="0" /><path
       d="m 27,599 178,0"
       style="fill:none;stroke:#404040;stroke-width:1;stroke-linecap:square;stroke-linejoin:miter;stroke-miterlimit:10;stroke-dasharray:none;stroke-opacity:1"
       id="path40"
       inkscape:connector-curvature="0" /><path
       d="m 80.4,504 0,1.78"
       style="fill:none;stroke:#404040;stroke-width:1;stroke-linecap:square;stroke-linejoin:miter;stroke-miterlimit:10;stroke-dasharray:none;stroke-opacity:1"
       id="path42"
       inkscape:connector-curvature="0" /><path
       d="m 80.4,599 0,-1.78"
       style="fill:none;stroke:#404040;stroke-width:1;stroke-linecap:square;stroke-linejoin:miter;stroke-miterlimit:10;stroke-dasharray:none;stroke-opacity:1"
       id="path44"
       inkscape:connector-curvature="0" /><path
       d="m 151.6,504 0,1.78"
       style="fill:none;stroke:#404040;stroke-width:1;stroke-linecap:square;stroke-linejoin:miter;stroke-miterlimit:10;stroke-dasharray:none;stroke-opacity:1"
       id="path46"
       inkscape:connector-curvature="0" /><path
       d="m 151.6,599 0,-1.78"
       style="fill:none;stroke:#404040;stroke-width:1;stroke-linecap:square;stroke-linejoin:miter;stroke-miterlimit:10;stroke-dasharray:none;stroke-opacity:1"
       id="path48"
       inkscape:connector-curvature="0" /><g
       id="g50"><text
         transform="matrix(1,0,0,-1,75,492)"
         style="font-variant:normal;font-weight:normal;font-size:10px;font-family:mwb_cmmi10;-inkscape-font-specification:mwb_cmmi10;writing-mode:lr-tb;fill:#404040;fill-opacity:1;fill-rule:nonzero;stroke:none"
         id="text52"><tspan
           x="0"
           y="0"
           id="tspan54">τ</tspan></text>
<text
         transform="matrix(1,0,0,-1,80,487)"
         style="font-variant:normal;font-weight:normal;font-size:8px;font-family:Times;-inkscape-font-specification:Times-Roman;writing-mode:lr-tb;fill:#404040;fill-opacity:1;fill-rule:nonzero;stroke:none"
         id="text56"><tspan
           x="0"
           y="0"
           id="tspan58">a</tspan></text>
<text
         transform="matrix(1,0,0,-1,146,492)"
         style="font-variant:normal;font-weight:normal;font-size:10px;font-family:mwb_cmmi10;-inkscape-font-specification:mwb_cmmi10;writing-mode:lr-tb;fill:#404040;fill-opacity:1;fill-rule:nonzero;stroke:none"
         id="text60"><tspan
           x="0"
           y="0"
           id="tspan62">τ</tspan></text>
<text
         transform="matrix(1,0,0,-1,151,487)"
         style="font-variant:normal;font-weight:normal;font-size:8px;font-family:Times;-inkscape-font-specification:Times-Roman;writing-mode:lr-tb;fill:#404040;fill-opacity:1;fill-rule:nonzero;stroke:none"
         id="text64"><tspan
           x="0"
           y="0"
           id="tspan66">c</tspan></text>
<text
         transform="matrix(0,1,1,0,22.1531,519.88)"
         style="font-variant:normal;font-weight:normal;font-size:11px;font-family:Times;-inkscape-font-specification:Times-Roman;writing-mode:lr-tb;fill:#404040;fill-opacity:1;fill-rule:nonzero;stroke:none"
         id="text68"><tspan
           x="0 7.3369999 12.221 15.279 20.163 23.221001 26.278999 31.778999 36.662998 39.412998 47.355 52.855 55.912998 58.971001"
           y="0"
           id="tspan70">Relative Units</tspan></text>
</g><path
       d="m 27,504 0,95"
       style="fill:none;stroke:#404040;stroke-width:1;stroke-linecap:square;stroke-linejoin:miter;stroke-miterlimit:10;stroke-dasharray:none;stroke-opacity:1"
       id="path72"
       inkscape:connector-curvature="0" /><path
       d="m 205,504 0,95"
       style="fill:none;stroke:#404040;stroke-width:1;stroke-linecap:square;stroke-linejoin:miter;stroke-miterlimit:10;stroke-dasharray:none;stroke-opacity:1"
       id="path74"
       inkscape:connector-curvature="0" /><path
       d="m 27,573.085 3.6328,1.763 3.632,1.763 3.6332,1.763 3.6329,1.763 3.632,1.762 3.6332,1.763 3.6328,1.761 3.632,1.759 3.6332,1.752 3.6329,1.735 3.632,1.694 3.6332,1.592 3.6316,1.357 3.6332,0.888 3.6328,0.162 3.6321,-0.623 3.6332,-1.203 3.6328,-1.519 3.632,-1.663 3.6332,-1.723 3.6329,-1.747 3.632,-1.757 3.633,-1.761 3.633,-1.762 3.632,-1.762 3.633,-1.763 3.633,-1.763 3.632,-1.763 3.633,-1.763 3.633,-1.763 3.632,-1.762 3.633,-1.763 3.633,-1.763 3.632,-1.763 3.633,-1.763 3.633,-1.763 3.632,-1.763 3.633,-1.763 3.632,-1.763 3.633,-1.763 3.633,-1.763 3.632,-1.763 3.633,-1.762 3.633,-1.763 3.632,-1.763 3.633,-1.763 3.633,-1.763 3.632,-1.763 3.633,-1.763"
       style="fill:none;stroke:#0072bd;stroke-width:1.5;stroke-linecap:butt;stroke-linejoin:bevel;stroke-miterlimit:10;stroke-dasharray:1, 3;stroke-dashoffset:0;stroke-opacity:1"
       id="path76"
       inkscape:connector-curvature="0" /><path
       d="m 27,551.049 3.6328,1.322 3.632,1.322 3.6332,1.322 3.6329,1.322 3.632,1.322 3.6332,1.323 3.6328,1.322 3.632,1.322 3.6332,1.322 3.6329,1.322 3.632,1.322 3.6332,1.321 3.6316,1.322 3.6332,1.321 3.6328,1.321 3.6321,1.321 3.6332,1.319 3.6328,1.319 3.632,1.317 3.6332,1.315 3.6329,1.312 3.632,1.308 3.633,1.302 3.633,1.293 3.632,1.281 3.633,1.265 3.633,1.243 3.632,1.211 3.633,1.17 3.633,1.116 3.632,1.047 3.633,0.963 3.633,0.863 3.632,0.754 3.633,0.638 3.633,0.523 3.632,0.418 3.633,0.324 3.632,0.245 3.633,0.183 3.633,0.135 3.632,0.097 3.633,0.07 3.633,0.05 3.632,0.035 3.633,0.025 3.633,0.018 3.632,0.013 3.633,0.009"
       style="fill:none;stroke:#d95319;stroke-width:1.5;stroke-linecap:butt;stroke-linejoin:bevel;stroke-miterlimit:10;stroke-dasharray:1, 3;stroke-dashoffset:0;stroke-opacity:1"
       id="path78"
       inkscape:connector-curvature="0" /><path
       d="m 27,583.883 3.6328,0.441 3.632,0.44 3.6332,0.441 3.6329,0.441 3.632,0.44 3.6332,0.441 3.6328,0.439 3.632,0.436 3.6332,0.43 3.6329,0.414 3.632,0.372 3.6332,0.27 3.6316,0.035 3.6332,-0.433 3.6328,-1.158 3.6321,-1.944 3.6332,-2.522 3.6328,-2.838 3.632,-2.981 3.6332,-3.038 3.6329,-3.059 3.632,-3.065 3.633,-3.062 3.633,-3.055 3.632,-3.044 3.633,-3.028 3.633,-3.005 3.632,-2.974 3.633,-2.933 3.633,-2.879 3.632,-2.81 3.633,-2.726 3.633,-2.626 3.632,-2.516 3.633,-2.401 3.633,-2.287 3.632,-2.18 3.633,-2.087 3.632,-2.009 3.633,-1.946 3.633,-1.897 3.632,-1.86 3.633,-1.833 3.633,-1.813 3.632,-1.798 3.633,-1.788 3.633,-1.781 3.632,-1.775 L 205,504"
       style="fill:none;stroke:#404040;stroke-width:1.5;stroke-linecap:square;stroke-linejoin:miter;stroke-miterlimit:10;stroke-dasharray:none;stroke-opacity:1"
       id="path80"
       inkscape:connector-curvature="0" /><path
       d="m 37,514 82,0 0,33 -82,0 0,-33 z"
       style="fill:#ffffff;fill-opacity:1;fill-rule:nonzero;stroke:none"
       id="path82"
       inkscape:connector-curvature="0" /><g
       id="g84"><text
         transform="matrix(1,0,0,-1,75.8859,536.99)"
         style="font-variant:normal;font-weight:normal;font-size:9px;font-family:Times;-inkscape-font-specification:Times-Roman;writing-mode:lr-tb;fill:#404040;fill-opacity:1;fill-rule:nonzero;stroke:none"
         id="text86"><tspan
           x="0 5.0040002 7.506 10.503 14.499 18"
           y="0"
           id="tspan88">Stress</tspan></text>
</g><path
       d="m 42.982,540.335 29.9129,0"
       style="fill:none;stroke:#0072bd;stroke-width:1.5;stroke-linecap:butt;stroke-linejoin:bevel;stroke-miterlimit:10;stroke-dasharray:1, 3;stroke-dashoffset:0;stroke-opacity:1"
       id="path90"
       inkscape:connector-curvature="0" /><g
       id="g92"><text
         transform="matrix(1,0,0,-1,75.8859,527.155)"
         style="font-variant:normal;font-weight:normal;font-size:9px;font-family:Times;-inkscape-font-specification:Times-Roman;writing-mode:lr-tb;fill:#404040;fill-opacity:1;fill-rule:nonzero;stroke:none"
         id="text94"><tspan
           x="0 6.4980001 9 12.501 16.497 20.997 24.497999 27 29.502001"
           y="0"
           id="tspan96">Viscosity</tspan></text>
</g><path
       d="m 42.982,530.5 29.9129,0"
       style="fill:none;stroke:#d95319;stroke-width:1.5;stroke-linecap:butt;stroke-linejoin:bevel;stroke-miterlimit:10;stroke-dasharray:1, 3;stroke-dashoffset:0;stroke-opacity:1"
       id="path98"
       inkscape:connector-curvature="0" /><g
       id="g100"><text
         transform="matrix(1,0,0,-1,75.8859,517.32)"
         style="font-variant:normal;font-weight:normal;font-size:9px;font-family:Times;-inkscape-font-specification:Times-Roman;writing-mode:lr-tb;fill:#404040;fill-opacity:1;fill-rule:nonzero;stroke:none"
         id="text102"><tspan
           x="0 5.0040002 7.506 10.503 14.499 17.000999 21.500999 23.750999 29.754 33.75 36.251999"
           y="0"
           id="tspan104">Strain Rate</tspan></text>
</g><path
       d="m 42.982,520.665 29.9129,0"
       style="fill:none;stroke:#404040;stroke-width:1.5;stroke-linecap:square;stroke-linejoin:miter;stroke-miterlimit:10;stroke-dasharray:none;stroke-opacity:1"
       id="path106"
       inkscape:connector-curvature="0" /><path
       d="m 37,514 0,33 82,0 0,-33 -82,0"
       style="fill:none;stroke:#404040;stroke-width:1;stroke-linecap:square;stroke-linejoin:miter;stroke-miterlimit:10;stroke-dasharray:none;stroke-opacity:1"
       id="path108"
       inkscape:connector-curvature="0" /></g></svg>